<?xml version="1.0" encoding="utf-8"?>
<!-- Generator: Adobe Illustrator 16.0.0, SVG Export Plug-In . SVG Version: 6.00 Build 0)  -->
<!DOCTYPE svg PUBLIC "-//W3C//DTD SVG 1.1//EN" "http://www.w3.org/Graphics/SVG/1.1/DTD/svg11.dtd">
<svg version="1.1" id="Layer_1" xmlns="http://www.w3.org/2000/svg" xmlns:xlink="http://www.w3.org/1999/xlink" x="0px" y="0px"
	 width="864px" height="864px" viewBox="0 0 864 864" enable-background="new 0 0 864 864" xml:space="preserve">
<g>
	<path d="M858.22,138.643c1.086-11.798,0.579-20.061-1.221-27.258c-2.034-8.137-14.146-9.156-33.674-11.055
		c0,0-2.441-8.678-10.849-18.17c-8.407-9.493-16.818-10.172-16.818-10.172s-12.608,0.407-21.829,1.086
		c-9.226,0.678-18.902,7.781-22.974,15.375c0,0-11.141,1.145-39.252-0.791c-20.421-1.41-22.767-2.347-22.767-2.347
		s-8.685-6.809-36.141-7.277c-13.748-0.234-28.633,2.113-28.633,2.113s-42.483-2.229-57.269-1.645
		c-14.789,0.587-25.233,4.696-25.233,4.696c-5.396-0.352-10.205,0.704-10.205,0.704c2.346-9.624-15.144-9.036-22.652-4.93
		c-7.508,4.107-13.024,12.791-13.024,12.791h-81.561c0,0,0-55.976,0-59.262c0-3.286-2.113-4.46-5.399-4.46c-3.286,0-8.446,0-8.446,0
		s0-11.733,0-14.667c0-2.935-2.351-4.458-7.396-4.458c0,0-14.551-2.7-20.066-3.757c-5.517-1.055-7.527,0.617-11.332,5.06
		l-56.547,69.298c0,0-34.581-1.22-95.199,2.712c-60.615,3.933-74.993,9.086-74.993,9.086s-72.55,3.933-103.604,13.561
		c0,0-10.714-1.897-18.582,4.477c-7.863,6.375-8.135,14.646-8.135,21.968c0,7.322,2.307,20.478,9.493,23.462
		c7.186,2.982,13.696,2.304,13.696,2.304s2.848,6.238,3.664,9.221c0,0-6.512,2.984-6.512,9.63c0,10.85,4.882,11.798,7.053,12.475
		c0,0,0.678,5.967-3.663,8.542c-4.342,2.58-5.019,1.764-10.441,3.525c-5.425,1.765-11.255,4.068-10.984,11.527
		c0.267,7.459,4.065,17.631,19.664,18.851c0,0,1.353,11.39,13.558,15.188c12.204,3.798,27.53,7.595,33.768,8.544
		c6.239,0.949,9.087-0.949,9.087-6.51c0-5.561-0.271-13.154,6.645-14.783c4.26-1.001,14.239-0.27,14.239-0.27
		s-2.445,5.831-2.445,17.9c0,12.07,9.359,66.314,67.672,66.314s69.705-49.634,69.705-49.634s360.044-2.712,364.516-2.848
		c4.479-0.135,8.407-0.271,10.851-4.342c0,0,14.24,45.42,68.209,45.023c32.346-0.236,50.644-22.168,58.994-40.546
		c5.968-13.14,6.1-24.545,6.1-24.545l5.696-0.678c0,0,1.899,6.238,2.034,8.407c0,0,24.142-1.763,51.67-4.339
		c27.526-2.578,35.666-6.376,37.832-21.563c0,0,11.287-1.466,13.291-14.374c2.168-13.97-6.779-19.392-6.779-19.392
		s-0.238-14.109-0.544-20.75c-0.402-8.812-9.899-10.85-9.899-10.85s2.715-2.712,7.728-3.932
		C853.338,151.661,857.136,150.441,858.22,138.643z M793.898,75.922c0,0,4.068-0.271,12.205,6.645
		c8.914,7.578,11.256,17.221,11.256,17.221c-3.526-0.815-14.781-1.762-14.781-1.762C792,76.058,780.88,75.922,780.478,75.922
		H793.898z M777.896,78.769c10.744,1.955,18.581,18.171,18.581,18.171s-8.54-0.813-15.458-2.577
		c-6.916-1.763-26.224-4.83-26.224-4.83S761.488,75.786,777.896,78.769z M568.557,81.557c11.384,0,69.707,1.996,84.49,2.699
		c14.787,0.703,25.936,0.82,25.936,0.82c0.352,1.527,1.172,4.576,1.172,4.576l-126.387-4.928
		C553.77,84.724,557.172,81.557,568.557,81.557z M556.444,124.042c2.712,0,4.157,2.168,4.157,3.617c0,1.445-1.266,3.435-3.253,3.435
		c-1.99,0-5.063,0-9.223,0c-4.157,0-4.157-1.988-4.157-1.988s-20.976,0-23.864,0c-2.894,0-2.354-3.979,0-3.979
		c9.761,0,23.687-0.182,23.687-0.182s1.987-0.905,4.339-0.905C550.48,124.041,553.732,124.042,556.444,124.042z M534.113,88.602
		c3.797-1.355,12.071-0.679,12.071-0.679c-9.9,0.407-18.306,7.324-22.78,20.478c-4.478,13.155-11.799,14.241-11.799,14.241
		s6.926-5.962,10.169-18.172C524.62,93.757,530.315,89.959,534.113,88.602z M509.431,83.585c5.152-3.661,12.207-3.796,15.597-2.849
		c3.391,0.95,2.5,4.58,1.356,6.24c0,0-1.943,7.774-12.435,8.499c-6.491,0.447-15.64,0.317-15.64,0.317
		S504.278,87.247,509.431,83.585z M496.775,99.856l20.433-0.043c0,0-4.159,20.794-14.104,21.517
		c-1.027,0.075-3.226,0.133-6.328,0.179V99.856z M471.643,99.911l21.881-0.047v21.686c-5.609,0.054-13.185,0.081-21.881,0.081
		V99.911z M447.232,99.964l21.153-0.044v21.71c-6.612-0.005-13.777-0.025-21.153-0.053V99.964z M421.92,100.018l22.059-0.045v21.589
		c-7.308-0.032-14.768-0.076-22.059-0.124V100.018z M400.685,38.372c0,0,2.758-3.756,3.46-4.458
		c0.706-0.706,4.699-3.288,4.699,0.703c0,3.989,0,57.267,0,57.267h-8.159V38.372z M397.148,100.072l21.515-0.045v21.384
		c-7.537-0.055-14.828-0.119-21.515-0.189V100.072z M382.502,12.12c1.445,0,9.402,0,10.487,0c1.082,0,2.351,0.542,2.351,2.349
		c0,1.808,0,82.089,0,82.089s-40.322,0-42.853,0c-2.529,0-4.702-0.724-6.687-2.352c-1.497-1.22-3.566-2.632-6.148-4.927
		c-3.666-3.254-2.848-9.222-0.406-12.205c2.44-2.984,44.48-57.498,44.48-57.498l6.645,0.135v-3.798h-8.409l-47.738,61.974
		c-2.303,3.118-1.626,8.542-1.626,8.542c-4.286-0.892-9.583-0.904-9.583-0.904s54.426-70.156,55.51-71.42
		C379.606,12.843,381.053,12.12,382.502,12.12z M393.892,100.079v21.105c-8.96-0.102-16.629-0.214-22.058-0.33v-20.73
		L393.892,100.079z M368.579,100.132v20.644c-2.113-0.057-3.663-0.112-4.521-0.17c-10.851-0.724-14.648-20.432-14.648-20.432
		L368.579,100.132z M366.363,11.17h9.493l-57.363,74.449c-3.661,0.813-10.171-1.355-10.171-1.355L366.363,11.17z M274.827,86.705
		c41.228,0.542,58.584-0.272,69.974,18.442c3.397,5.575,4.611,9.495,9.085,13.699c2.95,2.767,8.406,5.246,12.888,5.831
		c9.357,1.219,16.952,2.034,16.952,2.034c-10.452,0-18.297,0.04-24.004-1.494c-8.146-2.188-12.287-6.992-16.27-14.646
		c-6.781-13.021-16.001-17.9-32.273-19.799c-16.275-1.899-130.458,0-130.458,0S233.603,86.161,274.827,86.705z M28.651,131.998
		c13.919,0,268.683-2.712,284.057-2.712c15.369,0,16.994,1.448,22.963,4.883c5.969,3.435,69.071,40.682,76.484,45.563
		c7.413,4.881,12.114,7.593,18.082,7.593c9.404,0,315.705-2.53,353.128-3.437c37.427-0.902,50.809-4.702,50.809-4.702
		c0.905,2.714,0.183,4.882,0.183,4.882c-3.073,1.629-2.53,3.617-50.808,5.426c-46.861,1.757-348.608,4.52-354.579,4.52
		c-5.971,0-8.861-1.627-13.019-3.796c-4.161-2.169-79.196-47.736-84.62-50.628c-5.428-2.894-12.116-3.435-15.013-3.435
		c-2.894,0-246.267,2.351-288.031,2.351c-3.618,0-6.875-0.543-6.875-3.075C21.418,132.902,24.492,131.998,28.651,131.998z
		 M14.727,150.622c-3.073-3.255-5.787-11.03-5.787-17.539c0-6.511,0.542-13.743,5.065-19.529c4.52-5.786,11.751-4.883,11.751-4.883
		s-8.316,10.308-8.316,25.134c0,14.827,6.872,18.807,6.872,18.807S17.802,153.878,14.727,150.622z M29.012,176.661
		c0-6.693,3.978-5.968,3.978-5.968v13.019C32.99,183.71,29.012,183.351,29.012,176.661z M35.524,193.474
		c0.723-4.158,3.251-27.122-3.983-36.705c-7.232-9.582-8.544-14.87-8.544-14.87s1.899,0.949,8.001,0.949
		c6.099,0,265.118-1.899,276.641-1.899c11.527,0,17.633-0.135,29.293,7.596c11.661,7.727,69.836,42.444,77.703,46.648
		c7.866,4.203,12.748,3.117,23.595,3.117c10.85,0,269.864-2.575,326.414-4.067c56.549-1.492,70.653-5.063,70.244-5.651
		c0,0,2.715,2.712,0.546,3.798c-2.171,1.084-6.873,1.807-10.851,6.51c-3.978,4.701-2.527,11.39-2.527,11.39
		s-176.836,4.159-359.458,4.521c-182.619,0.363-418.042,3.617-418.042,3.617c-0.361-15.914-13.378-18.446-13.378-18.446
		S34.798,197.633,35.524,193.474z M26.3,227.105c-6.51-0.361-14.427-5.023-14.645-14.828c-0.183-8.136,11.549-8.316,14.286-8.316
		c6.325,0,13.558,2.53,13.558,13.743C39.498,224.031,32.81,227.466,26.3,227.105z M165.431,305.671
		c-28.017,0-50.723-22.709-50.723-50.721c0-7.827,1.772-15.3,4.935-21.919h5.484c-3.527,6.497-5.529,14.005-5.529,21.919
		c0,25.312,20.518,45.829,45.833,45.829c25.311,0,45.831-20.517,45.831-45.829c0-7.914-1.793-15.022-5.324-21.516
		c0,0,1.764,0.134,3.118,0.27c1.356,0.135,2.64,0.423,2.64,0.423c2.863,6.353,4.457,13.401,4.457,20.823
		C216.153,282.962,193.443,305.671,165.431,305.671z M165.431,287.086c17.749,0,32.136-14.388,32.136-32.136
		c0-8.39-3.212-16.182-8.476-21.905h9.135c4.262,6.313,6.755,13.712,6.755,21.905c0,21.84-17.708,39.546-39.55,39.546
		c-21.842,0-39.554-17.707-39.554-39.546c0-8.19,2.495-15.606,6.758-21.919h9.229c-5.32,5.735-8.571,13.48-8.571,21.919
		C133.293,272.698,147.681,287.086,165.431,287.086z M141.93,255.312c0-13.331,10.81-24.141,24.143-24.141
		c13.332,0,24.138,10.81,24.138,24.141c0,13.333-10.806,24.139-24.138,24.139C152.739,279.451,141.93,268.645,141.93,255.312z
		 M679.938,294.37c-27.813,0-50.081-22.451-50.081-50.267c0-5.451,0.747-10.813,2.352-15.731l4.982-0.43
		c-1.798,4.953-2.786,10.301-2.786,15.878c0,25.648,20.792,46.443,46.442,46.443c25.653,0,46.443-20.795,46.443-46.443
		c0-6.137-0.705-11.169-2.873-16.533l4.522,0.361c1.937,5.35,2.712,9.896,2.712,15.912
		C731.652,271.376,707.758,294.37,679.938,294.37z M680.844,277.35c18.521,0,33.53-15.014,33.53-33.53
		c0-6.204-1.38-11.355-4.315-16.337l7.671-0.014c2.514,5.262,3.435,10.132,3.435,16.351c0,22.267-18.05,40.322-40.32,40.322
		c-22.27,0-40.32-18.056-40.32-40.322c0-5.566,1.127-10.87,3.168-15.694l7.632-0.21c-2.555,4.732-4.005,10.15-4.005,15.904
		C647.314,262.335,662.326,277.35,680.844,277.35z M658.604,246.452c0-11.984,9.714-21.698,21.697-21.698
		c11.984,0,21.696,9.714,21.696,21.698c0,11.984-9.712,21.696-21.696,21.696C668.317,268.148,658.604,258.436,658.604,246.452z
		 M822.238,237.773c-16.994,2.893-64.187,5.424-64.187,5.424s-0.721-7.232-2.353-12.477c-1.628-5.242-5.063-8.135-15.008-8.135
		s-72.144,0-95.106,0c-22.965,0-24.949,7.414-27.847,15.731c-2.896,8.318-6.148,14.467-7.775,16.996
		c-1.63,2.53-0.906,5.065-9.948,5.065c-9.037,0-348.788,2.529-357.645,2.889c-8.863,0.361-10.671-5.063-13.924-11.389
		c-3.251-6.329-6.51-13.022-9.585-16.456c-3.072-3.435-4.88-7.594-23.325-7.594c-18.443,0-83.175,0-98.18,0
		c-15.005,0-19.166,6.328-19.166,12.476c0,6.149,0,3.798,0,6.149c0,2.352-1.086,4.521-5.606,3.252
		c-4.522-1.265-24.953-4.519-32.004-7.774c-7.051-3.252-9.583-11.213-9.583-11.213s9.399-1.625,12.474-7.592
		c0,0,618.189-5.413,693.236-7.234c74.494-1.805,85.163-1.805,85.163-1.805c0.724,0,4.882,9.04,17.357,8.86
		C839.236,222.946,839.236,234.879,822.238,237.773z M852.072,196.911c3.617,7.776,2.166,15.369-4.344,19.346
		c-6.508,3.982-21.515,1.99-21.515-5.425c0-7.957,1.807-11.572,8.137-13.921c6.329-2.35,7.593-2.53,7.414-5.064
		c-0.182-2.53-2.528-4.337-2.528-4.337S848.455,189.134,852.072,196.911z M846.558,168.613c0.546,8.815,0,17.9,0,17.9
		s-5.017-2.575-8.137-3.661c0,0-3.253-9.764,0-22.242C838.421,160.61,846.137,161.736,846.558,168.613z M847.373,106.686
		c0,0,5.242,1.265,6.146,6.687c0.906,5.425,1.991,15.551,0.545,25.315c-1.447,9.762-6.688,10.306-6.688,10.306
		S854.061,127.838,847.373,106.686z"/>
	<path d="M343.443,78.025c-2.029,2.71-1.762,6.238-0.542,7.188c1.219,0.949,4.202,3.661,5.695,4.745
		c1.493,1.085,2.847,1.764,3.933,1.764c2.71,0,37.836,0,37.836,0V24.189h-5.154C385.214,24.189,345.479,75.313,343.443,78.025z
		 M348.599,78.025l34.716-46.378c0,0-0.267,4.342-0.542,6.373l-27.801,38.245C354.972,76.263,352.667,76.667,348.599,78.025z
		 M386.839,84.806c0,0-3.39,0-6.238,0c-2.44,0-5.833-1.04-8.272-2.984c-2.668-2.126-2.712-6.371-0.548-9.221l15.056-21.428v33.633
		H386.839z"/>
</g>
</svg>
