<?xml version="1.0" encoding="utf-8"?>
<!-- Generator: Adobe Illustrator 16.0.0, SVG Export Plug-In . SVG Version: 6.00 Build 0)  -->
<!DOCTYPE svg PUBLIC "-//W3C//DTD SVG 1.1//EN" "http://www.w3.org/Graphics/SVG/1.1/DTD/svg11.dtd">
<svg version="1.1" id="Layer_1" xmlns="http://www.w3.org/2000/svg" xmlns:xlink="http://www.w3.org/1999/xlink" x="0px" y="0px"
	 width="864px" height="864px" viewBox="0 0 864 864" enable-background="new 0 0 864 864" xml:space="preserve">
<g>
	<path d="M854.417,248.938c-2.584-13.26-18.76-13.696-18.76-13.696c-1.694-2.623-2.628-6.188-2.628-6.188
		c3.002-4.88-2.627-10.695-2.627-10.695s0.938-19.886,4.691-32.644c3.752-12.761,8.443-32.454-9.942-42.022
		c-18.387-9.57-60.984-15.749-60.984-15.749s-3.475-4.484-14.731-11.234c-11.257-6.754-23.468-6.494-23.468-6.494
		s-26.212-43.691-35.448-57.418c-9.238-13.731-14.728-15.478-29.21-19.723c-14.481-4.243-18.969-7.239-34.949-15.479
		c-15.981-8.239-25.713-10.484-71.399-10.734c-45.686-0.25-48.185-5.741-139.056-0.25c-90.875,5.493-100.112,10.984-110.597,21.72
		c-7.042,7.209-2.249,11.234-2.249,11.234c-0.954,1.593-52.531,82.927-52.531,82.927s-63.223,1.69-126.63,8.44
		c-63.409,6.754-84.983,16.511-84.983,16.511c-14.07-1.502-27.765,11.82-25.702,34.144c2.064,22.325,12.758,27.015,12.758,27.015
		s5.065,9.38,5.065,27.39s-3.753,20.636-3.753,20.636s-9.466,0.158-12.756,0.939c-7.881,1.874-9.944,10.13-7.692,20.448
		c2.25,10.316,12.194,13.132,12.194,13.132c2.813,14.071,11.443,24.954,26.452,25.889c15.008,0.939,39.02,1.13,39.02,1.13
		c0-0.562-1.312,24.763,6.943,41.455c12.816,25.924,27.578,32.832,63.41,32.083c35.831-0.751,45.774-40.339,45.774-40.339
		c11.443-1.876,37.332-9.004,37.332-9.004l69.6,1.5c0,0,1.687,2.44,9.193,5.07c7.504,2.623,32.457,6.563,32.457,6.563
		s2.625,14.82,13.693,32.456c11.07,17.631,36.586,19.323,65.288,14.631c28.702-4.688,37.146-45.398,37.146-45.398
		c8.44,4.879,23.264,7.692,38.459,5.815c15.194-1.875,25.885-18.57,25.885-18.57s156.405-20.225,157.21-15.948
		c4.689,24.952,14.824,46.151,26.457,47.655c11.631,1.5,31.7,1.876,41.644-0.563c9.942-2.438,24.015-18.947,30.207-46.339
		c4.476-19.809,2.436-43.522,2.436-43.522c3.567-0.56,10.319,0.187,10.319,0.187c-0.377,8.631-3.94,13.695-3.94,13.695
		s23.637-3.563,36.958-9.38c13.319-5.814,14.069-21.947,14.069-21.947S857.23,263.381,854.417,248.938z M828.714,223.611
		c2.627,0,2.813,4.314,1.125,4.688c-1.688,0.377-17.819,1.502-33.954,2.627c-16.135,1.125-73.541,3.377-88.547,4.5
		c-15.01,1.127-66.037,5.817-74.666,6.38c-8.627,0.561-10.316-0.94-14.443-4.69c-4.127-3.752-39.396-44.462-43.715-50.09
		c-4.313-5.629-9.757-6.38-17.631-5.815c-7.881,0.562-196.983,7.876-201.864,7.876c-4.875,0-6.753-1.875-6.753-3.563
		c0-2.25,4.316-2.812,8.258-2.999c3.94-0.191,184.219-5.446,200.733-5.818c16.509-0.375,18.196,3.753,21.573,8.252
		c3.376,4.5,38.27,44.648,42.396,48.587c4.127,3.94,6.941,3.94,12.947,3.566c6.003-0.374,60.217-5.443,72.978-6.189
		C719.907,230.177,826.089,223.611,828.714,223.611z M334.715,188.468c0-21.124-13.067-30.093-22.664-30.093
		c-15.11,0-20.625,10.166-20.625,10.166s5.717-14.952,21.441-14.952c14.498,0,29.202,11.36,29.202,33.489
		c0,13.128-8.449,22.989-15.316,26.908c-4.966,2.833-9.802,2.593-9.802,2.593S334.715,209.598,334.715,188.468z M310.357,213.608
		c-11.147,0-20.184-11.58-20.184-25.862c0-14.284,9.037-25.86,20.184-25.86c11.146,0,20.182,11.576,20.182,25.86
		S321.501,213.608,310.357,213.608z M321.063,149.32c0,0,11.634-7.878,110.498-14.823c51.055-3.583,88.736-4.314,98.117-4.686
		c9.38-0.377,21.387,3.939,31.142,15.38c9.756,11.445,18.198,28.14,24.762,30.395c0,0-4.874,2.814-13.13-10.319
		c-8.257-13.133-23.263-32.079-43.711-32.268c-20.452-0.187-93.8,3.189-143.515,8.255C335.51,146.318,321.063,149.32,321.063,149.32
		z M442.441,53.081c0,0,2.835-4.277,6.83-4.445c3.995-0.164,9.821,0.668,16.811,16.313s15.313,35.95,16.811,39.612
		c1.496,3.662,1.832,10.152-8.987,11.317c-10.82,1.165-21.307-0.998-38.944-2.996c-17.646-1.996-27.964-1.001-30.792-4.495
		c0,0-2.664-2.331,3.327-15.475c5.993-13.149,13.126-26.484,13.126-26.484c1.831,0.218,3.882,0.352,6.063,0.352
		c7.318,0,15.01-2.25,15.758-2.811C443.192,63.398,443.759,54.018,442.441,53.081z M469.549,52.137
		c17.829-0.947,43.243-2.432,43.243-2.432s2.468,1.905,4.719,2.096c2.25,0.188,3.908-0.032,3.908-1.343
		c0,0,0.938,1.125-1.499,11.257c-2.441,10.128-5.208,20.392-6.905,27.204c-5.18,20.805-6.658,21.802-6.658,21.802
		s-5.989,0-10.152-2.331c-4.162-2.331-5.826-6.156-13.148-21.802C475.733,70.94,469.549,52.137,469.549,52.137z M531.928,38.76
		c0,0,11.547,1.057,14.54,1.305c1.871,0.155,2.501,1.804,1.75,4.993c-0.752,3.188-18.54,81.189-18.54,81.189
		s-7.13,0.561-16.318,0.561c0,0,3.752-2.44,7.314-12.568c3.565-10.13,15.947-58.719,17.072-64.159
		C538.869,44.639,535.867,40.261,531.928,38.76z M679.664,170.989c-2.156,0.186-3.844,0.374-3.844-0.75c0-1.219,0-1.878,2.157-2.158
		c2.159-0.282,19.51-1.972,19.51-1.972s1.503-2.061,3.659-2.158c3.035-0.13,4.127,1.314,4.223,3.754
		c0.083,2.16-0.283,3.468-3.755,3.656c-3.47,0.189-7.69,0.189-7.69,0.189s-1.125-0.286-0.936-1.972
		C692.985,169.58,681.822,170.801,679.664,170.989z M674.32,160.014c-2.254,12.195-15.384,10.13-15.384,10.13
		c13.878-2.437,12.376-10.504,13.13-24.763c0.75-14.26,8.629-12.008,8.629-12.008C674.506,135.625,676.572,147.821,674.32,160.014z
		 M658.873,163.579c0,0-1.346-6.191-4.629-13.883c-3.283-7.692-7.691-9.472-7.691-9.472l5.689-0.283c0,0,8.256,1.504,10.009,7.88
		C664.001,154.2,666.377,162.827,658.873,163.579z M581.081,152.134c-3.472-6.285-7.599-9.47-7.599-9.47l9.475-0.377
		c0,0,4.501,1.407,8.911,8.535c4.407,7.131,5.216,15.323,5.216,15.323c-5.004,0.177-8.239,0.212-11.129,0.312
		C585.959,166.454,584.55,158.419,581.081,152.134z M582.96,166.631c-1.37,0.045-2.129,0.073-2.129,0.073
		s-9.131-18.008-17.011-23.763l4.878-0.166c0,0,4.781,2.699,8.628,8.611C581.175,157.293,582.96,166.631,582.96,166.631z
		 M594.962,150.915c-3.845-6.751-7.13-8.627-7.13-8.627l9.85-0.468c0,0,5.067,3.189,9.192,9.382
		c4.36,6.538,5.476,14.397,5.476,14.397c-4.336,0.158-8.537,0.305-12.383,0.441C599.967,166.04,598.809,157.669,594.962,150.915z
		 M609.782,150.352c-4.313-7.13-8.724-8.722-8.724-8.722l9.527-0.277c0,0,5.667,1.966,10.55,9.188
		c4.677,6.921,5.972,14.504,5.972,14.504c-4.041,0.154-8.181,0.311-12.246,0.458C614.861,165.502,614.099,157.483,609.782,150.352z
		 M624.605,150.071c-3.844-6.661-9.101-8.817-9.101-8.817l10.346-0.419c0,0,5.887,1.166,10.295,8.485
		c4.408,7.316,5.609,15.14,5.609,15.14c-3.745,0.156-7.427,0.171-11.71,0.339C630.045,164.799,628.45,156.73,624.605,150.071z
		 M639.517,149.509c-3.297-5.75-8.626-8.725-8.626-8.725l11.444-0.473c0,0,5.064,1.688,8.817,8.725
		c3.749,7.035,4.978,14.737,4.978,14.737c-2.64,0.16-6.668,0.353-11.518,0.559C644.611,164.335,643.551,156.542,639.517,149.509z
		 M583.705,138.439l-6.373-28.14c1.312,0,35.598-0.375,50.836,5.441c14.26,5.44,18.765,21.199,18.765,21.199L583.705,138.439z
		 M604.39,106.973c-8.737,0-27.058,0.074-27.058,0.074l-10.387-60.24c38.195,0.749,52.423-0.747,62.161,18.723
		c9.734,19.474,13.234,43.19,13.234,43.19S622.612,106.973,604.39,106.973z M579.581,140.315h-17.26c0,0-1.502-2.435-3.377-3.375
		l12.508-0.501l-15.51-83.733c0,0-14.443,58.157-15.571,63.974c-1.128,5.815,2.247,11.443,2.247,11.443s-3.188-2.437-8.25-2.249
		l18.382-82.356h8.443L579.581,140.315z M562.695,111.8c0,0,5.629,21.388,5.068,21.388c-0.564,0-13.32,0.375-13.32,0.375
		s-3.191-10.318-9.384-18.947C545.06,114.615,555.942,111.988,562.695,111.8z M546.374,109.174l8.818-40.896l7.316,40.896
		C562.509,109.174,553.127,109.174,546.374,109.174z M757.426,128.118c-6.189-0.371-14.823-0.371-14.823-0.371
		c-7.691-3.379-13.507-13.881-13.507-13.881C747.861,116.866,757.426,128.118,757.426,128.118z M305.552,33.326
		c1.25-3.246,7.99-10.734,28.713-15.229c11.333-2.458,55.985-6.817,97.862-8.739c34.686-1.591,67-1.12,81.135,0
		c40.945,3.247,77.895,0.499,96.12,5.993c18.223,5.493,31.204,16.228,49.675,20.721c18.473,4.495,22.47,9.487,31.208,23.468
		c8.738,13.983,25.973,46.007,37.705,59.203c3.041,3.424,8.442,8.253,8.442,8.253s-43.722-0.55-52.719-0.936
		c-20.142-0.863-26.882-0.112-29.88,5.134c0,0-6.741-38.947-16.479-62.916c-9.731-23.963-22.701-27.167-69.154-28.458
		c-8.986-0.25-11.98,0.5-11.98,0.5s0.247-1.998-28.211-4.746c-28.462-2.747-162.027-3.745-218.947,2.999
		C304.805,39.071,304.308,36.569,305.552,33.326z M258.032,117.241c3.188-6.005,36.582-57.782,42.02-65.66
		c5.443-7.88,9.945-9.756,17.825-10.881c7.877-1.127,63.033-3.941,102.991-3.941c39.962,0,85.734,1.126,98.119,2.25
		c12.379,1.128,15.761,5.815,14.443,12.57c-1.006,5.184-13.321,49.151-16.883,61.532c-3.567,12.382-9.005,13.136-9.005,13.136
		c-3.382,0.371-15.013,1.124-15.013,1.124c12.569-4.125,15.571-7.316,17.447-13.131c1.875-5.814,15.01-56.092,15.944-61.721
		c0.938-5.629-2.251-7.13-7.878-7.317c-5.63-0.189-57.406-1.501-97.179-1.501c-39.771,0-87.797,0.939-99.24,2.063
		c-11.444,1.125-13.322,3.753-16.322,7.881c-3.001,4.127-37.94,58.31-39.207,60.032c-2.627,3.565-2.376,6.417,0,7.504
		c4.503,2.064,9.191,3.192,14.819,2.815c5.629-0.377,34.145-6.567,90.986-10.319c56.845-3.751,102.245,13.884,102.245,13.884
		c-4.316,0.185-12.945,0.557-12.945,0.557s-14.822-2.623-47.652-7.128c-32.832-4.498-56.469-2.25-85.36,0.938
		c-28.89,3.191-45.024,6.753-50.841,7.13c-5.815,0.374-11.82-0.751-16.508-3.189C256.155,123.431,257.058,119.071,258.032,117.241z
		 M323.694,50.455l8.627,0.185c0,0,0.376,3.379,3.565,3.379s5.253-2.626,5.253-2.626s4.981-0.312,12.102,0.359
		C373.964,53.7,371.965,86,371.965,86s-14.148-9.57-34.869-2.083c-20.722,7.489-21.305,31.042-21.305,31.042
		c-2.247,0.5-4.294,0.78-4.294,0.78L323.694,50.455z M305.495,116.679c0,0-19.135,3.754-24.952,3.938
		c-5.815,0.188-9.004-2.435-9.004-2.435c0.563-0.188,34.519-54.405,36.958-58.719c2.44-4.314,7.128-6.942,7.128-6.942
		L305.495,116.679z M337.927,89.58c20.537-8.045,34.287,2.829,34.287,2.829c-0.168,11.235-0.998,16.81-0.998,16.81
		c-16.644,1.166-49.433,4.493-49.433,4.493S321.785,95.904,337.927,89.58z M115.078,152.887
		c41.649-12.197,61.909-10.132,61.909-10.132c-54.217,7.128-106.62,29.667-106.183,29.267
		C77.37,166.015,97.42,158.054,115.078,152.887z M80.186,189.342c0,0,15.758-19.948,96.613-17.51
		c47.091,1.42,75.782,8.725,90.425,14.448c10.5,4.101,11.443,8.438,11.443,8.438c2.813-0.189,7.692,0,7.692,0
		s5.065,28.331,32.454,24.95c24.018-2.959,27.393-29.827,27.393-29.827s2.811,3.375,8.814,3.001
		c6.006-0.374,195.297-7.878,203.175-8.066c7.88-0.188,9.382,1.505,13.135,5.629c3.753,4.125,21.573,24.39,34.892,40.335
		c13.323,15.944,14.823,15.944,26.266,15.384c11.445-0.562,65.792-6.514,90.429-7.319c69.037-2.249,107.307-6.563,107.307-6.563
		l1.312,2.625c-2.25,2.626-11.444,4.879-39.771,6.752c-28.329,1.876-210.678,16.509-282.34,20.259
		c-71.662,3.754-141.073,5.631-195.294,5.818c-12.593,0.042-57.406-1.317-57.406-1.317c0.187-3.377-1.689-8.815-1.689-8.815
		c6.567-0.563,17.016-3.114,21.011-11.632c4.253-9.063,5.317-19.986,3.189-30.395c-1.329-6.5-3.942-13.954-7.69-16.695
		c-15.172-11.103-53.092-20.451-108.058-20.451c-54.229,0-76.917,12.568-83.295,18.32c0,0-2.126,2.627-3.628,10.381
		c-1.5,7.755-1.75,31.638-1.75,31.638c-8.13,1.625-13.007,9.382-13.007,14.384c0,5.001-0.187,5.94-0.187,5.94l-29.455-1.687
		c0,0,1.875-0.625,2.254-14.134c0,0,1.648,4.698,5.25,6.63c3.26,1.746,9.077,1.13,12.194-2.253
		c6.565-7.13,4.689-19.509-1.126-24.199c-3.251-2.62-8.068-2.063-12.194,0.188c-2.714,1.479-3.941,3.565-3.941,3.565
		c-0.563-6.189-3.188-16.509-3.188-16.509c30.578,11.443,36.958-22.703,36.958-22.703C71.742,188.716,80.186,189.342,80.186,189.342
		z M222.198,260.569c-46.863-1.991-46.913-2.3-51.214-1.69c-2.625,0.375-1.126,4.127,2.066,6.568c0,0-19.137-0.751-18.574-0.94
		c0.563-0.185,3.939-1.684,4.691-4.125c0.749-2.437,0.375-2.437-4.691-2.811c-5.066-0.375-53.278-2.064-53.278-2.064
		s-1.314,2.064,1.313,3.938c2.625,1.878,4.689,3.191,4.689,3.191l-10.319-0.936l-3.002-9.567l62.284,2.434
		c29.829,1.319,66.599,2.064,66.599,2.064L222.198,260.569z M222.575,269.76l-0.75,26.074c0,0-96.428-2.438-132.259-4.128
		c0,0-6.005-2.811-6.005-13.693c0-10.88,11.819-13.132,11.819-13.132S192.183,269.386,222.575,269.76z M92.191,248.938
		c0,0-3.377-10.128-13.318-9.944c0,0-1.503-29.827,4.688-39.581c5.488-8.646,39.959-19.511,93.426-17.072
		c53.468,2.437,86.054,13.595,91.55,19.51c7.316,7.878,12.356,43.907-3.563,50.466c-3.192,1.314-11.443,1.875-11.443,1.875
		s-0.564-4.127-3.754-7.318c0,0,11.07,1.13,15.758-2.811c5.318-4.469,7.882-29.268,1.314-36.772
		c-6.564-7.504-59.094-13.883-91.548-14.446c-32.457-0.559-72.287,5.658-78.794,12.57c-3.004,3.189-6.191,22.325-2.815,28.517
		c3.376,6.191,5.252,8.44,51.215,10.318c45.962,1.875,82.168,2.249,82.168,2.249s-3.751,4.878-3.94,6.942
		C223.136,253.439,116.955,250.436,92.191,248.938z M244.694,242.281c0,0.324,0,0.638,0,0.966h-2.252c0-0.339,0-0.665,0-1
		c-1.676-0.031-3.353-0.053-5.029-0.085c0,0.238,0,0.473,0,0.706h-2.252c0-0.25,0-0.491,0-0.742
		c-1.676-0.029-3.352-0.059-5.029-0.089c0,0.689,0,1.394,0,2.099c-0.741-0.012-1.492-0.026-2.252-0.039c0-0.7,0-1.404,0-2.099
		c-1.679-0.033-3.356-0.064-5.027-0.099c-0.002,0.688-0.002,1.395-0.002,2.095c-0.743-0.019-1.493-0.035-2.251-0.053
		c0-0.693,0-1.399,0.002-2.085c-1.681-0.035-3.358-0.071-5.03-0.106c0,0.685-0.001,1.375-0.001,2.066
		c-0.747-0.02-1.496-0.04-2.252-0.059c0-0.686,0-1.377,0.001-2.055c-1.681-0.035-3.359-0.076-5.03-0.112c0,0.671,0,1.348,0,2.028
		c-0.746-0.021-1.497-0.044-2.252-0.066c0-0.671,0.001-1.351,0.001-2.013c-1.682-0.038-3.36-0.082-5.031-0.121
		c0,0.656-0.001,1.319-0.001,1.984c-0.748-0.027-1.498-0.047-2.25-0.074c0-0.657,0-1.318,0-1.969
		c-1.684-0.041-3.361-0.082-5.03-0.126c0,0.639-0.001,1.288-0.001,1.934c-0.747-0.027-1.498-0.05-2.252-0.073
		c0.001-0.642,0.001-1.287,0.001-1.922c-1.686-0.044-3.363-0.088-5.028-0.132c0,0.621,0,1.256,0,1.886
		c-0.75-0.024-1.502-0.05-2.252-0.073c0-0.628,0-1.255,0.002-1.875c-1.689-0.047-3.367-0.094-5.031-0.141
		c0,0.61-0.003,1.228-0.003,1.841c-0.749-0.025-1.5-0.047-2.25-0.077c0-0.61,0.001-1.227,0.003-1.83
		c-1.692-0.05-3.371-0.101-5.033-0.148c0,0.597,0,1.199,0,1.808c-0.583-0.026-1.165-0.042-1.746-0.062
		c-0.17-0.005-0.334-0.011-0.504-0.02c0-0.598,0-1.201,0-1.793c-1.693-0.05-3.37-0.102-5.028-0.157c0,0.587-0.001,1.186-0.001,1.778
		c-0.756-0.03-1.509-0.053-2.252-0.082c0-0.589,0-1.183,0.001-1.763c-1.699-0.055-3.374-0.106-5.031-0.161c0,0.573,0,1.157,0,1.734
		c-0.758-0.03-1.507-0.058-2.252-0.088c0-0.574,0-1.154,0.002-1.719c-1.703-0.054-3.379-0.109-5.031-0.164
		c0,0.558-0.001,1.124-0.001,1.684c-0.762-0.03-1.507-0.062-2.252-0.095c0-0.553,0-1.115,0.001-1.661
		c-1.704-0.058-3.384-0.115-5.029-0.17c-0.001,0.533-0.001,1.075-0.001,1.611c-0.758-0.033-1.511-0.068-2.25-0.102
		c0-0.528,0-1.064,0.001-1.584c-1.715-0.059-3.389-0.118-5.031-0.177c0,0.499,0,1.01-0.001,1.515
		c-0.763-0.04-1.511-0.081-2.252-0.12c0-0.489,0-0.986,0.001-1.469c-1.723-0.062-3.4-0.123-5.032-0.182c0,0.448,0,0.909,0,1.358
		c-0.765-0.045-1.515-0.094-2.25-0.141c0.002-0.429,0-0.874,0.002-1.299c-1.739-0.062-3.414-0.125-5.031-0.187
		c0,0.374,0,0.753,0,1.13c-0.771-0.059-1.518-0.12-2.251-0.177c0-0.347,0-0.693,0-1.034c-1.758-0.067-3.437-0.13-5.028-0.191
		c0,0.249,0,0.506,0,0.76c-0.784-0.088-1.529-0.167-2.252-0.249c0-0.201,0-0.403,0-0.6c-1.81-0.073-3.486-0.141-5.03-0.203
		c0,0.037,0,0.07,0,0.104c-2.591-0.433-4.544-0.905-5.815-1.433c-1.663-0.689-2.879-2.256-3.704-4.363
		c0.003-1.004,0.004-2.013,0.01-3.014c-0.3-0.015-0.589-0.032-0.873-0.04c-0.141-0.729-0.256-1.486-0.336-2.27
		c0.389,0.018,0.792,0.038,1.219,0.058c0.009-1.857,0.02-3.687,0.032-5.469c-0.448-0.03-0.902-0.065-1.355-0.097
		c0.041-0.744,0.101-1.496,0.183-2.244c0.397,0.03,0.796,0.059,1.187,0.088c0.011-1.75,0.023-3.441,0.036-5.045
		c-0.136-0.004-0.254-0.009-0.385-0.01c0.49-2.111,1.138-4.101,1.92-5.826c0.161-0.357,0.425-0.713,0.772-1.071
		c-0.013,1.427-0.028,3.015-0.042,4.733c1.467,0.043,3.133,0.098,4.999,0.16c0.014-2.191,0.031-4.216,0.043-6.044
		c-1.118-0.038-2.242-0.08-3.365-0.117c1.337-0.836,3.208-1.683,5.639-2.549c-0.001,0.165-0.003,0.321-0.005,0.491
		c1.68,0.059,3.359,0.118,5.03,0.173c0.006-0.804,0.013-1.545,0.02-2.255c0.72-0.207,1.473-0.415,2.257-0.621
		c-0.008,0.902-0.016,1.887-0.025,2.955c1.681,0.061,3.357,0.115,5.025,0.173c0.015-1.648,0.026-3.102,0.038-4.363
		c0.71-0.159,1.463-0.304,2.254-0.459c-0.012,1.384-0.027,3.015-0.042,4.904c1.678,0.055,3.352,0.11,5.022,0.169
		c0.012-1.973,0.027-3.737,0.04-5.266c-1.187-0.033-2.34-0.062-3.48-0.098c3.745-0.672,8.199-1.318,13.107-1.895
		c1.619,0.041,3.264,0.087,4.938,0.131c0-0.227,0.003-0.454,0.003-0.672c0.744-0.082,1.496-0.156,2.254-0.227
		c-0.001,0.309-0.004,0.625-0.007,0.956c1.654,0.044,3.331,0.088,5.029,0.133c0.004-0.543,0.007-1.051,0.011-1.534
		c0.747-0.061,1.497-0.121,2.253-0.179c-0.004,0.553-0.009,1.141-0.014,1.773c1.659,0.04,3.337,0.089,5.027,0.13
		c0.004-0.813,0.013-1.562,0.019-2.249c0.748-0.047,1.498-0.092,2.251-0.135c-0.004,0.739-0.012,1.554-0.02,2.443
		c1.667,0.044,3.345,0.085,5.034,0.129c0.008-1.054,0.015-1.995,0.023-2.823c0.751-0.032,1.501-0.062,2.252-0.089
		c-0.006,0.862-0.014,1.855-0.023,2.971c1.081,0.027,2.171,0.056,3.26,0.082c0.574-0.301,1.166-0.562,1.777-0.774
		c0.008-0.901,0.013-1.71,0.019-2.428c0.752-0.015,1.502-0.03,2.252-0.038c-0.005,0.572-0.01,1.207-0.016,1.9
		c0.622-0.094,1.257-0.153,1.904-0.153c1.071,0,2.115,0.141,3.125,0.403c0.006-0.807,0.012-1.533,0.017-2.179
		c0.741,0.001,1.49,0.012,2.252,0.026c-0.006,0.854-0.016,1.841-0.023,2.97c0.386,0.177,0.766,0.374,1.137,0.595
		c1.296,0.032,2.593,0.065,3.888,0.097c0.011-1.34,0.02-2.516,0.028-3.512c0.745,0.03,1.494,0.065,2.251,0.103
		c-0.009,0.988-0.017,2.143-0.03,3.464c1.681,0.041,3.359,0.084,5.034,0.125c0.007-1.252,0.019-2.349,0.026-3.294
		c0.746,0.053,1.495,0.106,2.249,0.162c-0.005,0.922-0.016,1.981-0.025,3.189c1.684,0.041,3.36,0.082,5.029,0.125
		c0.008-1.078,0.015-2.044,0.021-2.9c0.749,0.066,1.499,0.136,2.25,0.208c-0.006,0.819-0.012,1.734-0.022,2.747
		c1.69,0.04,3.37,0.083,5.034,0.127c0.006-0.871,0.014-1.655,0.019-2.366c0.75,0.08,1.501,0.162,2.25,0.247
		c-0.006,0.659-0.01,1.384-0.017,2.171c1.692,0.038,3.37,0.085,5.027,0.123c0.004-0.61,0.01-1.176,0.014-1.711
		c0.752,0.094,1.501,0.185,2.249,0.278c-0.003,0.473-0.008,0.965-0.012,1.487c1.694,0.044,3.365,0.083,5.012,0.124
		c0.002-0.325,0.005-0.641,0.008-0.952c0.754,0.103,1.504,0.209,2.25,0.312c-0.001,0.23-0.004,0.456-0.004,0.695
		c1.704,0.041,3.38,0.083,5.024,0.124c0-0.033,0-0.061,0-0.091c6.217,0.935,11.958,1.907,16.808,2.82
		c-0.016,1.713-0.033,3.689-0.049,5.949c1.696,0.049,3.378,0.097,5.052,0.146c0.015-1.926,0.028-3.62,0.042-5.096
		c0.788,0.164,1.538,0.327,2.247,0.483c-0.01,1.375-0.024,2.932-0.037,4.676c1.694,0.047,3.376,0.096,5.048,0.144
		c0.011-1.353,0.023-2.546,0.034-3.58c0.593,0.168,1.096,0.326,1.494,0.473c0.265,0.097,0.5,0.204,0.749,0.306
		c-0.009,0.86-0.019,1.81-0.026,2.862c1.512,0.04,3.01,0.083,4.504,0.118c1.252,1.319,2.146,2.861,2.748,4.608
		c-0.01,0.881-0.016,1.823-0.025,2.818c0.245,0.004,0.489,0.009,0.737,0.018c0.129,0.729,0.224,1.478,0.291,2.252
		c-0.347-0.006-0.694-0.009-1.042-0.017c-0.011,1.963-0.023,4.104-0.036,6.441l1.152,0.032c-0.025,0.744-0.053,1.497-0.093,2.25
		l-1.067-0.032c-0.008,1.71-0.015,3.515-0.019,5.405c0.183,0.003,0.366,0.007,0.549,0.012c-0.124,0.768-0.272,1.519-0.453,2.242
		c-0.034,0-0.07,0-0.103-0.001c0,0.135-0.001,0.272-0.001,0.412c-0.759,2.867-2.016,5.296-4.109,6.694
		c-1.061-0.012-2.119-0.02-3.181-0.032c-0.001,0.401-0.001,0.812-0.001,1.221c-0.003,0-0.004,0-0.004,0
		c-0.628,0.091-1.38,0.165-2.245,0.233c0-0.489,0-0.994,0.001-1.48c-1.675-0.017-3.352-0.036-5.031-0.059c0,0.586,0,1.189,0,1.783
		c-0.718,0.02-1.465,0.041-2.252,0.053c0-0.624,0-1.252,0-1.864C248.049,242.328,246.374,242.305,244.694,242.281z M226.7,255.689
		c0.939-4.879,6.191-8.818,12.009-8.818c12.755,0,14.069,19.698,14.069,19.698s-10.882,4.879-10.882,15.568
		c0,11.823,4.691,16.887,4.691,16.887s-4.13,12.005-7.879,16.132c-3.753,4.128-11.445,4.502-12.571-3.565
		C225.012,303.529,225.764,260.569,226.7,255.689z M244.9,282.33c0.563-10.13,9.567-12.567,9.567-12.567s65.1,2.45,83.104,2.063
		c17.446-0.373,24.018-0.56,28.706,0.563c4.689,1.127,12.944,4.878,13.13,12.568c0.189,7.692-10.503,15.008-34.328,15.382
		c-23.827,0.376-95.679-3.939-95.679-3.939S244.336,292.46,244.9,282.33z M41.165,226.112c0,0,2.083-1.078,4.376-0.501
		c3.14,0.793,6.753,3.997,6.753,11.01c0,6.626-3.535,9.762-6.753,10.377c-2.668,0.514-5.126-1.001-5.126-1.001
		s8.003,0.748,8.003-9.253C48.416,226.738,41.165,226.112,41.165,226.112z M41.165,243.497c-6.941,0-6.941-15.009,0-15.009
		C46.792,228.487,48.106,243.497,41.165,243.497z M38.162,150.445c13.319,0,26.827,10.695,26.827,31.519
		c0,12.357-7.758,21.638-14.07,25.326c-4.563,2.667-9.004,2.434-9.004,2.434s16.322-6.562,16.322-26.45
		c0-19.887-12.007-28.329-20.825-28.329c-13.883,0-18.948,9.568-18.948,9.568S23.717,150.445,38.162,150.445z M17.313,182.6
		c0-13.445,8.301-24.343,18.541-24.343c10.24,0,18.542,10.898,18.542,24.343c0,13.441-8.302,24.334-18.542,24.334
		C25.615,206.935,17.313,196.041,17.313,182.6z M9.458,273.325c0-8.822,3.564-13.133,13.51-12.759
		c9.943,0.375,39.208,2.063,39.208,2.063c0,0.565,0,27.768,0,27.768s-31.892-1.504-39.022-2.441
		C16.025,287.021,9.458,282.141,9.458,273.325z M46.291,313.159c-21.727-2.35-22.761-21.762-22.761-21.762
		c6.003,1.002,38.271,2.751,38.271,2.751c0.25,17.761,9.505,20.012,9.505,20.012S55.546,314.16,46.291,313.159z M73.432,311.033
		c-4.014-1.003-8.067-6.424-8.067-16.13c0-15.571,0-35.27,0-40.897s3.751-11.819,12.757-11.819c9.005,0,12.571,13.132,14.82,20.071
		c0,0-13.132,3.941-13.132,15.758c0,9.568,4.502,15.759,8.255,16.888c0,0-4.877,9.192-7.692,13.132
		C79.213,309.653,76.24,311.737,73.432,311.033z M80.06,314.41c0,0,4.753-4.504,11.505-18.514l129.82,3.753c0,0,0,6.002,0.75,11.01
		c0.749,5.002,2.502,7.504,5.503,9.003L80.06,314.41z M159.727,368.251c-16.25,0.678-25.7-18.01-25.7-18.01
		s23.825,23.074,40.522,0.188c0,0,6.753,0.75,9.193,0.75C183.742,351.179,177.737,367.499,159.727,368.251z M167.608,347.052
		c-8.214,1.557-9.944-4.502-9.944-4.502l29.829-9.191c0,0,4.5,3.377,9.566,4.313C197.06,337.672,178.487,344.988,167.608,347.052z
		 M288.612,330.733c-3.378,0.374-26.266-0.377-28.705-0.562c-2.438-0.186-2.625,5.813-16.695,5.813
		c-14.071,0-34.893-0.561-42.774-1.125c-7.881-0.565-12.196-9.191-14.258-9.191s-16.32-0.94-18.759-1.317
		c-2.44-0.371-6.38-3.565-6.38-3.565l30.393,1.5c0,0,1.875,6.379,11.631,7.133c9.756,0.752,32.453,0.936,39.77,0.562
		c7.319-0.374,11.255-6.001,11.071-5.444c-0.189,0.563,36.769,1.69,36.769,1.69S291.988,330.355,288.612,330.733z M315.437,343.863
		c-3.565-1.5-2.438-10.314-2.438-10.314c12.192,3.751,33.767,7.879,33.767,7.879c0,2.249,1.5,9.38,1.5,9.38
		S317.69,344.813,315.437,343.863z M461.952,346.491c-7.886,32.654-24.009,41.647-34.33,42.396
		c-8.843,0.644-17.634-0.562-28.892-15.946c-11.253-15.383-11.067-43.9-11.067-43.9s3.001-1.124,4.503-2.625
		c0,0,0.469,20.198,6.564,33.957c5.459,12.309,12.384,18.193,23.076,18.008c14.649-0.257,25.511-15.199,30.013-39.208
		c4.501-24.013-2.436-42.397-2.436-42.397l12.381-0.751C461.769,296.025,468.709,318.537,461.952,346.491z M442.633,325.667
		c0,15.179-6.888,27.482-15.384,27.482c-8.498,0-15.385-12.303-15.385-27.482s6.885-27.487,15.385-27.487
		C435.745,298.183,442.633,310.488,442.633,325.667z M437.38,298.466l7.126-0.566c0,0,10.319,18.385,3.564,43.525
		c-6.015,22.385-18.01,32.267-27.202,33.016c-9.191,0.75-14.445-8.628-14.445-8.628s5.29,3.122,12.196,1.124
		c8.442-2.435,10.129-8.626,10.129-8.626s17.636-3.565,17.636-31.329C446.384,307.468,437.38,298.466,437.38,298.466z
		 M408.298,328.667c1.416,20.399,12.948,28.516,12.948,28.516s-16.887,0.188-18.949-25.885
		c-1.675-21.163,10.317-30.207,10.317-30.207S406.985,309.722,408.298,328.667z M500.225,343.3l-0.183-5.067l199.232-19.885
		l0.745,5.255C700.02,323.603,539.62,337.672,500.225,343.3z M751.423,364.687c-27.765,0.936-29.456-51.027-29.456-51.027
		s2.631-3,3.379-4.127c0,0-0.099,14.606,4.127,26.827c3.687,10.651,10.16,18.949,18.197,18.949c17.26,0,26.265-30.39,26.265-50.278
		c0-19.883-7.128-31.888-7.128-31.888l11.818-0.375c0,0,5.064,9.377,5.064,32.641C783.689,329.041,778.301,363.778,751.423,364.687z
		 M754.051,330.733c-6.222,0-11.26-10.583-11.26-23.639c0-13.054,5.038-23.634,11.26-23.634c6.215,0,11.255,10.58,11.255,23.634
		C765.306,320.15,760.266,330.733,754.051,330.733z M767.368,323.04c0,0-4.501,25.324-18.762,27.014
		c-10.565,1.254-11.445-5.439-11.445-5.439c11.074,2.438,16.89-9.944,16.89-9.944C762.304,333.921,767.368,323.04,767.368,323.04z
		 M738.854,305.967c0,20.258,9.385,26.453,9.385,26.453s-4.13,3.751-8.443-1.875c-4.314-5.627-6.38-12.008-6.38-24.011
		c0-12.006,3.129-20.383,7.13-23.45c5.632-4.316,9.759-1.688,9.759-1.688S738.854,285.707,738.854,305.967z M829.839,286.145
		c-11.131,4.88-29.511,8.505-29.511,8.505s4-7.007,3.5-15.384c-0.498-8.378-2.25-10.504-7.377-10.504
		c-5.132,0-34.522,0.75-46.153,2.25c-11.631,1.5-13.009,4.626-16.635,17.258c-3.627,12.633-10.066,24.638-27.828,28.765
		c0,0-0.936-3.001-8.439-2.064c-7.503,0.939-182.911,18.387-190.416,19.139c-7.503,0.747-9.565-0.375-6.753-7.321
		c2.813-6.939,2.813-18.947,1.873-25.7c-0.935-6.751-2.621-9.382-13.13-9.382c-10.504,0-54.256,2.702-69.225,4.128
		c-11.819,1.128-15.62,9.032-18.76,13.695c-5.815,8.631-9.383,16.601-18.384,16.884c-23.827,0.751-145.328-6.375-145.328-6.375
		c0.373,0,5.751,0,12.882-19.636c0,0,58.28,2.505,87.549,3.253c29.264,0.751,44.582-6.518,45.271-18.131
		c0.625-10.507-10.629-14.887-10.629-14.887s71.665-0.873,142.829-5.252c71.162-4.378,142.951-10.257,203.861-14.885
		c57.712-4.383,103.408-5.849,112.514-11.628c0.503-0.321,0.895-0.657,1.171-1.002c0,0,8.129,3.877,8.256,17.886
		C841.096,269.762,840.973,281.267,829.839,286.145z M845.786,262.822c-2.065-2.626-1.124-8.82-0.747-13.884
		c0.374-5.067-5.068-9.194-5.068-9.194s11.261,1.502,11.444,11.818C851.603,261.88,845.786,262.822,845.786,262.822z"/>
	<path d="M150.046,237.688c1.651,0.056,3.33,0.109,5.031,0.164c0.001-1.977,0.006-3.911,0.011-5.802
		c-1.703-0.064-3.378-0.127-5.029-0.189C150.052,233.759,150.048,235.704,150.046,237.688z"/>
	<path d="M159.109,216.5c-0.569-0.017-1.152-0.032-1.714-0.044c-0.009,1.911-0.017,3.904-0.027,5.976
		c0.966,0.033,1.954,0.061,2.954,0.094C159.648,220.658,159.229,218.628,159.109,216.5z"/>
	<path d="M150.063,229.608c1.652,0.062,3.327,0.124,5.029,0.188c0.005-1.77,0.011-3.497,0.018-5.179
		c-1.739-0.053-3.414-0.106-5.029-0.161C150.074,226.131,150.068,227.85,150.063,229.608z"/>
	<path d="M160.162,208.466c-0.907-0.029-1.813-0.059-2.723-0.088c-0.013,1.823-0.022,3.767-0.033,5.822
		c0.557,0.017,1.131,0.032,1.692,0.045C159.187,212.213,159.56,210.269,160.162,208.466z"/>
	<path d="M150.124,213.997c1.652,0.041,3.328,0.094,5.031,0.139c0.011-2.058,0.022-4.005,0.033-5.832
		c-1.672-0.056-3.346-0.112-5.029-0.168C150.147,209.97,150.136,211.924,150.124,213.997z"/>
	<path d="M162.5,203.714c0.007-1.04,0.014-2.031,0.022-2.945c-1.689-0.044-3.367-0.089-5.034-0.132
		c-0.012,1.645-0.024,3.489-0.037,5.493c1.205,0.037,2.406,0.079,3.604,0.118C161.48,205.353,161.963,204.501,162.5,203.714z"/>
	<path d="M150.172,205.883c1.684,0.059,3.361,0.113,5.031,0.168c0.01-1.998,0.024-3.837,0.037-5.473
		c-1.691-0.044-3.368-0.088-5.03-0.132C150.199,202.074,150.184,203.893,150.172,205.883z"/>
	<path d="M150.088,222.205c1.616,0.05,3.291,0.102,5.029,0.158c0.008-2.072,0.015-4.062,0.025-5.973
		c-1.703-0.047-3.378-0.098-5.03-0.145C150.105,218.153,150.096,220.141,150.088,222.205z"/>
	<path d="M135.613,205.394c1.683,0.059,3.361,0.114,5.03,0.169c0.014-1.97,0.026-3.762,0.037-5.367
		c-1.703-0.045-3.379-0.089-5.03-0.133C135.64,201.654,135.627,203.432,135.613,205.394z"/>
	<path d="M135.567,213.573c1.639,0.049,3.318,0.099,5.029,0.147c0.013-2.088,0.023-4.059,0.032-5.901
		c-1.669-0.059-3.346-0.115-5.029-0.173C135.588,209.495,135.576,211.473,135.567,213.573z"/>
	<path d="M142.766,237.442c1.646,0.059,3.325,0.114,5.029,0.171c0.003-1.989,0.006-3.936,0.011-5.84
		c-1.708-0.065-3.379-0.13-5.028-0.195C142.773,233.491,142.77,235.446,142.766,237.442z"/>
	<path d="M142.844,213.788c1.648,0.047,3.324,0.097,5.03,0.147c0.01-2.08,0.021-4.036,0.032-5.872
		c-1.67-0.055-3.347-0.11-5.028-0.169C142.868,209.732,142.856,211.701,142.844,213.788z"/>
	<path d="M142.893,205.64c1.682,0.056,3.36,0.112,5.028,0.168c0.013-1.985,0.027-3.798,0.037-5.42
		c-1.696-0.047-3.373-0.092-5.028-0.133C142.92,201.865,142.908,203.661,142.893,205.64z"/>
	<path d="M142.809,221.971c1.61,0.053,3.285,0.107,5.03,0.16c0.007-2.057,0.017-4.043,0.026-5.949
		c-1.708-0.047-3.38-0.097-5.029-0.144C142.824,217.933,142.816,219.913,142.809,221.971z"/>
	<path d="M142.784,229.328c1.647,0.063,3.322,0.127,5.03,0.194c0.004-1.754,0.01-3.468,0.017-5.137
		c-1.746-0.056-3.419-0.109-5.029-0.162C142.795,225.881,142.787,227.583,142.784,229.328z"/>
	<path d="M135.528,221.718c1.602,0.058,3.273,0.117,5.028,0.175c0.01-2.052,0.019-4.034,0.028-5.921
		c-1.712-0.047-3.392-0.097-5.029-0.145C135.543,217.705,135.536,219.675,135.528,221.718z"/>
	<path d="M188.895,215.045c0.889,0.023,1.771,0.042,2.665,0.07c0.009-1.987,0.021-3.866,0.031-5.634
		c-1.162-0.036-2.332-0.079-3.501-0.11C188.592,211.151,188.876,213.058,188.895,215.045z"/>
	<path d="M187.349,223.305c1.368,0.033,2.754,0.076,4.177,0.112c0.004-2.099,0.015-4.116,0.025-6.052
		c-0.923-0.027-1.83-0.047-2.747-0.071C188.607,219.432,188.104,221.458,187.349,223.305z"/>
	<path d="M186.584,205.578c0.256,0.489,0.493,0.998,0.71,1.518c1.443,0.042,2.88,0.092,4.311,0.136
		c0.013-2.101,0.028-4.022,0.04-5.729c-1.672-0.038-3.35-0.085-5.031-0.125C186.605,202.662,186.593,204.068,186.584,205.578z"/>
	<path d="M193.732,238.978c1.669,0.042,3.347,0.089,5.031,0.126c0.001-1.884,0.006-3.735,0.011-5.544
		c-1.69-0.055-3.364-0.106-5.031-0.161C193.738,235.217,193.735,237.079,193.732,238.978z"/>
	<path d="M193.773,223.483c1.643,0.045,3.319,0.096,5.031,0.144c0.008-2.111,0.018-4.133,0.027-6.079
		c-1.686-0.04-3.367-0.085-5.031-0.124C193.791,219.36,193.782,221.378,193.773,223.483z"/>
	<path d="M193.749,231.146c1.664,0.053,3.339,0.104,5.029,0.161c0.003-1.855,0.01-3.665,0.018-5.431
		c-1.709-0.045-3.389-0.094-5.03-0.14C193.76,227.491,193.754,229.294,193.749,231.146z"/>
	<path d="M186.468,230.906c1.663,0.056,3.339,0.11,5.031,0.167c0.005-1.848,0.011-3.651,0.016-5.397
		c-1.716-0.047-3.389-0.097-5.029-0.142C186.478,227.277,186.472,229.067,186.468,230.906z"/>
	<path d="M157.327,237.922c1.658,0.055,3.331,0.106,5.031,0.161c0.001-1.962,0.006-3.886,0.011-5.764
		c-1.698-0.064-3.376-0.126-5.03-0.187C157.334,234.021,157.33,235.953,157.327,237.922z"/>
	<path d="M164.619,232.397c-0.003,1.878-0.009,3.795-0.011,5.755c1.658,0.05,3.334,0.102,5.029,0.156
		c0.003-1.947,0.008-3.854,0.011-5.72c-0.008-0.003-0.015-0.006-0.023-0.009C167.939,232.519,166.268,232.459,164.619,232.397z"/>
	<path d="M186.451,238.782c1.667,0.047,3.345,0.096,5.032,0.136c0.002-1.903,0.005-3.768,0.011-5.593
		c-1.692-0.054-3.368-0.11-5.031-0.165C186.458,234.995,186.454,236.871,186.451,238.782z"/>
	<path d="M171.899,233.184c-0.003,1.701-0.006,3.422-0.01,5.188c1.661,0.048,3.338,0.097,5.032,0.148
		c0.001-1.875,0.005-3.709,0.009-5.508c-0.952,0.229-1.936,0.354-2.943,0.354C173.277,233.367,172.581,233.303,171.899,233.184z"/>
	<path d="M157.359,224.688c-0.006,1.686-0.01,3.417-0.015,5.193c1.653,0.059,3.333,0.121,5.031,0.183
		c0.003-1.163,0.007-2.297,0.01-3.427c-0.388-0.583-0.746-1.192-1.073-1.833C159.965,224.765,158.641,224.725,157.359,224.688z"/>
	<path d="M179.171,238.583c1.663,0.047,3.342,0.098,5.029,0.141c0.003-1.917,0.007-3.801,0.013-5.641
		c-1.692-0.058-3.372-0.114-5.031-0.17C179.178,234.761,179.173,236.653,179.171,238.583z"/>
	<path d="M181.721,230.745c0.832,0.029,1.657,0.056,2.496,0.085c0.002-0.812,0.005-1.614,0.008-2.41
		C183.459,229.296,182.622,230.079,181.721,230.745z"/>
	<path d="M128.341,205.148c1.68,0.053,3.353,0.109,5.021,0.168c0.012-1.957,0.026-3.727,0.037-5.319
		c-1.708-0.045-3.379-0.092-5.018-0.135C128.371,201.4,128.357,203.166,128.341,205.148z"/>
	<path d="M99.109,227.498c1.505,0.068,3.183,0.141,5.022,0.223c0.006-1.817,0.012-3.579,0.021-5.284
		c-1.654-0.109-3.312-0.226-5.015-0.345C99.128,223.853,99.119,225.663,99.109,227.498z"/>
	<path d="M99.078,235.803c1.38,0.056,3.066,0.127,5.031,0.206c0.003-2.061,0.008-4.077,0.015-6.033
		c-1.841-0.083-3.518-0.159-5.027-0.228C99.091,231.763,99.083,233.789,99.078,235.803z"/>
	<path d="M99.154,219.837c1.701,0.121,3.359,0.236,5.008,0.348c0.009-1.852,0.02-3.635,0.029-5.322
		c-1.864-0.061-3.533-0.115-5.001-0.164C99.177,216.334,99.164,218.053,99.154,219.837z"/>
	<path d="M106.359,236.1c1.545,0.064,3.219,0.129,5.029,0.2c0.007-2.055,0.01-4.059,0.016-6.006
		c-1.777-0.077-3.455-0.153-5.031-0.223C106.369,232.029,106.364,234.042,106.359,236.1z"/>
	<path d="M257.018,235.172c-1.679-0.033-3.359-0.077-5.029-0.12c-0.003,1.647-0.006,3.336-0.007,5.078
		c1.679,0.02,3.356,0.038,5.031,0.057C257.013,238.458,257.016,236.789,257.018,235.172z"/>
	<path d="M106.456,212.683c1.566,0.051,3.238,0.102,5.029,0.162c0.014-2.181,0.028-4.195,0.042-6.023
		c-1.67-0.056-3.349-0.115-5.03-0.173C106.485,208.472,106.469,210.493,106.456,212.683z"/>
	<path d="M106.382,227.822c1.576,0.068,3.253,0.143,5.029,0.22c0.006-1.769,0.012-3.491,0.021-5.152
		c-1.712-0.097-3.376-0.2-5.03-0.306C106.395,224.275,106.389,226.021,106.382,227.822z"/>
	<path d="M106.413,220.332c1.65,0.103,3.314,0.208,5.028,0.304c0.009-1.936,0.019-3.786,0.031-5.547
		c-1.79-0.051-3.461-0.104-5.031-0.157C106.432,216.643,106.423,218.451,106.413,220.332z"/>
	<path d="M264.37,218.995c-1.68-0.033-3.357-0.063-5.032-0.099c-0.013,1.972-0.023,4.098-0.034,6.385l5.032,0.138
		C264.347,223.09,264.357,220.955,264.37,218.995z"/>
	<path d="M264.323,227.672l-5.028-0.139c-0.009,1.728-0.015,3.547-0.02,5.438c1.672,0.04,3.349,0.078,5.03,0.115
		C264.313,231.189,264.319,229.381,264.323,227.672z"/>
	<path d="M135.503,229.04c1.64,0.066,3.321,0.132,5.029,0.2c0.005-1.738,0.01-3.439,0.018-5.091
		c-1.752-0.061-3.427-0.118-5.029-0.174C135.514,225.616,135.509,227.304,135.503,229.04z"/>
	<path d="M257.141,211.427c-1.674-0.045-3.354-0.096-5.048-0.141c-0.009,1.611-0.021,3.352-0.032,5.211
		c1.677,0.035,3.359,0.068,5.042,0.101C257.112,214.713,257.125,212.984,257.141,211.427z"/>
	<path d="M264.301,235.34c-1.682-0.038-3.359-0.074-5.032-0.115c-0.003,1.608-0.007,3.27-0.01,4.987
		c1.683,0.021,3.357,0.036,5.029,0.048C264.292,238.558,264.295,236.919,264.301,235.34z"/>
	<path d="M257.052,225.221c0.011-2.282,0.023-4.399,0.034-6.365c-1.683-0.033-3.364-0.064-5.039-0.1
		c-0.009,1.987-0.021,4.103-0.029,6.331c0.907,0.029,1.821,0.05,2.74,0.076L257.052,225.221z"/>
	<path d="M257.044,227.471l-2.348-0.063c-0.903-0.025-1.795-0.048-2.688-0.072c-0.004,1.753-0.011,3.574-0.015,5.464
		c1.671,0.036,3.349,0.08,5.031,0.118C257.03,231.025,257.037,229.202,257.044,227.471z"/>
	<path d="M264.426,211.624c-1.668-0.044-3.346-0.092-5.039-0.135c-0.014,1.552-0.024,3.27-0.037,5.157
		c1.676,0.033,3.354,0.066,5.036,0.097C264.399,214.837,264.415,213.137,264.426,211.624z"/>
	<path d="M128.248,221.443c1.597,0.062,3.265,0.126,5.028,0.191c0.009-2.037,0.017-4.002,0.028-5.876
		c-1.722-0.048-3.395-0.1-5.028-0.153C128.266,217.471,128.257,219.42,128.248,221.443z"/>
	<path d="M128.22,228.746c1.636,0.068,3.31,0.135,5.033,0.205c0.004-1.731,0.01-3.421,0.016-5.064
		c-1.759-0.063-3.434-0.13-5.031-0.192C128.233,225.335,128.227,227.021,128.22,228.746z"/>
	<path d="M128.202,236.933c1.631,0.055,3.309,0.115,5.032,0.177c0.003-2.014,0.006-3.981,0.012-5.909
		c-1.721-0.068-3.396-0.136-5.032-0.203C128.209,232.938,128.205,234.913,128.202,236.933z"/>
	<path d="M128.289,213.358c1.633,0.044,3.305,0.097,5.026,0.15c0.009-2.104,0.022-4.087,0.032-5.938
		c-1.667-0.056-3.34-0.111-5.021-0.171C128.313,209.243,128.301,211.236,128.289,213.358z"/>
	<path d="M135.484,237.19c1.642,0.055,3.316,0.114,5.031,0.174c0.003-2.002,0.008-3.962,0.012-5.876
		c-1.71-0.066-3.392-0.135-5.029-0.198C135.492,233.215,135.487,235.183,135.484,237.19z"/>
	<path d="M121.012,213.137c1.619,0.048,3.295,0.1,5.026,0.156c0.011-2.128,0.025-4.123,0.037-5.972
		c-1.669-0.058-3.343-0.113-5.022-0.169C121.041,208.975,121.027,210.973,121.012,213.137z"/>
	<path d="M113.64,236.388c1.591,0.057,3.271,0.124,5.029,0.19c0.003-2.043,0.008-4.033,0.012-5.976
		c-1.745-0.078-3.423-0.147-5.027-0.214C113.649,232.335,113.645,234.337,113.64,236.388z"/>
	<path d="M193.811,215.171c1.662,0.039,3.343,0.082,5.029,0.125c0.009-1.969,0.021-3.833,0.031-5.59
		c-1.668-0.053-3.346-0.102-5.029-0.157C193.831,211.316,193.822,213.193,193.811,215.171z"/>
	<path d="M120.969,221.13c1.594,0.074,3.263,0.146,5.028,0.218c0.011-2.016,0.02-3.953,0.029-5.806
		c-1.732-0.05-3.405-0.102-5.026-0.153C120.99,217.209,120.978,219.125,120.969,221.13z"/>
	<path d="M113.662,228.137c1.606,0.074,3.282,0.144,5.028,0.218c0.007-1.742,0.012-3.439,0.019-5.08
		c-1.748-0.083-3.414-0.167-5.026-0.259C113.674,224.669,113.668,226.38,113.662,228.137z"/>
	<path d="M113.735,212.911c1.599,0.052,3.279,0.099,5.026,0.158c0.015-2.166,0.027-4.168,0.042-5.996
		c-1.67-0.059-3.349-0.112-5.028-0.171C113.763,208.725,113.749,210.735,113.735,212.911z"/>
	<path d="M113.691,220.765c1.608,0.088,3.273,0.172,5.027,0.257c0.008-1.99,0.021-3.894,0.029-5.702
		c-1.748-0.055-3.429-0.108-5.025-0.158C113.709,216.937,113.701,218.809,113.691,220.765z"/>
	<path d="M120.939,228.448c1.624,0.067,3.3,0.136,5.03,0.208c0.006-1.724,0.012-3.411,0.018-5.055
		c-1.76-0.074-3.432-0.146-5.027-0.221C120.953,225.018,120.947,226.709,120.939,228.448z"/>
	<path d="M120.921,236.661c1.616,0.062,3.292,0.124,5.029,0.188c0.003-2.023,0.007-4,0.014-5.941
		c-1.731-0.071-3.409-0.141-5.031-0.209C120.929,232.637,120.924,234.624,120.921,236.661z"/>
	<path d="M208.295,239.333c1.672,0.037,3.348,0.076,5.029,0.109c0.003-1.846,0.007-3.66,0.011-5.438
		c-1.686-0.05-3.364-0.099-5.03-0.155C208.301,235.643,208.3,237.469,208.295,239.333z"/>
	<path d="M230.2,216.036c1.665,0.039,3.343,0.072,5.022,0.112c0.01-1.873,0.018-3.662,0.03-5.343
		c-1.667-0.044-3.342-0.097-5.024-0.146C230.217,212.364,230.208,214.153,230.2,216.036z"/>
	<path d="M230.24,208.407c1.684,0.05,3.359,0.099,5.023,0.147c0.014-2.19,0.026-4.182,0.042-5.976
		c-1.635-0.04-3.31-0.082-5.025-0.123C230.267,204.255,230.255,206.248,230.24,208.407z"/>
	<path d="M237.413,239.914c1.675,0.027,3.354,0.05,5.031,0.08c0-1.778,0-3.506,0.003-5.179c-1.683-0.042-3.362-0.091-5.03-0.13
		C237.414,236.388,237.413,238.126,237.413,239.914z"/>
	<path d="M230.167,224.486c1.648,0.044,3.324,0.093,5.021,0.138c0.008-2.17,0.018-4.245,0.023-6.226
		c-1.679-0.036-3.354-0.074-5.022-0.11C230.181,220.268,230.172,222.34,230.167,224.486z"/>
	<path d="M222.925,215.872c1.667,0.035,3.342,0.076,5.023,0.112c0.007-1.89,0.019-3.686,0.028-5.393
		c-1.664-0.05-3.338-0.101-5.022-0.151C222.944,212.165,222.935,213.976,222.925,215.872z"/>
	<path d="M222.89,224.288c1.648,0.045,3.325,0.089,5.025,0.136c0.006-2.141,0.016-4.21,0.023-6.187
		c-1.679-0.036-3.356-0.076-5.023-0.115C222.907,220.099,222.897,222.155,222.89,224.288z"/>
	<path d="M237.42,232.431c1.67,0.044,3.347,0.088,5.032,0.13c0.003-1.895,0.004-3.73,0.012-5.487
		c-1.701-0.045-3.38-0.095-5.032-0.136C237.43,228.711,237.423,230.544,237.42,232.431z"/>
	<path d="M230.144,232.237c1.669,0.044,3.342,0.091,5.026,0.135c0.003-1.888,0.008-3.721,0.009-5.496
		c-1.697-0.047-3.371-0.094-5.021-0.138C230.153,228.521,230.148,230.354,230.144,232.237z"/>
	<path d="M230.133,239.788c1.677,0.029,3.351,0.061,5.029,0.087c0-1.793,0.001-3.543,0.005-5.252
		c-1.683-0.045-3.357-0.092-5.026-0.138C230.138,236.217,230.135,237.984,230.133,239.788z"/>
	<path d="M222.967,208.192c1.684,0.048,3.359,0.097,5.024,0.15c0.015-2.158,0.025-4.144,0.04-5.943
		c-1.644-0.036-3.319-0.083-5.023-0.124C222.994,204.07,222.979,206.051,222.967,208.192z"/>
	<path d="M249.795,218.708c-1.684-0.032-3.368-0.071-5.048-0.103c-0.009,1.972-0.018,4.066-0.026,6.282
		c1.662,0.044,3.342,0.094,5.045,0.136C249.776,222.796,249.788,220.688,249.795,218.708z"/>
	<path d="M237.44,224.685c1.655,0.047,3.331,0.092,5.033,0.138c0.007-2.211,0.015-4.296,0.025-6.267
		c-1.683-0.034-3.36-0.071-5.034-0.109C237.457,220.43,237.447,222.511,237.44,224.685z"/>
	<path d="M249.737,234.999c-1.687-0.044-3.364-0.087-5.037-0.127c-0.001,1.665-0.005,3.388-0.005,5.152
		c1.68,0.029,3.355,0.05,5.034,0.074C249.73,238.351,249.734,236.65,249.737,234.999z"/>
	<path d="M249.76,227.274c-1.705-0.047-3.385-0.092-5.043-0.138c-0.006,1.755-0.009,3.586-0.015,5.484
		c1.676,0.041,3.356,0.083,5.042,0.125C249.748,230.854,249.752,229.029,249.76,227.274z"/>
	<path d="M237.473,216.197c1.675,0.032,3.352,0.071,5.037,0.103c0.009-1.885,0.018-3.646,0.029-5.287
		c-1.669-0.045-3.348-0.097-5.039-0.146C237.492,212.548,237.482,214.326,237.473,216.197z"/>
	<path d="M249.842,211.224c-1.672-0.048-3.357-0.097-5.053-0.147c-0.009,1.64-0.02,3.394-0.03,5.272
		c1.681,0.032,3.363,0.071,5.047,0.1C249.819,214.586,249.83,212.841,249.842,211.224z"/>
	<path d="M237.515,208.621c1.691,0.049,3.371,0.099,5.04,0.148c0.016-2.29,0.034-4.289,0.05-6.014
		c-1.624-0.038-3.309-0.082-5.048-0.121C237.543,204.43,237.529,206.426,237.515,208.621z"/>
	<path d="M215.618,224.088c1.646,0.042,3.32,0.091,5.021,0.138c0.007-2.129,0.015-4.183,0.025-6.153
		c-1.681-0.041-3.354-0.083-5.021-0.12C215.635,219.913,215.626,221.958,215.618,224.088z"/>
	<path d="M208.375,215.528c1.669,0.042,3.344,0.082,5.031,0.121c0.009-1.934,0.019-3.767,0.031-5.492
		c-1.669-0.051-3.345-0.1-5.029-0.153C208.396,211.739,208.387,213.582,208.375,215.528z"/>
	<path d="M208.338,223.886c1.647,0.042,3.322,0.091,5.03,0.139c0.007-2.126,0.017-4.169,0.026-6.124
		c-1.687-0.04-3.361-0.079-5.028-0.12C208.354,219.729,208.345,221.768,208.338,223.886z"/>
	<path d="M201.013,239.161c1.671,0.039,3.348,0.079,5.032,0.12c0.003-1.868,0.006-3.702,0.01-5.495
		c-1.688-0.051-3.364-0.106-5.031-0.161C201.021,235.436,201.016,237.28,201.013,239.161z"/>
	<path d="M201.028,231.375c1.669,0.05,3.343,0.103,5.032,0.158c0.006-1.866,0.011-3.686,0.019-5.455
		c-1.711-0.047-3.387-0.098-5.034-0.142C201.039,227.704,201.036,229.517,201.028,231.375z"/>
	<path d="M208.312,231.603c1.667,0.05,3.344,0.1,5.029,0.151c0.005-1.874,0.011-3.698,0.018-5.473
		c-1.708-0.047-3.382-0.094-5.028-0.14C208.323,227.912,208.319,229.732,208.312,231.603z"/>
	<path d="M201.055,223.685c1.647,0.047,3.324,0.095,5.034,0.144c0.006-2.116,0.015-4.157,0.026-6.102
		c-1.688-0.038-3.367-0.082-5.032-0.124C201.07,219.55,201.063,221.572,201.055,223.685z"/>
	<path d="M201.092,215.353c1.669,0.038,3.347,0.083,5.034,0.12c0.009-1.954,0.021-3.797,0.032-5.537
		c-1.672-0.052-3.347-0.103-5.032-0.161C201.112,211.532,201.101,213.393,201.092,215.353z"/>
	<path d="M201.135,207.529c1.686,0.05,3.363,0.103,5.035,0.158c0.013-2.149,0.028-4.094,0.041-5.82
		c-1.664-0.044-3.343-0.084-5.034-0.124C201.163,203.464,201.151,205.409,201.135,207.529z"/>
	<path d="M222.868,232.031c1.669,0.045,3.341,0.097,5.028,0.144c0.003-1.882,0.007-3.716,0.012-5.498
		c-1.702-0.047-3.375-0.095-5.025-0.138C222.875,228.325,222.871,230.155,222.868,232.031z"/>
	<path d="M215.655,215.702c1.666,0.04,3.339,0.079,5.02,0.118c0.007-1.905,0.019-3.719,0.026-5.444
		c-1.663-0.048-3.335-0.1-5.017-0.154C215.675,211.95,215.666,213.776,215.655,215.702z"/>
	<path d="M208.421,207.753c1.684,0.05,3.361,0.103,5.027,0.153c0.016-2.159,0.029-4.124,0.042-5.861
		c-1.66-0.039-3.336-0.084-5.03-0.124C208.449,203.647,208.435,205.6,208.421,207.753z"/>
	<path d="M222.854,239.647c1.672,0.033,3.349,0.068,5.027,0.099c0.001-1.813,0.003-3.583,0.006-5.322
		c-1.683-0.047-3.359-0.097-5.026-0.144C222.859,236.037,222.856,237.825,222.854,239.647z"/>
	<path d="M215.7,207.974c1.68,0.051,3.353,0.1,5.015,0.154c0.014-2.138,0.026-4.115,0.039-5.906
		c-1.648-0.039-3.32-0.082-5.012-0.124C215.728,203.843,215.714,205.81,215.7,207.974z"/>
	<path d="M193.856,207.299c1.684,0.053,3.362,0.106,5.029,0.16c0.014-2.114,0.027-4.052,0.039-5.777
		c-1.667-0.042-3.344-0.085-5.028-0.124C193.884,203.267,193.87,205.195,193.856,207.299z"/>
	<path d="M215.576,239.496c1.672,0.035,3.347,0.071,5.028,0.106c0.001-1.826,0.004-3.621,0.009-5.387
		c-1.684-0.044-3.36-0.094-5.025-0.146C215.582,235.844,215.578,237.652,215.576,239.496z"/>
	<path d="M215.592,231.82c1.665,0.05,3.342,0.099,5.024,0.15c0.004-1.876,0.009-3.707,0.016-5.49
		c-1.703-0.045-3.376-0.095-5.023-0.138C215.603,228.118,215.598,229.944,215.592,231.82z"/>
	<path d="M317.313,260.381c6.938,0,12.564-7.01,12.564-15.66c0-8.647-5.626-15.659-12.564-15.659c-6.94,0-12.564,7.01-12.564,15.659
		C304.749,253.371,310.374,260.381,317.313,260.381z M318.813,232.796c3.455,0.872,7.432,4.395,7.432,12.112
		c0,7.296-3.889,10.745-7.432,11.425c-2.938,0.563-5.642-1.101-5.642-1.101s8.809,0.826,8.809-10.185
		c0-11.01-7.982-11.699-7.982-11.699S316.292,232.158,318.813,232.796z M313.997,235.961c6.191,0,7.639,16.515,0,16.515
		C306.357,252.476,306.357,235.961,313.997,235.961z"/>
	<path d="M173.111,200.41c-6.189,0-11.206,6.094-11.206,13.603c0,7.508,5.017,13.6,11.206,13.6c6.186,0,11.205-6.088,11.205-13.6
		S179.297,200.41,173.111,200.41z M171.921,223.709c-3.93,0-7.113-3.865-7.113-8.634s3.185-8.631,7.113-8.631
		c3.929,0,7.113,3.862,7.113,8.631S175.85,223.709,171.921,223.709z"/>
	<path d="M699.005,117.208c9.488,2.244,20.969,0.247,20.969,0.247s-19.722-30.707-31.701-52.926c0,0,5.743,13.984,1.249,26.716
		C685.025,103.976,689.521,114.96,699.005,117.208z"/>
</g>
</svg>
