<?xml version="1.0" encoding="utf-8"?>
<!-- Generator: Adobe Illustrator 16.0.0, SVG Export Plug-In . SVG Version: 6.00 Build 0)  -->
<!DOCTYPE svg PUBLIC "-//W3C//DTD SVG 1.1//EN" "http://www.w3.org/Graphics/SVG/1.1/DTD/svg11.dtd">
<svg version="1.1" id="Layer_1" xmlns="http://www.w3.org/2000/svg" xmlns:xlink="http://www.w3.org/1999/xlink" x="0px" y="0px"
	 width="864px" height="864px" viewBox="0 0 864 864" enable-background="new 0 0 864 864" xml:space="preserve">
<g>
	<path d="M848.635,443.681c-8.869-7.17-15.99-3.178-18.799-1.225c-2.811,1.951-4.639,1.711-4.639,1.711s-1.398-35.639-0.736-54.199
		c0.855-23.803,5.293-46.162,6.836-55.42c1.465-8.787,8.301-25.389,5.131-47.852c-2.426-17.176-7.814-34.295-18.803-52.486
		s-47.729-48.586-77.631-64.82c-29.91-16.238-48.461-24.174-47.852-24.047c0,0-6.713-21.004-16.785-52.309
		c-10.066-31.314-21.789-69.766-21.789-69.766c-0.732-2.924-1.945-4.639-5.609-4.879c0,0-77.52-8.791-216.672-8.791
		c-139.162,0-217.896,8.059-217.896,8.059c-2.441,0.248-3.418,1.711-4.398,5.611c0,0-11.719,38.451-21.789,69.766
		c-10.072,31.313-16.779,52.309-16.779,52.309c0.611-0.127-17.947,7.809-47.854,24.047c-29.91,16.234-66.65,46.633-77.633,64.82
		c-10.988,18.186-16.373,35.307-18.799,52.486c-3.178,22.463,3.66,39.064,5.125,47.852c1.545,9.256,5.988,31.615,6.836,55.42
		c0.668,18.559-0.732,54.199-0.732,54.199s-1.832,0.246-4.639-1.711c-2.811-1.953-9.93-5.945-18.799,1.225
		c-6.35,5.127-11.842,18.43-7.568,35.643c4.273,17.211,15.869,22.461,15.869,22.461c8.182,25.27,15.875,37.598,33.326,40.77
		c17.457,3.176,42.85,3.297,42.85,3.297s2.563,43.584,9.15,60.426c6.594,16.844,8.426,33.689,24.535,35.521
		c16.113,1.832,35.16,3.295,45.047-1.832c9.547-4.949,22.848-39.609,24.748-83.861c0,0,6.014,1.225,14.928,2.078
		c8.908,0.854,12.934,1.342,27.951,0.854c15.016-0.488,36.746-7.689,36.746-7.689c92.746,1.434,89.932,1.707,149.414,1.707h0.732
		c59.482,0,56.664-0.273,149.416-1.707c0,0,21.723,7.201,36.742,7.689c15.018,0.488,19.045,0,27.955-0.854
		c8.912-0.854,14.928-2.078,14.928-2.078c1.893,44.256,15.193,78.912,24.746,83.861c9.885,5.127,28.932,3.666,45.045,1.832
		c16.111-1.832,17.945-18.678,24.535-35.521c6.588-16.848,9.152-60.426,9.152-60.426s25.389-0.121,42.844-3.297
		c17.459-3.172,25.15-15.5,33.326-40.77c0,0,11.596-5.25,15.869-22.461C860.475,462.11,854.984,448.808,848.635,443.681z
		 M820.559,382.155c-1.648,26.732-0.736,62.252-0.736,62.252c0.549,0-7.869,4.764-51.268,8.066
		c-39.555,3.004-110.104,3.414-110.104,3.414s0.486-12.938-4.639-27.586c0,0,9.941-1.703,18.553-8.303
		c6.209-4.76,11.521-12.824,12.211-21.721c1.641-21.244-1.041-31.805-4.887-49.563c-3.846-17.76-11.475-24.9-11.475-24.9
		s9.521-11.23,10.439-13.424c0.916-2.203,0.797-12.941,0.797-12.941c9.15,0.916,26.854,2.197,26.854,2.197
		c1.268,24.779,21.971,61.768,63.477,61.768c41.014,0,56.824-29.418,56.824-29.418S822.205,355.423,820.559,382.155z
		 M598.395,458.081c0,0-73.611,3.42-167.111,3.42c-93.506,0-167.117-3.42-167.117-3.42c-0.486-3.412-1.707-9.27-1.707-9.27
		s1.947,6.348,20.258,6.588c21.482,0.287,72.76,0.734,93.264,0.975c20.508,0.25,31.842-4.061,38.818-7.814
		c3.174-1.707,6.348-5.857,4.15-10.986c0,0,6.715,0.184,12.33,0.184c5.609,0,12.324-0.184,12.324-0.184
		c-2.199,5.129,0.975,9.279,4.15,10.986c6.979,3.754,18.309,8.066,38.82,7.814c20.508-0.244,71.781-0.688,93.26-0.975
		c18.309-0.244,20.264-6.588,20.264-6.588S598.883,454.663,598.395,458.081z M605.715,517.405c0,0-77.008,2.979-174.432,2.994
		c-97.434-0.016-174.439-2.994-174.439-2.994s-9.768-30.762,7.074-54.502c0,0,75.988,2.563,167.365,2.563
		c91.367,0,167.354-2.563,167.354-2.563C615.484,486.644,605.715,517.405,605.715,517.405z M448.492,434.155
		c-10.744,0-17.209,0-17.209,0s-6.477,0-17.213,0c-7.324,0-156.494-2.688-156.494-2.688s-8.545-16.6-25.146-17.82
		c-16.6-1.221-21.973,10.496-21.973,10.496s-15.381-3.414-22.461-13.182c-7.076-9.77-6.586-29.539-3.904-45.9
		c2.682-16.355,4.635-32.959,20.018-41.258c15.381-8.303,98.02-26.123,227.174-26.123c129.148,0,211.789,17.82,227.17,26.123
		c15.381,8.299,17.334,24.902,20.02,41.258c2.682,16.361,3.172,36.131-3.91,45.9c-7.076,9.764-22.457,13.182-22.457,13.182
		s-5.373-11.717-21.977-10.496c-16.596,1.221-25.146,17.82-25.146,17.82S455.816,434.155,448.492,434.155z M431.283,274.489
		c121.943,0,243.646,22.584,243.646,22.584s0.121,7.936-0.609,11.475c-0.734,3.539-10.375,13.309-10.375,13.309
		s-15.502-10.014-66.773-17.697c-51.27-7.689-97.045-12.09-165.889-12.09c-68.852,0-114.631,4.4-165.896,12.09
		c-51.27,7.684-66.771,17.697-66.771,17.697s-9.643-9.766-10.371-13.309c-0.734-3.541-0.617-11.475-0.617-11.475
		S309.332,274.489,431.283,274.489z M200.936,233.964c12.941-35.887,37.107-68.605,37.107-68.605s18.555-8.787,68.85-16.844
		c46.727-7.484,92.648-9.279,124.391-9.279c31.734,0,70.459,2.342,117.305,9.035c47.852,6.836,75.93,17.088,75.93,17.088
		s24.17,32.715,37.109,68.605c14.574,40.432,12.695,57.857,12.695,57.857s-20.262-2.439-50.047-6.834
		c-29.787-4.395-101.441-14.895-192.99-14.895c-91.557,0-163.205,10.502-193,14.895c-29.783,4.395-50.043,6.834-50.043,6.834
		S186.359,274.396,200.936,233.964z M772.096,356.767c-33.773,0-61.156-27.377-61.156-61.16c0-33.775,27.383-61.156,61.156-61.156
		c33.779,0,61.16,27.381,61.16,61.156C833.256,329.386,805.875,356.767,772.096,356.767z M769.289,193.681
		c41.994,30.52,52.186,56.828,52.186,56.828s-19.955-20.875-49.072-20.875c-20.125,0-34.512,6.826-44.857,16.541
		c-13.51,12.678-21.381,29.436-21.73,48.334c0,0-16.111-1.221-25.633-2.195c0,0-0.49-22.213-9.523-48.584
		c-9.033-26.369-20.506-55.42-39.061-79.346c0,0,34.908-12.938,58.59-13.668C690.188,150.716,727.299,163.163,769.289,193.681z
		 M649.174,23.821c0,0,37.535,119.197,36.986,122.311l-9.826,1.529c0,0,2.379-3.48,0.18-10.619
		c-2.197-7.143-31.004-99.182-33.197-105.23c-2.201-6.041-10.256-9.457-10.256-9.457S646.242,22.907,649.174,23.821z
		 M431.283,17.776c69.209,0,170.645,3.113,188.227,5.125c14.754,1.689,20.328,8.791,24.537,21.973
		c4.211,13.188,26.063,86.732,27.648,92.654c0.742,2.75,2.203,8.967-4.023,10.619c-10.656,2.822-21.057,4.4-27.654,7.326
		c-6.588,2.93-10.248,4.027-21.232,2.561c-10.99-1.463-71.172-23.068-193.24-23.068c-116.449,0-170.771,21.605-181.762,23.068
		c-10.982,1.467-14.645,0.369-21.236-2.561c-6.588-2.926-16.99-4.5-27.648-7.326c-6.227-1.646-4.766-7.865-4.029-10.619
		c1.588-5.92,23.438-79.467,27.654-92.654c4.209-13.182,9.779-20.283,24.535-21.973C260.627,20.89,362.068,17.776,431.283,17.776z
		 M213.387,23.821c2.926-0.92,16.113-1.467,16.113-1.467s-9.766,4.395-11.965,10.439c-2.201,6.041-29.295,97.602-31.496,104.74
		c-2.195,7.143,1.16,9.703,1.16,9.703l-10.805-1.1C175.852,143.022,213.387,23.821,213.387,23.821z M93.268,193.681
		c41.996-30.518,79.104-42.965,79.104-42.965c23.688,0.73,58.596,13.668,58.596,13.668c-18.555,23.926-30.031,52.982-39.059,79.346
		c-9.039,26.371-9.523,48.584-9.523,48.584c-9.523,0.975-25.639,2.195-25.639,2.195c-0.348-18.902-8.227-35.66-21.723-48.334
		c-10.35-9.715-24.734-16.541-44.867-16.541c-29.113,0-49.066,20.873-49.066,20.873S51.277,224.196,93.268,193.681z M29.307,295.606
		c0-33.775,27.379-61.156,61.156-61.156c33.779,0,61.16,27.381,61.16,61.156c0,33.783-27.381,61.16-61.16,61.16
		C56.686,356.767,29.307,329.386,29.307,295.606z M35.957,331.985c0,0,15.805,29.418,56.824,29.418
		c41.504,0,62.209-36.992,63.475-61.768c0,0,17.703-1.281,26.861-2.197c0,0-0.123,10.738,0.795,12.941
		c0.916,2.193,10.438,13.424,10.438,13.424s-7.629,7.137-11.477,24.9c-3.838,17.76-6.527,28.318-4.883,49.563
		c0.689,8.896,5.998,16.967,12.207,21.721c8.611,6.6,18.559,8.303,18.559,8.303c-5.131,14.648-4.641,27.586-4.641,27.586
		s-70.549-0.412-110.109-3.416c-43.391-3.301-51.814-8.063-51.27-8.063c0,0,0.92-35.521-0.73-62.254
		C40.352,355.423,35.957,331.985,35.957,331.985z M9.041,466.384c0-14.65,7.324-22.703,14.648-22.703
		c7.326,0,0.732,3.658,25.27,8.053c24.537,4.4,109.01,8.301,154.416,8.301c0,0-0.92,34.305,3.664,55.91
		c0,0-73.857,2.809-133.914-3.602C13.068,505.935,9.041,483.778,9.041,466.384z M52.254,537.427
		c-17.029-3.842-23.984-32.594-23.984-32.594s10.801,10.805,63.535,13.551c0,0,0,12.695,5.129,22.951
		C96.934,541.335,66.326,540.606,52.254,537.427z M102.059,542.372c0,0-5.494-11.354-5.309-23.988c0,0,54.627,2.686,110.289,2.686
		c0,0,4.207,16.725,8.785,25.875C215.828,546.946,150.945,546.034,102.059,542.372z M232.064,557.019
		c-17.762,0-23.803-46.324-23.99-96.494c-0.049-13.549,2.381-41.932,19.961-41.932c17.568,0,30.393,12.816,32.221,42.662
		c0,0-9.422,9.309-10.805,31.684c-1.096,17.76,3.301,26.551,3.301,26.551S250.191,557.019,232.064,557.019z M433.887,549.333
		c-0.684,0-4.67,0-5.422,0c-99.842-0.053-178.213-2.389-178.213-2.389c5.863-10.063,6.834-24.654,6.834-24.654
		s80.336,1.895,170.867,1.953c1.107,0,5.1,0,5.986,0c90.799-0.051,171.529-1.953,171.529-1.953s0.979,14.592,6.838,24.654
		C612.309,546.946,533.826,549.28,433.887,549.333z M630.496,557.019c-18.125,0-20.689-37.535-20.689-37.535
		s4.395-8.789,3.297-26.549c-1.385-22.375-10.805-31.686-10.805-31.686c1.834-29.84,14.648-42.66,32.23-42.66
		c17.572,0,20.004,28.383,19.955,41.93C654.299,510.694,648.262,557.019,630.496,557.019z M760.5,542.372
		c-48.891,3.662-113.766,4.574-113.766,4.574c4.578-9.15,8.787-25.873,8.787-25.873c55.664,0,110.289-2.686,110.289-2.686
		C765.994,531.019,760.5,542.372,760.5,542.372z M810.307,537.427c-14.076,3.18-44.676,3.91-44.676,3.91
		c5.125-10.256,5.125-22.949,5.125-22.949c52.729-2.746,63.537-13.553,63.537-13.553S827.334,533.585,810.307,537.427z
		 M789.432,512.343c-60.059,6.404-133.91,3.602-133.91,3.602c4.578-21.605,3.662-55.91,3.662-55.91
		c45.408,0,129.885-3.904,154.418-8.301c24.537-4.395,17.945-8.053,25.27-8.053c7.322,0,14.648,8.053,14.648,22.703
		C853.52,483.778,849.488,505.935,789.432,512.343z"/>
	<path d="M90.463,347.218c28.506,0,51.607-23.109,51.607-51.611c0-28.5-23.104-51.602-51.607-51.602s-51.602,23.104-51.602,51.602
		C38.857,324.108,61.959,347.218,90.463,347.218z M90.463,248.876c25.809,0,46.74,20.928,46.74,46.73
		c0,25.813-20.932,46.738-46.74,46.738c-25.803,0-46.732-20.926-46.732-46.738C43.73,269.796,64.654,248.876,90.463,248.876z"/>
	<path d="M93.637,420.974c11.658,0,21.117-9.449,21.117-21.119c0-11.662-9.453-21.121-21.117-21.121s-21.123,9.453-21.123,21.121
		C72.52,411.521,81.975,420.974,93.637,420.974z M93.637,382.897c9.361,0,16.959,7.59,16.959,16.963
		c0,9.371-7.594,16.959-16.959,16.959c-9.367,0-16.965-7.588-16.965-16.959C76.672,390.487,84.27,382.897,93.637,382.897z"/>
	<circle cx="93.637" cy="399.855" r="12.327"/>
	<path d="M661.297,376.095c-0.006-0.537-0.012-1.041-0.012-1.51c0-1.545-0.279-37.957-24.521-43.941
		c-13.988-3.445-89.695-20.656-206.34-20.656c-112.125,0-184.971,15.813-204.629,20.656c-24.24,5.984-24.516,42.396-24.516,43.941
		c0,0.467-0.008,0.973-0.016,1.51c-0.104,8.201-0.35,27.412,24.609,33.172c23.838,5.502,147.25,10.143,212.121,10.143
		c67.557,0,176.055-4.918,198.695-10.143C661.648,403.507,661.4,384.296,661.297,376.095z M222.053,402.632
		c-1.451-0.547-2.783-1.145-3.98-1.801h3.98V402.632z M222.053,394.239H210.57c-3.518-5.094-4.016-10.979-4.047-15.623h15.529
		V394.239z M222.053,372.022h-15.424c0.213-3.904,0.92-9.74,2.686-15.621h12.738V372.022z M222.053,349.81h-10.25
		c2.316-4.939,5.602-9.355,10.25-12.021V349.81z M643.436,339.833c3.148,2.635,5.531,6.148,7.326,9.977h-7.326V339.833z
		 M643.436,356.401h9.813c1.768,5.885,2.473,11.721,2.684,15.621h-12.496V356.401z M643.436,378.616h12.602
		c-0.029,4.645-0.525,10.531-4.051,15.623h-8.551V378.616z M643.436,400.831h1.053c-0.342,0.186-0.699,0.357-1.053,0.539V400.831z
		 M620.396,334.183h8.344c2.578,0.578,4.842,1.111,6.768,1.588c0.453,0.111,0.904,0.25,1.338,0.391v13.648h-16.449V334.183z
		 M620.396,356.401h16.449v15.621h-16.449V356.401z M620.396,378.616h16.449v15.623h-16.449V378.616z M459.086,315.608
		c5.59,0.143,11.08,0.318,16.451,0.529v11.447h-16.451V315.608z M475.537,334.183v15.627h-9.783
		c-0.879-5.807-3.193-11.131-6.57-15.627H475.537z M436.041,315.278c5.582,0.027,11.063,0.092,16.451,0.193v11.975
		c-4.688-3.588-10.316-6.004-16.451-6.82V315.278z M412.998,315.394c5.389-0.074,10.871-0.125,16.453-0.129v5.102
		c-6.025,0.334-11.629,2.203-16.453,5.215V315.394z M389.953,315.97c5.375-0.191,10.857-0.344,16.455-0.457v12.08h-16.455V315.97z
		 M389.953,334.183h13.668c-3.379,4.496-5.688,9.82-6.572,15.627h-7.096V334.183z M389.953,356.401h6.734
		c0.217,5.658,1.783,10.969,4.395,15.621h-11.129V356.401z M245.1,406.589c-7.102-0.693-12.727-1.406-16.455-2.131v-3.623H245.1
		V406.589z M245.1,394.239h-16.455v-15.623H245.1V394.239z M245.1,372.022h-16.455v-15.621H245.1V372.022z M245.1,349.81h-16.455
		v-14.424c1.545-0.369,3.254-0.771,5.145-1.203H245.1V349.81z M268.143,408.45c-5.947-0.406-11.469-0.834-16.453-1.256v-6.363
		h16.453V408.45z M268.143,394.239h-16.453v-15.623h16.453V394.239z M268.143,372.022h-16.453v-15.621h16.453V372.022z
		 M268.143,349.81h-16.453v-15.627h16.453V349.81z M291.182,409.853c-5.711-0.313-11.219-0.641-16.449-0.969v-8.053h16.449V409.853z
		 M291.182,394.239h-16.449v-15.623h16.449V394.239z M291.182,372.022h-16.449v-15.621h16.449V372.022z M291.182,349.81h-16.449
		v-15.627h16.449V349.81z M291.182,327.585h-16.449v-1.078c5.156-0.805,10.637-1.609,16.449-2.393V327.585z M314.23,411.001
		c-5.607-0.256-11.109-0.523-16.455-0.803v-9.365h16.455V411.001z M314.23,394.239h-16.455v-15.623h16.455V394.239z M314.23,372.022
		h-16.455v-15.621h16.455V372.022z M314.23,349.81h-16.455v-15.627h16.455V349.81z M314.23,327.585h-16.455v-4.332
		c5.244-0.666,10.73-1.318,16.455-1.936V327.585z M337.271,411.954c-5.537-0.209-11.035-0.432-16.453-0.664v-10.455h16.453V411.954z
		 M337.271,394.239h-16.453v-15.623h16.453V394.239z M337.271,372.022h-16.453v-15.621h16.453V372.022z M337.271,349.81h-16.453
		v-15.627h16.453V349.81z M337.271,327.585h-16.453v-6.967c5.293-0.535,10.779-1.047,16.453-1.529V327.585z M360.316,412.747
		c-5.484-0.17-10.977-0.348-16.455-0.545v-11.367h16.455V412.747z M360.316,394.239h-16.455v-15.623h16.455V394.239z
		 M360.316,372.022h-16.455v-15.621h16.455V372.022z M360.316,349.81h-16.455v-15.627h16.455V349.81z M360.316,327.585h-16.455
		v-9.035c5.33-0.414,10.82-0.801,16.455-1.148V327.585z M383.357,413.388c-5.42-0.135-10.922-0.279-16.449-0.445v-12.115h16.449
		V413.388z M383.357,394.239h-16.449v-15.623h16.449V394.239z M383.357,372.022h-16.449v-15.621h16.449V372.022z M383.357,349.81
		h-16.449v-15.627h16.449V349.81z M383.357,327.585h-16.449v-10.572c5.357-0.299,10.84-0.566,16.449-0.799V327.585z
		 M406.408,413.856c-5.357-0.08-10.854-0.195-16.455-0.318v-12.707h16.455V413.856z M406.408,394.239h-16.455v-15.623h15.914
		c0.174,0.189,0.359,0.377,0.541,0.563V394.239z M429.451,414.112c-5.254-0.027-10.748-0.08-16.453-0.16v-13.117h16.453V414.112z
		 M429.451,394.239h-16.453v-9.711c4.82,3.016,10.428,4.883,16.453,5.223V394.239z M403.074,355.056
		c0-15.645,12.682-28.33,28.328-28.33c15.648,0,28.332,12.686,28.332,28.33c0,15.648-12.684,28.334-28.332,28.334
		C415.756,383.39,403.074,370.704,403.074,355.056z M436.041,389.491c6.135-0.822,11.764-3.238,16.451-6.824v11.572h-16.451V389.491
		z M452.494,414.067L452.494,414.067c-4.994,0.051-9.846,0.068-14.496,0.068c-0.645,0-1.301-0.002-1.951-0.002v-13.305h16.449
		v13.238H452.494z M475.537,413.733c-5.596,0.113-11.094,0.199-16.451,0.266v-13.168h16.451V413.733z M475.537,394.239h-16.451
		v-15.623h16.451V394.239z M475.539,372.022L475.539,372.022h-13.813c2.613-4.652,4.182-9.963,4.396-15.621h9.418v15.621H475.539z
		 M498.582,413.177c-5.531,0.154-11.031,0.297-16.455,0.424v-12.766h16.455V413.177z M498.582,394.239h-16.455v-15.623h16.455
		V394.239z M498.582,372.022h-16.455v-15.621h16.455V372.022z M498.582,349.81h-16.455v-15.627h16.455V349.81z M498.582,327.585
		h-16.455v-11.176c5.611,0.248,11.1,0.541,16.455,0.855V327.585z M521.625,412.425c-5.473,0.197-10.967,0.383-16.449,0.549v-12.143
		h16.449V412.425z M521.625,394.239h-16.449v-15.623h16.449V394.239z M521.625,372.022h-16.449v-15.621h16.449V372.022z
		 M521.625,349.81h-16.449v-15.627h16.449V349.81z M521.625,327.585h-16.449v-9.904c5.633,0.369,11.119,0.777,16.449,1.215V327.585z
		 M544.67,411.483c-5.414,0.248-10.91,0.475-16.459,0.691v-11.34h16.459V411.483z M544.67,394.239h-16.459v-15.623h16.459V394.239z
		 M544.67,372.022h-16.459v-15.621h16.459V372.022z M544.67,349.81h-16.459v-15.627h16.459V349.81z M544.67,327.585h-16.459v-8.133
		c5.68,0.496,11.16,1.031,16.459,1.584V327.585z M567.713,410.331c-5.334,0.297-10.84,0.576-16.455,0.84v-10.34h16.455V410.331z
		 M567.713,394.239h-16.455v-15.623h16.455V394.239z M567.713,372.022h-16.455v-15.621h16.455V372.022z M567.713,349.81h-16.455
		v-15.627h16.455V349.81z M567.713,327.585h-16.455v-5.832c5.727,0.641,11.219,1.303,16.455,1.984V327.585z M590.76,408.911
		c-5.215,0.361-10.723,0.715-16.455,1.047v-9.127h16.455V408.911z M590.76,394.239h-16.455v-15.623h16.455V394.239z M590.76,372.022
		h-16.455v-15.621h16.455V372.022z M590.76,349.81h-16.455v-15.627h16.455V349.81z M590.76,327.585h-16.455v-2.969
		c5.83,0.803,11.318,1.617,16.455,2.43V327.585z M613.803,407.054c-4.945,0.467-10.459,0.939-16.453,1.385v-7.607h16.453V407.054z
		 M613.803,394.239H597.35v-15.623h16.453V394.239z M613.803,372.022H597.35v-15.621h16.453V372.022z M613.803,349.81H597.35
		v-15.627h16.453V349.81z M620.396,406.376v-5.545h16.449v2.955c-0.443,0.115-0.881,0.236-1.338,0.344
		C632.211,404.888,627.027,405.642,620.396,406.376z"/>
	<path d="M431.402,335.876c10.592,0,19.18,8.588,19.18,19.18s-8.588,19.18-19.18,19.18c-10.59,0-19.178-8.588-19.178-19.18
		S420.813,335.876,431.402,335.876z"/>
	<path d="M772.096,244.001c-28.5,0-51.602,23.104-51.602,51.602c0,28.502,23.104,51.609,51.602,51.609
		c28.502,0,51.611-23.107,51.611-51.609C823.707,267.106,800.598,244.001,772.096,244.001z M772.096,342.341
		c-25.807,0-46.729-20.926-46.729-46.738c0-25.807,20.922-46.73,46.729-46.73c25.813,0,46.73,20.924,46.73,46.73
		C818.826,321.419,797.908,342.341,772.096,342.341z"/>
	<path d="M768.924,378.741c-11.662,0-21.117,9.451-21.117,21.119c0,11.666,9.451,21.117,21.117,21.117
		c11.664,0,21.119-9.447,21.119-21.117C790.043,388.192,780.586,378.741,768.924,378.741z M768.924,416.815
		c-9.365,0-16.959-7.588-16.959-16.961c0-9.371,7.59-16.965,16.959-16.965s16.959,7.594,16.959,16.965
		C785.883,409.224,778.291,416.815,768.924,416.815z"/>
	<circle cx="768.924" cy="399.855" r="12.327"/>
	<path d="M345.896,149.435c-8.494,0.756-16.385,1.582-23.686,2.451v4.846c7.398-0.742,15.287-1.447,23.686-2.115V149.435z"/>
	<path d="M318.43,152.349c-8.756,1.09-16.631,2.234-23.68,3.404v4.086c7.168-0.914,15.074-1.83,23.68-2.721V152.349z"/>
	<path d="M290.965,156.39c-9.393,1.629-17.215,3.254-23.621,4.77v2.637c6.564-1.07,14.453-2.25,23.621-3.465V156.39z"/>
	<path d="M373.484,147.382c-8.402,0.518-16.338,1.088-23.807,1.729v5.223c7.557-0.57,15.492-1.105,23.807-1.574V147.382z"/>
	<path d="M428.414,145.319c-8.168,0.139-16.023,0.338-23.559,0.594v5.416c7.604-0.252,15.455-0.459,23.559-0.611V145.319z"/>
	<path d="M263.557,162.069c-14.148,3.539-20.139,6.221-20.139,6.221s6.848-1.615,20.139-3.863V162.069z"/>
	<path d="M401.07,146.044c-8.318,0.311-16.248,0.686-23.799,1.119v5.389c7.629-0.42,15.564-0.779,23.799-1.08V146.044z"/>
	<path d="M538.883,151.886c-7.299-0.869-15.189-1.695-23.684-2.451v5.191c8.391,0.658,16.277,1.367,23.684,2.109V151.886z"/>
	<path d="M566.346,155.753c-7.053-1.164-14.926-2.314-23.686-3.408v4.771c8.604,0.891,16.512,1.809,23.686,2.721V155.753z"/>
	<path d="M593.75,161.153c-6.404-1.514-14.23-3.139-23.619-4.768v3.939c9.166,1.211,17.057,2.396,23.619,3.465V161.153z"/>
	<path d="M511.414,149.106c-7.471-0.641-15.402-1.213-23.801-1.729v5.375c8.311,0.469,16.248,1.006,23.801,1.576V149.106z"/>
	<path d="M456.238,145.913c-7.535-0.258-15.385-0.457-23.561-0.602v5.404c8.104,0.15,15.959,0.354,23.561,0.611V145.913z"/>
	<path d="M597.535,162.069v2.357c13.291,2.248,20.141,3.863,20.141,3.863S611.689,165.608,597.535,162.069z"/>
	<path d="M483.828,147.163c-7.561-0.434-15.488-0.809-23.807-1.119v5.422c8.246,0.303,16.182,0.662,23.807,1.082V147.163z"/>
	<path d="M197.273,136.429c-1.832,6.406,1.463,6.773,5.125,7.686c7.537,1.885,12.816,2.932,21.607,6.592
		c8.789,3.664,16.115,4.395,25.27,1.465s18.438-6.834,58.111-13.182c38.975-6.234,64.938-9.156,123.9-9.156
		c58.957,0,88.254,4.76,115.84,8.664c39.986,5.664,58.836,10.744,68.607,13.674c9.207,2.764,14.035,2.199,22.822-1.465
		c8.789-3.66,14.072-4.707,21.609-6.592c3.66-0.918,6.955-1.279,5.125-7.686c-1.832-6.41-26.553-89.9-28.379-94.848
		c-1.832-4.943-4.764-13.365-17.947-14.465c-13.189-1.098-90.273-5.125-187.678-5.125c-97.418,0-174.5,4.027-187.684,5.125
		c-13.184,1.1-16.113,9.521-17.945,14.465C223.824,46.528,199.104,130.019,197.273,136.429z M551.277,114.581
		c-28.326-4.639-64.207-4.152-64.207-4.152s25.875-23.438,62.258-18.311c36.373,5.127,48.096,30.271,48.096,30.271
		S579.594,119.222,551.277,114.581z M231.941,41.827c3.91-11.232,14.16-9.527,14.16-9.527s6.346,6.354,18.064,7.572
		c11.719,1.221,70.801-2.439,85.445-3.416s16.111-9.275,16.111-9.275c12.453-1.223,39.799-1.223,39.799-1.223
		s4.885,4.637,12.449,4.885v2.924c0,0-20.996,2.443-23.438,2.936c-2.438,0.486-3.416,2.436-3.416,4.637
		c0,2.197-0.486,9.031-0.486,10.736c0,1.707,0.979,3.42,5.859,3.662c3.551,0.176,21.979,1.248,28.564,0.977
		c11.963-0.488,23.467-0.699,27.588-3.174c2.438-1.465,2.197-6.594,2.197-11.229c0-4.404-1.463-6.838-3.662-7.324
		c-2.197-0.484-27.102-1.711-27.102-1.711l0.246-2.438c0,0,7.08-1.225,12.701-4.885c11.475-0.492,33.936,0.975,33.936,0.975
		c-1.463,5.617,8.297,10.01,22.705,10.498c14.402,0.488,103.84,2.197,108.4,2.197c7.809,0,14.889-8.785,14.889-8.785
		c7.326,0.246,12.213,6.836,13.672,10.988c0,0,10.742,31.982,16.852,51.758c6.1,19.771,7.811,30.762,7.811,30.762
		s-8.539-1.967-20.51-3.418c-16.111-1.953-27.83,2.439-27.83,2.439s-15.627-34.184-60.061-38.336
		c-44.432-4.148-71.775,24.902-71.775,24.902s-60.793-5.125-128.666,2.686c-67.869,7.814-51.998,1.955-66.158,2.443
		c0,0-19.047,0.979-28.807,0.49c-9.768-0.49-19.535,2.926-27.35,3.904c-7.811,0.979-18.061,7.324-18.061,7.324l2.854-9.783
		c0.518-1.875,1.107-3.9,1.781-6.086C216.807,91.142,231.941,41.827,231.941,41.827z"/>
</g>
</svg>
