<?xml version="1.0" encoding="utf-8"?>
<!-- Generator: Adobe Illustrator 16.0.0, SVG Export Plug-In . SVG Version: 6.00 Build 0)  -->
<!DOCTYPE svg PUBLIC "-//W3C//DTD SVG 1.1//EN" "http://www.w3.org/Graphics/SVG/1.1/DTD/svg11.dtd">
<svg version="1.1" id="Layer_1" xmlns="http://www.w3.org/2000/svg" xmlns:xlink="http://www.w3.org/1999/xlink" x="0px" y="0px"
	 width="864px" height="864px" viewBox="0 0 864 864" enable-background="new 0 0 864 864" xml:space="preserve">
<g>
	<path d="M844.301,475.052c-8.83-7.134-15.924-3.162-18.72-1.216c-2.796,1.949-4.619,1.702-4.619,1.702s-1.39-35.491-0.73-53.977
		c0.851-23.707,5.271-45.966,6.809-55.188c1.457-8.751,8.269-25.286,5.106-47.653c-2.419-17.11-7.783-34.158-18.72-52.27
		c-10.941-18.115-47.53-48.385-77.314-64.553c-29.786-16.168-48.264-24.069-47.654-23.946c0,0-6.687-20.911-16.717-52.089
		c-10.027-31.184-21.698-69.476-21.698-69.476s5.952-4.039-2.008-12.945c-7.66-8.571-25.527-25.164-75.311-31.546
		c-54.788-7.024-106.853-6.929-144.053-6.929c-37.198,0-89.263-0.096-144.052,6.929c-49.779,6.382-67.649,22.975-75.309,31.546
		c-7.961,8.906-2.006,12.945-2.006,12.945s-11.671,38.292-21.699,69.476c-10.028,31.181-16.714,52.089-16.714,52.089
		c0.608-0.121-17.87,7.777-47.653,23.946c-29.782,16.168-66.372,46.438-77.312,64.553c-10.942,18.112-16.304,35.157-18.723,52.27
		c-3.161,22.367,3.648,38.902,5.105,47.653c1.536,9.223,5.958,31.484,6.808,55.188c0.663,18.485-0.73,53.977-0.73,53.977
		s-1.822,0.245-4.62-1.702c-2.794-1.946-9.885-5.918-18.72,1.216c-6.323,5.108-11.792,18.354-7.539,35.498
		c4.256,17.138,15.803,22.366,15.803,22.366c8.145,25.164,15.804,37.439,33.189,40.601c17.384,3.165,42.667,3.283,42.667,3.283
		s2.553,43.397,9.119,60.173c6.564,16.776,8.388,33.553,24.433,35.376c16.044,1.822,35.009,3.282,44.856-1.823
		c9.507-4.932,22.757-39.443,24.641-83.518c0,0,5.993,1.218,14.867,2.07c8.872,0.85,12.885,1.336,27.839,0.85
		s36.59-7.657,36.59-7.657c92.362,1.428,89.559,1.702,148.794,1.702h0.731c59.234,0,56.432-0.274,148.794-1.702
		c0,0,21.639,7.171,36.59,7.657c14.953,0.486,18.964,0,27.84-0.85c8.871-0.853,14.863-2.07,14.863-2.07
		c1.885,44.074,15.134,78.586,24.646,83.518c9.846,5.104,28.81,3.646,44.854,1.823c16.044-1.823,17.87-18.6,24.436-35.376
		c6.563-16.775,9.12-60.173,9.12-60.173s25.279-0.118,42.665-3.283c17.382-3.161,25.047-15.437,33.19-40.601
		c0,0,11.547-5.229,15.799-22.366C856.094,493.405,850.623,480.16,844.301,475.052z M816.341,413.784
		c-1.641,26.624-0.727,61.996-0.727,61.996c0.553,0-7.839,4.742-51.054,8.025c-39.396,2.991-109.652,3.403-109.652,3.403
		s0.487-12.887-4.62-27.471c0,0,9.903-1.695,18.478-8.271c6.182-4.737,11.468-12.774,12.154-21.636
		c1.643-21.155-1.032-31.67-4.864-49.355c-3.827-17.69-11.426-24.801-11.426-24.801s9.482-11.184,10.394-13.373
		c0.912-2.189,0.789-12.887,0.789-12.887c9.119,0.914,26.746,2.189,26.746,2.189c1.263,24.676,21.877,61.514,63.213,61.514
		c40.846,0,56.587-29.296,56.587-29.296S817.983,387.163,816.341,413.784z M595.096,489.398c0,0-73.301,3.4-166.422,3.4
		c-93.116,0-166.419-3.4-166.419-3.4c-0.485-3.405-1.702-9.238-1.702-9.238s1.946,6.32,20.177,6.563
		c21.396,0.286,72.452,0.729,92.878,0.975c20.42,0.245,31.709-4.043,38.655-7.782c3.161-1.699,6.323-5.834,4.134-10.938
		c0,0,6.686,0.184,12.276,0.184c5.593,0,12.281-0.184,12.281-0.184c-2.191,5.104,0.973,9.239,4.132,10.938
		c6.948,3.739,18.235,8.027,38.657,7.782c20.425-0.246,71.481-0.688,92.876-0.975c18.233-0.242,20.178-6.563,20.178-6.563
		S595.585,485.993,595.096,489.398z M602.393,548.477c0,0-72.68,2.809-166.052,2.974c-2.539,0.003-10.927,0.006-12.547,0.003
		c-94.704-0.114-168.831-2.979-168.831-2.977c0,0-9.727-30.636,7.049-54.277c0,0,75.673,2.553,166.662,2.553
		c90.991,0,166.664-2.553,166.664-2.553C612.116,517.841,602.393,548.477,602.393,548.477z M445.815,465.569
		c-10.697,0-17.142,0-17.142,0s-6.441,0-17.139,0c-7.294,0-155.844-2.675-155.844-2.675s-8.511-16.531-25.042-17.749
		c-16.533-1.216-21.882,10.456-21.882,10.456s-15.316-3.407-22.368-13.131c-7.051-9.728-6.565-29.417-3.893-45.708
		c2.675-16.289,4.622-32.826,19.938-41.087c15.315-8.268,97.616-26.017,226.229-26.017c128.616,0,210.914,17.749,226.231,26.017
		c15.317,8.261,17.264,24.799,19.938,41.087c2.675,16.29,3.159,35.986-3.893,45.708c-7.05,9.724-22.369,13.131-22.369,13.131
		s-5.349-11.674-21.881-10.456c-16.531,1.218-25.042,17.749-25.042,17.749S453.112,465.569,445.815,465.569z M236.241,197.886
		c0,0,18.478-8.749,68.564-16.776c46.532-7.453,92.263-9.237,123.869-9.237c31.608,0,70.173,2.332,116.824,8.999
		c47.653,6.807,75.614,17.017,75.614,17.017s24.069,32.58,36.956,68.32c14.516,40.264,12.644,57.622,12.644,57.622
		s-20.183-2.433-49.842-6.807c-29.661-4.377-101.02-14.83-192.194-14.83s-162.53,10.453-192.191,14.83
		c-29.659,4.374-49.841,6.807-49.841,6.807s-1.875-17.358,12.643-57.622C212.171,230.466,236.241,197.886,236.241,197.886z
		 M220.803,188.041c-6.562-2.92-16.922-4.485-27.535-7.294c-6.199-1.643-4.745-7.837-4.011-10.578
		c1.581-5.894,23.342-79.138,27.533-92.263c4.194-13.13,9.742-20.2,24.436-21.881c17.504-2.009,118.521-5.106,187.449-5.106
		c68.927,0,169.947,3.097,187.451,5.106c14.693,1.681,20.239,8.751,24.436,21.881c4.194,13.127,25.954,86.369,27.533,92.263
		c0.733,2.741,2.188,8.937-4.012,10.578c-10.61,2.809-20.971,4.375-27.532,7.294c-6.565,2.917-10.214,4.011-21.153,2.552
		c-10.939-1.458-70.871-22.974-192.433-22.974c-115.973,0-170.067,21.516-181.01,22.974
		C231.015,192.052,227.369,190.958,220.803,188.041z M428.676,306.564c121.444,0,242.64,22.49,242.64,22.49
		s0.122,7.903-0.604,11.426c-0.729,3.524-10.334,13.25-10.334,13.25s-15.438-9.969-66.494-17.628
		c-51.058-7.659-96.644-12.037-165.208-12.037c-68.561,0-114.147,4.378-165.201,12.037c-51.058,7.66-66.498,17.628-66.498,17.628
		s-9.603-9.727-10.333-13.25c-0.729-3.525-0.608-11.426-0.608-11.426S307.235,306.564,428.676,306.564z M768.084,388.499
		c-33.634,0-60.906-27.269-60.906-60.905s27.272-60.904,60.906-60.904c33.635,0,60.903,27.268,60.903,60.904
		S801.719,388.499,768.084,388.499z M765.284,226.09c41.823,30.391,51.973,56.587,51.973,56.587s-19.875-20.788-48.868-20.788
		c-20.04,0-34.373,6.792-44.677,16.47c-13.446,12.625-21.286,29.317-21.639,48.141c0,0-16.048-1.218-25.527-2.187
		c0,0-0.487-22.126-9.482-48.384c-8.995-26.255-20.422-55.186-38.901-79.014c0,0,34.769-12.887,58.353-13.617
		C686.513,183.299,723.471,195.698,765.284,226.09z M682.501,178.741l-9.783,1.517c0,0,2.371-3.466,0.182-10.577
		c-2.188-7.111-30.877-98.769-33.065-104.786c-2.186-6.02-10.213-9.42-10.213-9.42s13.13,0.549,16.048,1.459
		C645.669,56.935,683.049,175.639,682.501,178.741z M258.364,21.375c38.902-10.21,105.638-11.184,170.31-11.184
		c64.674,0,131.413,0.974,170.313,11.184c38.899,10.211,49.11,29.663,49.11,29.663s-80.84-8.27-219.423-8.27
		c-138.58,0-219.42,8.27-219.42,8.27S219.467,31.586,258.364,21.375z M211.684,56.935c2.917-0.911,16.048-1.459,16.048-1.459
		s-9.727,4.377-11.916,10.394c-2.188,6.017-29.176,97.191-31.361,104.302c-2.191,7.111,1.153,9.663,1.153,9.663l-10.757-1.092
		C174.304,175.639,211.684,56.935,211.684,56.935z M92.067,226.09c41.816-30.393,78.773-42.792,78.773-42.792
		c23.584,0.73,58.351,13.617,58.351,13.617c-18.478,23.824-29.904,52.756-38.902,79.014c-8.995,26.258-9.482,48.384-9.482,48.384
		c-9.482,0.971-25.529,2.187-25.529,2.187c-0.351-18.824-8.19-35.513-21.638-48.141c-10.304-9.677-24.632-16.47-44.674-16.47
		c-28.994,0-48.868,20.788-48.868,20.788S50.25,256.479,92.067,226.09z M28.369,327.594c0-33.635,27.266-60.904,60.904-60.904
		c33.634,0,60.902,27.268,60.902,60.904s-27.269,60.905-60.902,60.905C55.635,388.499,28.369,361.233,28.369,327.594z
		 M34.992,363.824c0,0,15.744,29.296,56.587,29.296c41.332,0,61.952-36.838,63.213-61.514c0,0,17.628-1.275,26.745-2.189
		c0,0-0.121,10.698,0.791,12.887c0.911,2.189,10.394,13.373,10.394,13.373s-7.598,7.111-11.426,24.801
		c-3.829,17.685-6.507,28.2-4.864,49.355c0.686,8.862,5.972,16.897,12.157,21.636c8.574,6.575,18.475,8.271,18.475,8.271
		c-5.105,14.584-4.622,27.471-4.622,27.471s-70.255-0.412-109.648-3.403c-43.217-3.283-51.605-8.025-51.058-8.025
		c0,0,0.912-35.372-0.729-61.996C39.369,387.163,34.992,363.824,34.992,363.824z M8.188,497.662c0-14.585,7.294-22.61,14.586-22.61
		c7.294,0,0.731,3.648,25.164,8.025c24.436,4.374,108.558,8.264,153.778,8.264c0,0-0.911,34.16,3.648,55.679
		c0,0-73.545,2.796-133.353-3.586C12.199,537.051,8.188,514.986,8.188,497.662z M51.223,568.414
		c-16.959-3.83-23.887-32.463-23.887-32.463s10.757,10.759,63.275,13.496c0,0,0,12.642,5.105,22.852
		C95.714,572.303,65.235,571.578,51.223,568.414z M100.82,573.337c0,0-5.472-11.308-5.289-23.886c0,0,54.398,2.673,109.832,2.673
		c0,0,4.195,16.655,8.753,25.774C214.117,577.896,149.506,576.983,100.82,573.337z M230.286,587.924
		c-17.688,0-23.707-46.131-23.888-96.094c-0.05-13.496,2.369-41.76,19.874-41.76c17.504,0,30.27,12.765,32.092,42.488
		c0,0-9.381,9.268-10.759,31.545c-1.091,17.689,3.285,26.44,3.285,26.44S248.336,587.924,230.286,587.924z M432.04,580.265
		c0,0-7.323-0.002-9.02-0.002c-98.063-0.091-174.619-2.366-174.619-2.366c5.834-10.031,6.807-24.557,6.807-24.557
		s81.971,1.939,173.468,1.946c91.502-0.005,173.473-1.946,173.473-1.946s0.972,14.525,6.805,24.557
		C608.952,577.896,532.541,580.248,432.04,580.265z M627.066,587.924c-18.052,0-20.604-37.38-20.604-37.38s4.374-8.748,3.282-26.44
		c-1.378-22.279-10.756-31.545-10.756-31.545c1.822-29.724,14.584-42.488,32.091-42.488c17.509,0,19.927,28.264,19.877,41.76
		C650.773,541.793,644.757,587.924,627.066,587.924z M756.53,573.337c-48.683,3.646-113.294,4.56-113.294,4.56
		c4.559-9.119,8.751-25.774,8.751-25.774c55.436,0,109.835-2.673,109.835-2.673C762.001,562.029,756.53,573.337,756.53,573.337z
		 M806.133,568.414c-14.017,3.161-44.491,3.889-44.491,3.889c5.102-10.212,5.102-22.854,5.102-22.854
		c52.521-2.736,63.276-13.496,63.276-13.496S823.09,564.586,806.133,568.414z M785.343,543.431
		c-59.808,6.383-133.355,3.586-133.355,3.586c4.562-21.519,3.648-55.678,3.648-55.678c45.222,0,129.343-3.89,153.779-8.265
		c24.43-4.376,17.869-8.024,25.165-8.024c7.287,0,14.584,8.024,14.584,22.609C849.166,514.986,845.152,537.051,785.343,543.431z"/>
	<path d="M89.272,378.992c28.383,0,51.393-23.01,51.393-51.396c0-28.382-23.01-51.393-51.393-51.393
		c-28.384,0-51.396,23.011-51.396,51.393C37.877,355.979,60.888,378.992,89.272,378.992z M89.272,281.058
		c25.701,0,46.537,20.837,46.537,46.539c0,25.699-20.836,46.538-46.537,46.538c-25.702,0-46.539-20.84-46.539-46.538
		C42.733,301.895,63.57,281.058,89.272,281.058z"/>
	<path d="M92.432,452.441c11.613,0,21.031-9.416,21.031-21.029c0-11.617-9.418-21.03-21.031-21.03
		c-11.614,0-21.03,9.413-21.03,21.03C71.402,443.025,80.818,452.441,92.432,452.441z M92.432,414.522
		c9.329,0,16.889,7.561,16.889,16.891c0,9.324-7.561,16.889-16.889,16.889c-9.328,0-16.888-7.565-16.888-16.889
		C75.542,422.083,83.102,414.522,92.432,414.522z"/>
	<circle cx="92.432" cy="431.41" r="12.278"/>
	<path d="M657.738,407.748c-0.004-0.53-0.012-1.033-0.012-1.5c0-1.542-0.278-37.806-24.417-43.756
		c-13.932-3.436-89.322-20.574-205.483-20.574c-111.665,0-184.207,15.749-203.782,20.574c-24.139,5.951-24.417,42.215-24.417,43.756
		c0,0.467-0.005,0.97-0.016,1.5c-0.104,8.168-0.348,27.297,24.508,33.035c23.741,5.479,146.639,10.103,211.242,10.103
		c67.284,0,175.321-4.898,197.869-10.103C658.09,435.045,657.845,415.916,657.738,407.748z M220.317,434.174
		c-1.452-0.538-2.774-1.139-3.964-1.793h3.964V434.174z M220.317,425.82h-11.436c-3.511-5.076-4.004-10.934-4.032-15.561h15.468
		V425.82L220.317,425.82z M220.317,403.697h-15.362c0.208-3.888,0.915-9.697,2.67-15.561h12.691V403.697z M220.317,381.568h-10.214
		c2.307-4.914,5.585-9.317,10.214-11.973V381.568z M639.956,371.639c3.132,2.623,5.505,6.121,7.294,9.93h-7.294V371.639z
		 M639.956,388.134h9.771c1.759,5.864,2.463,11.675,2.673,15.561h-12.443V388.134z M639.956,410.26h12.547
		c-0.03,4.626-0.521,10.484-4.031,15.561h-8.516V410.26z M639.956,432.384H641c-0.335,0.187-0.691,0.359-1.044,0.538V432.384z
		 M617.007,366.01h8.312c2.57,0.575,4.821,1.106,6.735,1.58c0.462,0.111,0.899,0.25,1.339,0.391v13.587h-16.386V366.01z
		 M617.007,388.134h16.386v15.561h-16.386V388.134z M617.007,410.26h16.386v15.561h-16.386V410.26z M456.367,347.517
		c5.569,0.137,11.031,0.312,16.384,0.519v11.409h-16.384V347.517z M433.419,347.182c5.558,0.026,11.016,0.094,16.384,0.193v11.926
		c-4.671-3.571-10.275-5.977-16.384-6.794V347.182z M410.468,347.297c5.364-0.08,10.827-0.125,16.384-0.13v5.08
		c-5.998,0.334-11.583,2.196-16.384,5.199V347.297z M387.519,347.868c5.353-0.188,10.811-0.341,16.384-0.455v12.031h-16.384V347.868
		z M387.521,366.01h13.613c-3.365,4.467-5.671,9.779-6.546,15.558h-7.066V366.01z M243.266,438.116
		c-7.075-0.691-12.677-1.403-16.384-2.122v-3.61h16.384V438.116z M243.266,425.82h-16.384V410.26h16.384V425.82z M243.266,403.697
		h-16.384v-15.561h16.384V403.697z M243.266,381.568h-16.384v-14.363c1.534-0.368,3.243-0.771,5.121-1.195h11.263V381.568z
		 M266.212,439.969c-5.918-0.408-11.419-0.82-16.384-1.247v-6.338h16.384V439.969z M266.212,425.82h-16.384V410.26h16.384V425.82z
		 M266.212,403.697h-16.384v-15.561h16.384V403.697z M266.212,381.568h-16.384V366.01h16.384V381.568z M289.163,441.366
		c-5.691-0.312-11.174-0.632-16.384-0.966v-8.02h16.384V441.366z M289.163,425.82h-16.384V410.26h16.384V425.82z M289.163,403.697
		h-16.384v-15.561h16.384V403.697z M289.163,381.568h-16.384V366.01h16.384V381.568z M289.163,359.444h-16.384v-1.079
		c5.13-0.8,10.594-1.598,16.384-2.381V359.444z M312.111,442.505c-5.585-0.252-11.061-0.514-16.384-0.788v-9.333h16.384V442.505z
		 M312.111,425.82h-16.384V410.26h16.384V425.82z M312.111,403.697h-16.384v-15.561h16.384V403.697z M312.111,381.568h-16.384
		V366.01h16.384V381.568z M312.111,359.444h-16.384v-4.32c5.222-0.662,10.681-1.309,16.384-1.928V359.444z M335.06,443.461
		c-5.517-0.21-10.992-0.433-16.387-0.664v-10.413h16.387V443.461z M335.06,425.82h-16.387V410.26h16.387V425.82z M335.06,403.697
		h-16.387v-15.561h16.387V403.697z M335.06,381.568h-16.387V366.01h16.387V381.568z M335.06,359.444h-16.387v-6.938
		c5.274-0.536,10.737-1.044,16.387-1.523V359.444z M358.008,444.251c-5.458-0.173-10.933-0.354-16.384-0.551v-11.319h16.384V444.251
		z M358.008,425.82h-16.384V410.26h16.384V425.82z M358.008,403.697h-16.384v-15.561h16.384V403.697z M358.008,381.568h-16.384
		V366.01h16.384V381.568z M358.008,359.444h-16.384v-8.998c5.308-0.413,10.772-0.8,16.384-1.148V359.444z M380.957,444.888
		c-5.404-0.13-10.878-0.276-16.384-0.438v-12.065h16.384V444.888z M380.957,425.82h-16.384V410.26h16.384V425.82z M380.957,403.697
		h-16.384v-15.561h16.384V403.697z M380.957,381.568h-16.384V366.01h16.384V381.568z M380.957,359.444h-16.384v-10.532
		c5.333-0.298,10.792-0.565,16.384-0.795V359.444z M387.519,388.134h6.707c0.214,5.636,1.775,10.927,4.373,15.561h-11.08V388.134z
		 M403.906,445.354c-5.333-0.087-10.811-0.193-16.384-0.317v-12.652h16.384V445.354z M403.906,425.82h-16.384V410.26h15.848
		c0.176,0.189,0.358,0.375,0.537,0.56V425.82z M426.854,445.609c-5.231-0.029-10.71-0.084-16.384-0.154v-13.069h16.384V445.609z
		 M426.854,425.82H410.47v-9.675c4.801,3.005,10.389,4.867,16.384,5.202V425.82z M400.583,386.798
		c0-15.586,12.631-28.216,28.214-28.216c15.584,0,28.216,12.63,28.216,28.216c0,15.582-12.635,28.214-28.216,28.214
		C413.216,415.012,400.583,402.38,400.583,386.798z M449.803,445.568c-4.975,0.041-9.804,0.066-14.439,0.066
		c-0.641,0-1.295-0.003-1.944-0.003v-13.248h16.384V445.568z M449.803,425.82h-16.384v-4.732c6.11-0.82,11.715-3.224,16.384-6.792
		V425.82z M472.751,445.231c-5.577,0.108-11.051,0.2-16.384,0.265v-13.112h16.384V445.231z M472.751,425.82h-16.384V410.26h16.384
		V425.82z M472.751,403.697h-13.756c2.599-4.634,4.16-9.925,4.374-15.561h9.382V403.697z M472.754,381.568L472.754,381.568h-9.745
		c-0.874-5.779-3.182-11.091-6.545-15.558h16.29V381.568z M495.7,444.673c-5.507,0.158-10.982,0.3-16.385,0.42v-12.709H495.7
		V444.673z M495.7,425.82h-16.385V410.26H495.7V425.82z M495.7,403.697h-16.385v-15.561H495.7V403.697z M495.7,381.568h-16.385
		V366.01H495.7V381.568z M495.7,359.444h-16.385v-11.134c5.591,0.252,11.052,0.538,16.385,0.858V359.444z M518.647,443.928
		c-5.448,0.2-10.922,0.383-16.383,0.554v-12.098h16.383V443.928z M518.647,425.82h-16.383V410.26h16.383V425.82z M518.647,403.697
		h-16.383v-15.561h16.383V403.697z M518.647,381.568h-16.383V366.01h16.383V381.568z M518.647,359.444h-16.383v-9.865
		c5.611,0.372,11.075,0.773,16.383,1.208V359.444z M541.596,442.992c-5.391,0.241-10.865,0.472-16.383,0.686v-11.294h16.383V442.992
		z M541.596,425.82h-16.383V410.26h16.383V425.82z M541.596,403.697h-16.383v-15.561h16.383V403.697z M541.596,381.568h-16.383
		V366.01h16.383V381.568z M541.596,359.444h-16.383v-8.101c5.649,0.498,11.112,1.024,16.383,1.577V359.444z M564.544,441.845
		c-5.313,0.292-10.793,0.573-16.383,0.841v-10.305h16.383V441.845z M564.544,425.82h-16.383V410.26h16.383V425.82z M564.544,403.697
		h-16.383v-15.561h16.383V403.697z M564.544,381.568h-16.383V366.01h16.383V381.568z M564.544,359.444h-16.383v-5.814
		c5.706,0.634,11.169,1.299,16.383,1.979V359.444z M587.493,440.431c-5.197,0.357-10.678,0.706-16.383,1.042v-9.089h16.383V440.431z
		 M587.493,425.82H571.11V410.26h16.383V425.82z M587.493,403.697H571.11v-15.561h16.383V403.697z M587.493,381.568H571.11V366.01
		h16.383V381.568z M587.493,359.444H571.11v-2.959c5.805,0.801,11.268,1.611,16.383,2.422V359.444z M610.439,438.58
		c-4.92,0.469-10.416,0.932-16.381,1.379v-7.575h16.381V438.58z M610.439,425.82h-16.381V410.26h16.381V425.82z M610.439,403.697
		h-16.381v-15.561h16.381V403.697z M610.439,381.568h-16.381V366.01h16.381V381.568z M617.007,437.906v-5.522h16.386v2.941
		c-0.439,0.116-0.877,0.233-1.339,0.343C628.774,436.422,623.613,437.175,617.007,437.906z"/>
	<circle cx="428.797" cy="386.797" r="19.101"/>
	<path d="M768.084,276.201c-28.38,0-51.394,23.011-51.394,51.393c0,28.385,23.011,51.396,51.394,51.396
		c28.381,0,51.395-23.01,51.395-51.396C819.477,299.212,796.463,276.201,768.084,276.201z M768.084,374.134
		c-25.7,0-46.541-20.84-46.541-46.538c0-25.702,20.843-46.539,46.541-46.539c25.701,0,46.539,20.837,46.539,46.539
		C814.62,353.296,793.782,374.134,768.084,374.134z"/>
	<path d="M764.922,410.383c-11.616,0-21.033,9.413-21.033,21.03c0,11.613,9.419,21.029,21.033,21.029s21.028-9.416,21.028-21.029
		C785.95,419.796,776.536,410.383,764.922,410.383z M764.922,448.302c-9.327,0-16.887-7.565-16.887-16.889
		c0-9.33,7.56-16.891,16.887-16.891c9.323,0,16.89,7.561,16.89,16.891C781.812,440.736,774.247,448.302,764.922,448.302z"/>
	<circle cx="764.922" cy="431.41" r="12.278"/>
	<path d="M343.645,182.029c-8.459,0.753-16.311,1.574-23.583,2.441v4.827c7.368-0.735,15.228-1.442,23.583-2.102V182.029z"/>
	<path d="M316.295,184.929c-8.718,1.086-16.561,2.23-23.583,3.388v4.072c7.141-0.912,15.009-1.826,23.583-2.712V184.929z"/>
	<path d="M288.942,188.955c-9.353,1.615-17.144,3.238-23.521,4.744v2.631c6.533-1.07,14.393-2.25,23.521-3.451V188.955z"/>
	<path d="M371.118,179.985c-8.368,0.509-16.27,1.083-23.706,1.715v5.199c7.521-0.568,15.428-1.096,23.706-1.567V179.985z"/>
	<path d="M425.824,177.926c-8.137,0.136-15.957,0.336-23.462,0.593v5.399c7.57-0.259,15.39-0.464,23.462-0.613V177.926z"/>
	<path d="M261.649,194.611c-14.094,3.521-20.059,6.194-20.059,6.194s6.82-1.605,20.059-3.849V194.611z"/>
	<path d="M398.592,178.653c-8.284,0.306-16.18,0.679-23.704,1.108v5.362c7.597-0.413,15.497-0.773,23.704-1.076V178.653z"/>
	<path d="M535.831,184.47c-7.269-0.867-15.126-1.688-23.583-2.441v5.166c8.355,0.656,16.213,1.365,23.583,2.102V184.47z"/>
	<path d="M563.184,188.317c-7.025-1.158-14.866-2.301-23.585-3.388v4.747c8.572,0.886,16.444,1.8,23.585,2.712V188.317z"/>
	<path d="M590.475,193.699c-6.381-1.506-14.168-3.129-23.524-4.744v3.922c9.13,1.203,16.988,2.383,23.524,3.451V193.699z"/>
	<path d="M508.481,181.701c-7.438-0.632-15.341-1.208-23.707-1.715v5.35c8.279,0.471,16.184,0.999,23.707,1.567V181.701
		L508.481,181.701z"/>
	<path d="M453.532,178.519c-7.507-0.257-15.329-0.457-23.463-0.593v5.38c8.069,0.148,15.893,0.354,23.463,0.613V178.519z"/>
	<path d="M594.24,194.611v2.346c13.24,2.243,20.06,3.849,20.06,3.849S608.337,198.133,594.24,194.611z"/>
	<path d="M481.006,179.761c-7.523-0.429-15.423-0.806-23.708-1.108v5.397c8.209,0.301,16.107,0.664,23.708,1.076V179.761z"/>
	<path d="M305.289,171.628c38.813-6.209,64.671-9.117,123.385-9.117c58.717,0,87.892,4.742,115.368,8.633
		c39.818,5.638,58.595,10.7,68.319,13.614c9.168,2.752,13.977,2.189,22.73-1.459c8.751-3.648,14.013-4.688,21.516-6.566
		c3.648-0.911,6.932-1.273,5.108-7.657c-1.823-6.38-26.44-89.533-28.265-94.454c-1.822-4.923-4.739-13.311-17.869-14.407
		c-13.126-1.091-89.896-5.101-186.903-5.101c-97.005,0-173.772,4.009-186.902,5.101c-13.128,1.096-16.048,9.484-17.87,14.407
		c-1.826,4.923-26.441,88.074-28.265,94.454c-1.825,6.384,1.458,6.747,5.106,7.657c7.505,1.878,12.762,2.92,21.516,6.566
		c8.753,3.646,16.048,4.376,25.164,1.459C256.542,181.842,265.781,177.951,305.289,171.628z M627.19,74.865
		c0,0,15.077,49.11,21.153,68.803s5.35,26.5,5.35,26.5l-19.938-7.778c0,0-9.969-60.295-10.698-71.479
		C622.327,79.725,627.19,74.865,627.19,74.865z M234.294,90.91c-0.729,11.184-10.696,71.475-10.696,71.475l-19.936,7.779
		c0,0-0.731-6.808,5.348-26.5c6.079-19.696,21.153-68.803,21.153-68.803S235.026,79.725,234.294,90.91z M554.252,150.72
		c-28.202-4.622-70.021-7.537-70.021-7.537s25.771-23.34,61.995-18.235c36.228,5.105,47.896,30.149,47.896,30.149
		S582.458,155.339,554.252,150.72z M260.311,87.021c8.751-13.375,28.2-20.91,51.057-21.64c22.852-0.728,94.575-3.403,94.575-3.403
		s1.947,1.699,9.483,1.947v2.917c0,0-20.909,2.432-23.342,2.918c-2.433,0.487-3.401,2.434-3.401,4.619
		c0,2.191-0.49,8.998-0.49,10.697c0,1.702,0.973,3.404,5.835,3.648c3.536,0.175,21.888,1.242,28.445,0.974
		c11.916-0.487,23.367-0.697,27.477-3.163c2.431-1.457,2.187-6.562,2.187-11.184c0-4.381-1.457-6.804-3.646-7.293
		c-2.188-0.487-26.986-1.7-26.986-1.7l0.241-2.433c0,0,5.593-0.486,8.51-2.186c0,0,108.678,2.428,124.724,3.646
		c16.046,1.214,30.147,9.239,38.17,33.552c8.022,24.312,15.074,57.377,15.074,57.377s-2.919,0-4.619-0.245
		c0,0-15.561-34.039-59.811-38.171c-44.249-4.132-71.479,24.801-71.479,24.801s-60.538-5.105-128.129,2.675
		c-67.59,7.778-78.285,10.21-84.366,9.967c-6.077-0.242-16.045-0.242-19.449-2.673C239.662,152.155,251.56,100.394,260.311,87.021z"
		/>
</g>
</svg>
