<?xml version="1.0" encoding="utf-8"?>
<!-- Generator: Adobe Illustrator 16.0.0, SVG Export Plug-In . SVG Version: 6.00 Build 0)  -->
<!DOCTYPE svg PUBLIC "-//W3C//DTD SVG 1.1//EN" "http://www.w3.org/Graphics/SVG/1.1/DTD/svg11.dtd">
<svg version="1.1" id="Layer_1" xmlns="http://www.w3.org/2000/svg" xmlns:xlink="http://www.w3.org/1999/xlink" x="0px" y="0px"
	 width="864px" height="864px" viewBox="0 0 864 864" enable-background="new 0 0 864 864" xml:space="preserve">
<g>
	<path d="M856.622,155.767c1.079-11.723,0.572-19.931-1.215-27.086c-2.015-8.086-14.149-10.644-33.552-12.535
		c0,0-2.427-8.625-10.779-18.052c-8.354-9.432-16.708-10.106-16.708-10.106s-12.533,0.404-21.695,1.079
		c-9.158,0.674-16.978,4.581-21.021,12.128c0,0-17.248-1.211-45.14-3.64c-27.893-2.426-29.778-2.97-29.778-2.97
		s-8.49-4.578-21.425-17.379c-12.934-12.796-27.759-28.16-32.879-35.032c-5.123-6.875-8.979-14.285-11.454-16.035
		c-5.522-3.908-13.202-2.563-21.826-4.311c-8.625-1.754-36.629-9.932-52.013-13.473c-22.233-5.123-39.21-2.16-54.033-1.89
		c-28.346,0.516-59.561,1.229-80.982,1.478c-11.319,0.136-22.501,1.481-29.375,6.066c-6.872,4.583-10.78,11.184-9.702,14.149
		l-56.19,68.852c0,0-34.362-1.213-94.592,2.699c-60.23,3.901-74.515,9.022-74.515,9.022s-72.088,3.908-102.946,13.477
		c0,0-10.646-1.886-18.46,4.445c-7.816,6.334-8.085,14.553-8.085,21.831c0,7.274,2.29,20.344,9.431,23.309
		c7.141,2.967,13.609,2.292,13.609,2.292s2.829,6.201,3.638,9.162c0,0-6.468,2.965-6.468,9.568c0,10.778,4.849,11.723,7.007,12.397
		c0,0,0.674,5.923-3.639,8.482c-4.311,2.563-4.983,1.755-10.374,3.505c-5.389,1.752-11.183,4.039-10.916,11.454
		c0.27,7.41,4.043,17.519,19.54,18.725c0,0,1.347,11.322,13.472,15.096c12.131,3.774,27.355,7.548,33.555,8.483
		c6.197,0.947,9.028-0.941,9.028-6.465s-0.271-13.07,6.602-14.689c4.235-0.994,14.146-0.267,14.146-0.267s-2.423,5.799-2.423,17.787
		c0,11.995,9.295,65.892,67.237,65.892c57.942,0,69.26-49.315,69.26-49.315s357.747-2.696,362.199-2.833
		c4.447-0.132,8.352-0.265,10.781-4.311c0,0,14.146,45.129,67.774,44.735c32.141-0.236,50.316-22.027,58.615-40.289
		c5.93-13.056,6.063-24.388,6.063-24.388l5.662-0.671c0,0,1.886,6.201,2.019,8.353c0,0,23.989-1.753,51.342-4.316
		c27.354-2.559,35.437-6.331,37.595-21.423c0,0,11.207-1.459,13.204-14.282c2.154-13.878-6.735-19.265-6.735-19.265
		s-0.242-14.024-0.546-20.62c-0.404-8.758-9.833-10.778-9.833-10.778s2.697-2.695,7.684-3.908
		C851.771,168.699,855.543,167.487,856.622,155.767z M792.616,91.893L792.616,91.893c0,0.002,4.044-0.269,12.129,6.601
		c8.853,7.53,11.186,17.111,11.186,17.111c-3.504-0.804-14.689-1.75-14.689-1.75c-10.511-21.827-21.561-21.963-21.964-21.963h13.339
		V91.893z M776.717,94.724c10.676,1.942,18.46,18.055,18.46,18.055s-8.489-0.807-15.36-2.559c-6.873-1.751-24.256-7.95-24.256-7.95
		S760.413,91.761,776.717,94.724z M658.993,86.461c-5.39,3.052-14.911-1.259-24.075-2.878c-9.16-1.618-27.304-0.715-30-0.18
		c-2.695,0.539-2.695,0.18-1.621-1.976c1.082-2.155,3.771-9.703,6.825-15.995c3.052-6.287,8.084-20.477,8.084-20.477
		C625.219,52.867,658.993,86.461,658.993,86.461z M389.59,12.532c14.282-0.542,89.067-1.618,105.372-2.294
		c16.306-0.673,23.717-1.75,41.773,2.697c18.057,4.445,53.897,14.147,62.925,14.28c9.027,0.134,10.646,5.255,13.475,9.027
		c2.831,3.772,2.831,3.772,2.831,3.772s-3.372,10.513-9.028,22.64c-5.66,12.127-9.566,20.614-10.104,22.64
		c-0.542,2.021-0.138,3.234,2.423,3.368c2.563,0.134,25.871-2.424,40.827,0.405c14.958,2.829,20.752,3.908,23.716,1.886
		c0,0,10.106,5.929,11.723,7.816c1.615,1.886,4.851,6.331-0.809,6.331c-5.66,0-64.275-1.618-84.622-2.828
		c-20.345-1.216-33.014-1.888-38.94-3.233c-5.925-1.346-7.546-14.822-14.015-31.129c-6.469-16.307-11.991-33.82-42.04-39.21
		c-30.05-5.392-83.409-3.91-101.33-3.64c-17.923,0.265-26.142,1.215-26.142,1.215S375.306,13.07,389.59,12.532z M491.909,103.527
		c-6.828,0-79.412-0.18-79.412-0.18l-0.718-56.591c0,0,30.542,0,56.591,0c26.051,0,40.961,11.135,43.3,49.401
		c0,0-4.851-0.355-8.444,1.98C499.633,100.476,498.735,103.527,491.909,103.527z M494.246,117.231v21.548
		c-5.575,0.053-13.097,0.08-21.738,0.08v-21.582L494.246,117.231z M469.272,117.286v21.573c-6.571-0.005-13.691-0.027-21.021-0.055
		v-21.472L469.272,117.286z M445.017,117.339v21.453c-7.26-0.032-14.671-0.074-21.917-0.124v-21.28L445.017,117.339z
		 M419.864,117.394v21.25c-7.487-0.056-14.73-0.118-21.379-0.187v-21.013L419.864,117.394z M400.818,87.716V53.582
		c0,0,1.259-1.798,2.158-3.233c0.898-1.438,3.054-2.336,3.054-2.336v51.743C406.031,99.755,403.336,91.851,400.818,87.716z
		 M525.551,98.228c3.366,0.941,2.479,4.549,1.346,6.199c0,0-1.928,7.723-12.354,8.445c-6.45,0.445-15.542,0.314-15.542,0.314
		s5.931-8.487,11.052-12.129C515.174,97.42,522.182,97.286,525.551,98.228z M497.479,117.228l20.302-0.046
		c0,0-4.132,20.666-14.015,21.381c-1.02,0.076-3.204,0.134-6.287,0.177V117.228z M522.314,121.809
		c2.83-10.649,8.488-14.423,12.263-15.768c3.771-1.348,11.992-0.673,11.992-0.673c-9.834,0.406-18.189,7.274-22.638,20.344
		c-4.446,13.074-11.724,14.149-11.724,14.149S519.091,133.944,522.314,121.809z M520.655,142.334c9.701,0,23.534-0.18,23.534-0.18
		s1.978-0.9,4.311-0.9c2.336,0,5.571,0,8.269,0c2.692,0,4.132,2.156,4.132,3.592c0,1.439-1.257,3.417-3.235,3.417
		c-1.981,0-5.033,0-9.165,0c-4.131,0-4.131-1.978-4.131-1.978s-20.838,0-23.714,0C517.781,146.285,518.318,142.334,520.655,142.334z
		 M354.11,113.948c-2.515,0-4.673-0.715-6.647-2.333c-1.484-1.215-3.542-2.617-6.11-4.898c-3.637-3.233-2.828-9.159-0.403-12.129
		c2.427-2.963,44.196-57.129,44.196-57.129l6.603,0.134v-3.774h-8.357l-47.43,61.58c-2.291,3.1-1.618,8.491-1.618,8.491
		c-4.257-0.888-9.521-0.9-9.521-0.9s54.077-69.708,55.157-70.966c1.078-1.259,2.516-1.976,3.951-1.976c1.439,0,9.344,0,10.422,0
		c1.079,0,2.336,0.541,2.336,2.334c0,1.798,0,81.563,0,81.563S356.624,113.948,354.11,113.948z M395.25,117.445v20.975
		c-8.902-0.101-16.522-0.212-21.917-0.329v-20.598L395.25,117.445z M370.1,117.503v20.512c-2.1-0.057-3.635-0.115-4.492-0.168
		c-10.778-0.72-14.553-20.307-14.553-20.307L370.1,117.503z M367.897,29.104h9.433l-57,73.975
		c-3.637,0.811-10.105-1.347-10.105-1.347L367.897,29.104z M276.944,104.158c40.964,0.539,58.211-0.265,69.528,18.327
		c3.371,5.538,4.582,9.434,9.029,13.607c2.926,2.751,8.348,5.213,12.801,5.794c9.299,1.211,16.843,2.02,16.843,2.02
		c-10.385,0-18.176,0.039-23.851-1.48c-8.094-2.175-12.208-6.949-16.168-14.551c-6.738-12.938-15.899-17.789-32.071-19.677
		c-16.168-1.884-129.625,0-129.625,0S235.981,103.616,276.944,104.158z M32.334,149.16c13.833,0,266.978-2.693,282.249-2.693
		c15.271,0,16.889,1.439,22.816,4.852c5.929,3.417,68.629,40.425,75.998,45.272c7.366,4.853,12.037,7.548,17.962,7.548
		c9.344,0,313.693-2.517,350.879-3.414c37.191-0.901,50.485-4.669,50.485-4.669c0.897,2.693,0.183,4.849,0.183,4.849
		c-3.054,1.62-2.517,3.594-50.482,5.388c-46.561,1.743-346.389,4.493-352.319,4.493c-5.927,0-8.805-1.621-12.934-3.769
		c-4.135-2.16-78.692-47.436-84.083-50.309c-5.386-2.875-12.036-3.416-14.911-3.416c-2.876,0-244.7,2.334-286.202,2.334
		c-3.593,0-6.827-0.54-6.827-3.053C25.15,150.059,28.205,149.16,32.334,149.16z M18.5,167.669
		c-3.054-3.237-5.748-10.961-5.748-17.43s0.539-13.651,5.03-19.403c4.49-5.75,11.677-4.853,11.677-4.853s-8.262,10.241-8.262,24.975
		c0,14.731,6.826,18.688,6.826,18.688S21.558,170.901,18.5,167.669z M32.694,193.539c0-6.652,3.955-5.93,3.955-5.93v12.934
		C36.649,200.543,32.694,200.188,32.694,193.539z M39.167,210.247c0.716-4.134,3.233-26.947-3.957-36.473
		C28.023,164.254,26.721,159,26.721,159s1.884,0.943,7.949,0.943c6.063,0,263.428-1.89,274.88-1.89
		c11.454,0,17.52-0.134,29.107,7.546c11.588,7.682,69.394,42.175,77.208,46.355c7.815,4.177,12.666,3.1,23.447,3.1
		c10.775,0,268.144-2.561,324.333-4.044c56.186-1.478,70.201-5.028,69.801-5.612c0,0,2.693,2.695,0.539,3.772
		c-2.158,1.081-6.828,1.799-10.782,6.469c-3.955,4.671-2.52,11.32-2.52,11.32s-175.704,4.129-357.161,4.491
		c-181.458,0.355-415.376,3.59-415.376,3.59c-0.358-15.807-13.295-18.326-13.295-18.326S38.444,214.381,39.167,210.247z
		 M30.002,243.663c-6.471-0.356-14.339-4.99-14.555-14.731c-0.183-8.086,11.475-8.261,14.194-8.261
		c6.29,0,13.473,2.515,13.473,13.656C43.116,240.609,36.468,244.023,30.002,243.663z M168.244,321.729
		c-27.833,0-50.399-22.567-50.399-50.399c0-7.774,1.763-15.2,4.906-21.776h5.451c-3.504,6.451-5.498,13.917-5.498,21.776
		c0,25.149,20.391,45.541,45.54,45.541c25.155,0,45.542-20.389,45.542-45.541c0-7.859-1.786-14.926-5.292-21.381
		c0,0,1.752,0.136,3.098,0.272c1.347,0.134,2.624,0.418,2.624,0.418c2.847,6.31,4.429,13.312,4.429,20.687
		C218.645,299.164,196.08,321.729,168.244,321.729z M168.244,303.263c17.637,0,31.934-14.297,31.934-31.932
		c0-8.335-3.192-16.08-8.423-21.766h9.076c4.236,6.273,6.712,13.625,6.712,21.766c0,21.702-17.595,39.296-39.299,39.296
		c-21.702,0-39.295-17.595-39.295-39.296c0-8.14,2.476-15.504,6.712-21.776h9.168c-5.282,5.697-8.516,13.395-8.516,21.776
		C136.312,288.965,150.609,303.263,168.244,303.263z M144.894,271.69c0-13.247,10.738-23.985,23.984-23.985
		c13.248,0,23.984,10.737,23.984,23.985c0,13.249-10.738,23.984-23.984,23.984C155.632,295.674,144.894,284.937,144.894,271.69z
		 M679.476,310.498c-27.638,0-49.768-22.308-49.768-49.945c0-5.418,0.747-10.743,2.337-15.634l4.955-0.424
		c-1.792,4.923-2.77,10.237-2.77,15.775c0,25.483,20.659,46.152,46.146,46.152c25.49,0,46.152-20.67,46.152-46.152
		c0-6.098-0.705-11.097-2.854-16.423l4.495,0.355c1.921,5.315,2.69,9.833,2.69,15.813
		C730.858,287.655,707.118,310.498,679.476,310.498z M680.374,293.589c18.401,0,33.317-14.919,33.317-33.319
		c0-6.16-1.371-11.277-4.286-16.233l7.62-0.014c2.5,5.229,3.413,10.064,3.413,16.244c0,22.127-17.933,40.066-40.064,40.066
		c-22.124,0-40.062-17.939-40.062-40.066c0-5.531,1.118-10.803,3.147-15.595l7.579-0.203c-2.537,4.701-3.979,10.078-3.979,15.798
		C647.059,278.668,661.973,293.589,680.374,293.589z M658.274,262.887c0-11.91,9.653-21.561,21.56-21.561
		c11.904,0,21.559,9.651,21.559,21.561c0,11.908-9.652,21.559-21.559,21.559S658.274,274.795,658.274,262.887z M820.868,254.264
		c-16.89,2.875-63.783,5.388-63.783,5.388s-0.716-7.189-2.337-12.396c-1.614-5.211-5.025-8.088-14.91-8.088
		c-9.881,0-71.685,0-94.502,0c-22.818,0-24.791,7.366-27.668,15.634c-2.873,8.263-6.108,14.373-7.725,16.888
		c-1.617,2.519-0.896,5.03-9.884,5.03c-8.982,0-346.564,2.517-355.368,2.876c-8.805,0.359-10.6-5.031-13.833-11.321
		c-3.234-6.291-6.467-12.936-9.523-16.35c-3.052-3.414-4.849-7.548-23.176-7.548c-18.325,0-82.644,0-97.555,0
		c-14.91,0-19.042,6.291-19.042,12.396c0,6.11,0,3.775,0,6.11c0,2.336-1.077,4.493-5.571,3.235
		c-4.492-1.259-24.791-4.491-31.798-7.728c-7.007-3.233-9.523-11.135-9.523-11.135s9.342-1.621,12.395-7.549
		c0,0,614.252-5.377,688.824-7.186c74.018-1.796,84.616-1.796,84.616-1.796c0.721,0,4.858,8.982,17.247,8.804
		C837.754,239.532,837.754,251.389,820.868,254.264z M850.512,213.661c3.594,7.723,2.154,15.267-4.313,19.226
		c-6.467,3.949-21.377,1.975-21.377-5.392c0-7.908,1.796-11.495,8.086-13.831c6.291-2.333,7.547-2.52,7.361-5.031
		c-0.177-2.515-2.516-4.313-2.516-4.313S846.918,205.935,850.512,213.661z M845.03,185.543c0.54,8.761,0,17.785,0,17.785
		s-4.985-2.559-8.088-3.64c0,0-3.232-9.704,0-22.098C836.945,177.594,844.611,178.712,845.03,185.543z M845.839,124.009
		c0,0,5.214,1.259,6.108,6.649c0.901,5.388,1.983,15.452,0.539,25.153c-1.439,9.7-6.647,10.241-6.647,10.241
		S852.486,145.029,845.839,124.009z"/>
	<path d="M345.126,95.535c-2.022,2.693-1.75,6.197-0.539,7.14c1.211,0.941,4.178,3.64,5.658,4.711
		c1.482,1.083,2.83,1.757,3.908,1.757c2.694,0,37.596,0,37.596,0V42.04h-5.121C386.629,42.04,347.148,92.838,345.126,95.535z
		 M350.246,95.535l34.495-46.083c0,0-0.271,4.316-0.538,6.331l-27.624,38.002C356.579,93.781,354.288,94.185,350.246,95.535z
		 M388.245,102.271c0,0-3.369,0-6.2,0c-2.423,0-5.798-1.029-8.219-2.967c-2.649-2.11-2.697-6.331-0.537-9.16l14.956-21.287V102.271z
		"/>
</g>
</svg>
