<?xml version="1.0" encoding="utf-8"?>
<!-- Generator: Adobe Illustrator 16.0.0, SVG Export Plug-In . SVG Version: 6.00 Build 0)  -->
<!DOCTYPE svg PUBLIC "-//W3C//DTD SVG 1.1//EN" "http://www.w3.org/Graphics/SVG/1.1/DTD/svg11.dtd">
<svg version="1.1" id="Layer_1" xmlns="http://www.w3.org/2000/svg" xmlns:xlink="http://www.w3.org/1999/xlink" x="0px" y="0px"
	 width="864px" height="864px" viewBox="0 0 864 864" enable-background="new 0 0 864 864" xml:space="preserve">
<g>
	<path d="M858.823,224.628c-2.599-13.33-18.861-13.769-18.861-13.769c-1.698-2.639-2.641-6.223-2.641-6.223
		c3.015-4.904-2.641-10.75-2.641-10.75s0.939-19.993,4.714-32.818c3.771-12.824,8.489-32.627-9.995-42.247
		c-18.482-9.619-63.371-14.899-63.371-14.899s-2.452-4.967-13.768-11.757c-11.316-6.791-21.376-6.664-21.376-6.664
		s-0.797-2.914-6.034-5.534c-2.342-1.169-5.428-1.715-11.572-1.131c-5.074,0.481-12.477,1.846-21.12,3.268
		c-17.4,2.863-23.416,2.901-44.892,0.504c-29.296-3.27-43.882,0.378-43.882,0.378c-5.656-1.257-23.133-1.005-23.133-1.005
		L566.045,15.34c-2.264,0-10.188,0.125-10.188,0.125s0.127-0.502,0-1.76c-0.413-4.131-3.016-2.893-13.453-3.018
		c-9.435-0.113-25.775-1.382-25.775-1.382s-0.123-2.768-0.123-4.399c0-1.636-4.025-1.26-4.025,0c0,1.257-0.503,4.273-0.503,4.273
		C426.477,4.781,347.891,9.81,347.891,9.81s-0.094-3.771-0.094-5.47c0-1.697-3.211-1.319-3.211,0c0,1.32,0.099,5.47,0.099,5.47
		s-28.233,2.012-35.365,3.394c-2.986,0.579-5.659,2.454-6.79,4.338c-0.96,1.601-50.83,79.969-50.83,79.969
		s-63.561,1.697-127.31,8.488c-63.747,6.788-85.437,16.598-85.437,16.598c-14.145-1.51-27.914,11.881-25.839,34.324
		c2.074,22.444,12.826,27.161,12.826,27.161s5.089,9.43,5.089,27.536s-3.77,20.749-3.77,20.749s-9.516,0.154-12.825,0.94
		c-7.919,1.887-9.993,10.187-7.732,20.56c2.263,10.372,12.262,13.202,12.262,13.202c2.829,14.146,11.504,25.085,26.59,26.027
		c15.091,0.942,39.23,1.132,39.23,1.132c0-0.566-1.319,24.896,6.979,41.683c12.884,26.061,27.724,33.005,63.749,32.249
		c36.022-0.753,46.02-40.548,46.02-40.548c11.504-1.887,37.531-9.053,37.531-9.053l69.975,1.508c0,0,1.696,2.453,9.241,5.093
		c7.543,2.639,32.628,6.601,32.628,6.601s2.641,14.899,13.768,32.628c11.128,17.731,36.779,19.428,65.636,14.712
		c28.855-4.717,37.343-45.643,37.343-45.643c8.487,4.904,23.387,7.732,38.664,5.846c15.277-1.888,26.028-18.673,26.028-18.673
		s86.085-8.375,131.396-12.822c16.389-1.609,26.585-2.364,26.653-2.013c4.76,25.075,14.898,45.202,26.592,46.71
		c11.694,1.51,31.874,1.888,41.87-0.565c9.992-2.454,24.143-19.049,30.366-46.585c4.501-19.916,2.453-43.757,2.453-43.757
		c3.58-0.566,10.372,0.189,10.372,0.189c-0.38,8.675-3.962,13.768-3.962,13.768s23.764-3.583,37.155-9.431
		c13.387-5.846,14.142-22.068,14.142-22.068S861.651,239.152,858.823,224.628z M832.982,199.167c2.641,0,2.829,4.336,1.133,4.715
		c-1.694,0.378-17.917,1.508-34.137,2.641c-16.217,1.133-73.931,3.394-89.021,4.527c-15.091,1.133-66.391,5.846-75.064,6.412
		c-8.676,0.567-10.372-0.942-14.524-4.715c-4.15-3.771-39.607-44.699-43.943-50.358c-4.337-5.656-9.806-6.411-17.731-5.846
		c-7.919,0.567-198.036,7.922-202.939,7.922c-4.904,0-6.79-1.887-6.79-3.583c0-2.263,4.339-2.829,8.298-3.017
		c3.961-0.189,185.214-5.469,201.807-5.846c16.6-0.378,18.292,3.771,21.691,8.299c3.394,4.526,38.472,44.888,42.621,48.848
		c4.148,3.96,6.978,3.962,13.014,3.583c6.038-0.377,60.543-5.469,73.37-6.224C723.592,205.769,830.342,199.167,832.982,199.167z
		 M336.34,163.837c0-21.242-13.137-30.259-22.786-30.259c-15.188,0-20.732,10.22-20.732,10.22s5.75-15.033,21.554-15.033
		c14.576,0,29.356,11.424,29.356,33.666c0,13.202-8.491,23.116-15.397,27.054c-4.993,2.849-9.85,2.605-9.85,2.605
		S336.34,185.079,336.34,163.837z M311.851,189.111c-11.208,0-20.29-11.639-20.29-25.999c0-14.36,9.085-26.001,20.29-26.001
		c11.204,0,20.287,11.641,20.287,26.001C332.139,177.473,323.055,189.111,311.851,189.111z M322.618,124.479
		c0,0,11.692-7.921,111.087-14.896c51.324-3.604,89.207-4.338,98.643-4.715c9.429-0.378,21.5,3.96,31.306,15.463
		c9.805,11.507,18.293,28.292,24.897,30.555c0,0-4.903,2.831-13.203-10.373c-8.298-13.202-23.39-32.25-43.945-32.441
		c-20.557-0.188-94.303,3.209-144.282,8.3C337.14,121.462,322.618,124.479,322.618,124.479z M350.657,70.664
		c-20.46,1.98-27.151,18.447-27.151,18.447c-3.41,0.491-6.912,1.025-10.508,1.608l12.262-65.634l8.674,0.188
		c0,0,0.381,3.396,3.583,3.396c3.211,0,5.285-2.641,5.285-2.641s60.712,1.828,64.123,1.695c4.904-0.187,6.038-2.829,5.285-3.582
		c-0.755-0.754-33.199-2.454-33.199-2.454s33.199-0.187,40.363-0.377c0,0,1.698,1.695,3.771,2.263v2.641c0,0-8.298,1.697-9.241,2.83
		c-0.941,1.132-0.567,8.675,0.563,9.807c1.136,1.133,6.979,2.641,14.338,2.641c7.355,0,15.089-2.263,15.844-2.828
		c0.754-0.566,1.319-9.996,0-10.941c-1.322-0.94-6.791-2.261-16.974-1.887v-2.829c0,0,3.208,0,4.337-1.886l26.217,0.378
		c0,0-4.903,1.32-5.473,2.452c-0.565,1.133-0.377,3.396,2.075,3.584c2.455,0.187,60.543-3.207,60.543-3.207s3.396,5.282,5.657,5.469
		c2.265,0.187,3.019-3.394,3.019-4.715c0,0,0.939,1.132-1.509,11.316c-2.454,10.185-7.545,27.912-7.545,27.912
		s-0.879,2.831-1.697,6.225l-3.961,13.014c0,0-6.979-0.565-15.657-2.262c-8.674-1.697-24.707,2.073-24.707,2.073
		c-3.395,0.63-5.154,1.133-8.299,1.509c0,0-8.675,1.888-17.731,0.943c-9.053-0.943-20.368,0.944-20.368,0.944
		s-12.556-2.92-38.733-2.651C383.847,84.109,374.041,68.402,350.657,70.664z M378.057,84.217
		c-13.314,0.358-29.699,1.528-49.267,4.159c0,0,6.762-11.558,21.615-13.186C368.763,73.18,378.057,84.217,378.057,84.217z
		 M306.961,91.663c0,0-19.237,3.771-25.083,3.962c-5.844,0.187-9.053-2.452-9.053-2.452c0.565-0.189,34.704-54.696,37.157-59.034
		c2.451-4.338,7.164-6.979,7.164-6.979L306.961,91.663z M565.919,87.764c0,0,5.282,20.495,4.718,20.495
		c-0.569,0-13.392,0.378-13.392,0.378s-13.956-7.795-8.927-20.873C548.314,87.764,559.127,87.952,565.919,87.764z M549.13,84.118
		l8.868-41.116l7.355,41.116C565.352,84.118,555.923,84.118,549.13,84.118z M683.137,146.264c-2.17,0.187-3.867,0.376-3.867-0.755
		c0-1.226,0-1.887,2.172-2.17c2.17-0.282,19.613-1.979,19.613-1.979s1.508-2.076,3.679-2.17c3.053-0.133,4.151,1.32,4.245,3.771
		c0.084,2.171-0.282,3.49-3.771,3.678c-3.491,0.189-7.73,0.189-7.73,0.189s-1.136-0.282-0.944-1.979
		C696.526,144.849,685.304,146.073,683.137,146.264z M677.761,135.23c-2.26,12.259-15.464,10.184-15.464,10.184
		c13.959-2.454,12.449-10.561,13.204-24.896c0.753-14.335,8.674-12.07,8.674-12.07C677.95,110.71,680.024,122.972,677.761,135.23z
		 M662.232,138.812c0,0-1.352-6.224-4.656-13.957c-3.297-7.73-7.729-9.523-7.729-9.523l5.718-0.282c0,0,8.301,1.507,10.061,7.921
		C667.388,129.384,669.777,138.057,662.232,138.812z M654.469,124.196c3.771,7.072,5.01,14.814,5.01,14.814
		c-2.659,0.162-6.706,0.355-11.58,0.565c0,0-1.066-7.834-5.12-14.907c-3.314-5.779-8.674-8.771-8.674-8.771l11.506-0.469
		C645.604,115.428,650.696,117.125,654.469,124.196z M639.38,124.479c4.433,7.356,5.64,15.219,5.64,15.219
		c-3.769,0.159-7.466,0.174-11.773,0.342c0,0-1.603-8.111-5.47-14.807c-3.865-6.693-9.146-8.863-9.146-8.863l10.397-0.419
		C629.03,115.95,634.947,117.125,639.38,124.479z M624.292,125.706c4.699,6.958,6.002,14.581,6.002,14.581
		c-4.063,0.157-8.225,0.312-12.31,0.461c0,0-0.766-8.064-5.103-15.233c-4.339-7.166-8.771-8.769-8.771-8.769l9.575-0.277
		C613.689,116.471,619.388,118.443,624.292,125.706z M609.957,126.365c4.386,6.573,5.504,14.476,5.504,14.476
		c-4.358,0.159-8.58,0.312-12.449,0.45c0,0-1.164-8.418-5.031-15.206c-3.866-6.792-7.163-8.676-7.163-8.676l9.902-0.472
		C600.717,116.935,605.81,120.142,609.957,126.365z M594.869,125.988c4.433,7.167,5.246,15.403,5.246,15.403
		c-5.028,0.176-8.282,0.212-11.188,0.313c0,0-1.412-8.079-4.902-14.398c-3.488-6.318-7.637-9.523-7.637-9.523l9.524-0.378
		C585.91,117.406,590.437,118.821,594.869,125.988z M580.252,126.553c3.866,5.943,5.662,15.33,5.662,15.33
		c-1.378,0.048-2.143,0.074-2.143,0.074s-9.179-18.106-17.102-23.889l4.906-0.168C571.579,117.9,576.386,120.613,580.252,126.553z
		 M761.313,103.167c-6.225-0.378-14.896-0.378-14.896-0.378c-7.732-3.396-13.583-13.958-13.583-13.958
		C751.695,91.851,761.313,103.167,761.313,103.167z M654.375,86.759c12.938,2.193,25.084-0.567,35.081-1.509
		c9.994-0.943,19.616-2.977,24.516-3.396c7.359-0.628,11.316,1.508,12.447,3.207c1.137,1.699,2.644,4.904,5.284,8.677
		c2.641,3.771,8.489,8.298,8.489,8.298s-43.946-0.942-52.999-0.942c-9.054,0-9.434-1.508-12.637-3.394
		c-3.206-1.888-8.659-2.715-12.449-0.568c-5.657,3.207-9.432,10.561-9.432,10.561s-1.507-12.824-15.655-18.106
		c-14.145-5.281-23.577-5.091-23.577-5.091S633.249,83.173,654.375,86.759z M631.363,90.719
		c14.338,5.47,18.861,21.313,18.861,21.313l-63.56,1.508l-6.413-28.29C581.572,85.25,616.037,84.87,631.363,90.719z M555.544,18.106
		h8.489l18.484,97.322h-17.351c0,0-1.51-2.454-3.399-3.396l12.575-0.502l-15.588-84.181c0,0-14.522,58.467-15.658,64.315
		c-1.133,5.848,2.263,11.506,2.263,11.506s-3.206-2.453-8.298-2.265L555.544,18.106z M550.327,13.704
		c1.886,0,1.822,0.441,1.069,3.647c-0.755,3.207-19.046,83.928-19.046,83.928s-7.167,0.566-16.413,0.566
		c0,0,3.773-2.452,7.36-12.637c3.583-10.185,16.03-59.033,17.161-64.502c1.133-5.47-1.886-9.871-5.847-11.379
		C534.609,13.328,548.439,13.704,550.327,13.704z M259.245,92.228c3.206-6.037,36.777-58.092,42.247-66.014
		c5.469-7.919,9.998-9.805,17.918-10.939c7.922-1.131,63.371-3.962,103.546-3.962c40.172,0,86.191,1.134,98.641,2.264
		c12.446,1.132,15.841,5.846,14.522,12.636c-1.012,5.214-13.389,49.416-16.973,61.863c-3.583,12.447-9.053,13.202-9.053,13.202
		c-3.394,0.378-15.091,1.133-15.091,1.133c12.635-4.149,15.658-7.358,17.54-13.204c1.885-5.846,15.088-56.392,16.031-62.05
		c0.942-5.657-2.264-7.166-7.918-7.356c-5.658-0.188-57.713-1.508-97.7-1.508c-39.987,0-88.269,0.943-99.774,2.074
		c-11.506,1.133-13.39,3.772-16.411,7.921c-3.014,4.15-38.14,58.624-39.418,60.354c-2.641,3.585-2.385,6.45,0,7.545
		c4.528,2.075,9.243,3.207,14.9,2.83c5.656-0.378,34.323-6.601,91.473-10.375c57.148-3.771,102.791,13.957,102.791,13.957
		c-4.338,0.189-13.014,0.567-13.014,0.567s-14.9-2.644-47.906-7.169c-33.008-4.525-56.771-2.261-85.817,0.944
		c-29.046,3.206-45.267,6.79-51.114,7.167c-5.849,0.376-11.882-0.755-16.596-3.208C257.359,98.451,258.268,94.068,259.245,92.228z
		 M115.528,128.063c41.868-12.259,62.24-10.186,62.24-10.186c-54.506,7.167-107.191,29.824-106.75,29.421
		C77.618,141.266,97.775,133.261,115.528,128.063z M80.446,164.715c0,0,15.843-20.056,97.13-17.602
		c47.344,1.427,76.189,8.769,90.91,14.521c10.555,4.125,11.507,8.488,11.507,8.488c2.829-0.188,7.732,0,7.732,0
		s5.09,28.478,32.628,25.084c24.147-2.978,27.538-29.988,27.538-29.988s2.768,4.402,8.805,4.025
		c6.035-0.376,196.02-8.112,203.944-8.3c7.923-0.189,9.558,1.133,13.33,5.282c3.769,4.149,21.939,24.08,35.331,40.111
		c13.39,16.03,14.898,16.03,26.404,15.463c11.506-0.564,66.142-6.546,90.907-7.354c69.406-2.264,107.883-6.601,107.883-6.601
		l1.319,2.641c-2.262,2.642-11.503,4.904-39.984,6.791c-28.478,1.886-211.806,16.598-283.854,20.369
		c-72.046,3.771-141.831,5.659-196.337,5.846c-12.659,0.042-57.714-1.321-57.714-1.321c0.185-3.394-1.698-8.866-1.698-8.866
		c6.602-0.565,17.11-3.132,21.125-11.694c4.275-9.107,5.346-20.088,3.206-30.553c-1.336-6.536-3.964-14.03-7.733-16.786
		c-15.25-11.162-53.375-20.558-108.634-20.558c-54.518,0-77.327,12.635-83.742,18.422c0,0-2.139,2.64-3.647,10.435
		c-1.506,7.796-1.761,31.813-1.761,31.813c-8.172,1.632-13.076,9.43-13.076,14.459c0,5.03-0.188,5.972-0.188,5.972l-29.61-1.695
		c0,0,1.886-0.628,2.262-14.207c0,0,1.656,4.723,5.281,6.666c3.276,1.753,9.125,1.138,12.259-2.265
		c6.602-7.166,4.714-19.613-1.131-24.33c-3.271-2.636-8.112-2.074-12.261,0.189c-2.73,1.488-3.963,3.584-3.963,3.584
		c-0.565-6.226-3.206-16.599-3.206-16.599c30.741,11.505,37.153-22.821,37.153-22.821C71.96,164.086,80.446,164.715,80.446,164.715z
		 M223.223,236.322c-47.115-2-47.168-2.315-51.489-1.695c-2.643,0.377-1.136,4.151,2.074,6.6c0,0-19.24-0.754-18.673-0.942
		c0.567-0.189,3.963-1.697,4.716-4.149c0.755-2.454,0.377-2.454-4.716-2.831c-5.09-0.376-53.563-2.074-53.563-2.074
		s-1.32,2.074,1.319,3.96c2.641,1.887,4.714,3.208,4.714,3.208l-10.374-0.942l-3.018-9.621l62.616,2.454
		c29.989,1.32,66.956,2.075,66.956,2.075L223.223,236.322z M223.599,245.564l-0.755,26.215c0,0-96.943-2.451-132.963-4.149
		c0,0-6.038-2.828-6.038-13.767s11.883-13.204,11.883-13.204S193.045,245.187,223.599,245.564z M92.52,224.628
		c0,0-3.395-10.184-13.392-9.994c0,0-1.508-29.989,4.714-39.796c5.516-8.692,40.175-19.616,93.926-17.164
		c53.752,2.452,86.514,13.667,92.039,19.615c7.356,7.92,12.423,44.142-3.582,50.733c-3.209,1.32-11.509,1.888-11.509,1.888
		s-0.565-4.149-3.768-7.358c0,0,11.128,1.134,15.843-2.827c5.345-4.493,7.92-29.421,1.318-36.966
		c-6.602-7.545-59.408-13.957-92.038-14.525c-32.628-0.565-72.672,5.687-79.211,12.637c-3.018,3.208-6.226,22.445-2.83,28.669
		c3.394,6.224,5.28,8.487,51.489,10.374c46.209,1.884,82.61,2.262,82.61,2.262s-3.771,4.904-3.963,6.978
		C224.166,229.154,117.414,226.138,92.52,224.628z M245.836,217.936c0,0.326,0,0.644,0,0.973h-2.262c0-0.34,0-0.669,0-1.005
		c-1.687-0.025-3.373-0.054-5.058-0.082c0,0.239,0,0.472,0,0.711h-2.263c0-0.251,0-0.496,0-0.747
		c-1.687-0.028-3.372-0.06-5.056-0.091c0,0.697,0,1.406,0,2.11c-0.745-0.014-1.5-0.027-2.265-0.042c0-0.706,0-1.416,0.002-2.109
		c-1.688-0.032-3.373-0.066-5.057-0.099c0,0.692,0,1.403,0,2.103c-0.748-0.016-1.501-0.034-2.263-0.051c0-0.697,0-1.409,0.002-2.099
		c-1.688-0.035-3.372-0.069-5.055-0.104c-0.002,0.686-0.002,1.384-0.002,2.076c-0.75-0.018-1.505-0.038-2.261-0.058
		c0-0.692,0-1.385,0-2.067c-1.69-0.037-3.375-0.074-5.057-0.113c-0.001,0.672-0.001,1.358-0.003,2.04
		c-0.75-0.023-1.5-0.045-2.259-0.068c0-0.674,0-1.354,0.002-2.023c-1.695-0.04-3.379-0.079-5.063-0.121c0,0.656,0,1.326,0,1.991
		c-0.749-0.024-1.503-0.046-2.262-0.071c0-0.659,0.002-1.324,0.003-1.975c-1.694-0.043-3.379-0.085-5.06-0.129
		c0,0.643,0,1.294,0,1.944c-0.751-0.024-1.507-0.047-2.263-0.074c0.001-0.643,0.001-1.291,0.003-1.928
		c-1.696-0.045-3.383-0.089-5.057-0.136c-0.001,0.627-0.001,1.266-0.001,1.9c-0.755-0.027-1.51-0.052-2.265-0.077
		c0-0.628,0.003-1.262,0.003-1.884c-1.698-0.044-3.386-0.095-5.058-0.141c0,0.61-0.002,1.233-0.002,1.854
		c-0.753-0.027-1.508-0.051-2.263-0.078c0-0.614,0.002-1.234,0.002-1.84c-1.698-0.049-3.386-0.1-5.057-0.147
		c0,0.599-0.003,1.209-0.003,1.816c-0.588-0.021-1.17-0.04-1.756-0.059c-0.172-0.007-0.338-0.014-0.509-0.019
		c0-0.602,0-1.209,0.001-1.807c-1.701-0.052-3.389-0.103-5.056-0.155c-0.001,0.587-0.003,1.19-0.003,1.784
		c-0.758-0.028-1.517-0.053-2.262-0.081c0-0.59,0-1.188,0-1.772c-1.706-0.053-3.389-0.106-5.056-0.161
		c-0.002,0.577-0.002,1.165-0.002,1.747c-0.761-0.029-1.515-0.06-2.263-0.087c0-0.578,0.001-1.16,0.001-1.73
		c-1.709-0.055-3.396-0.11-5.058-0.166c0,0.559,0,1.13,0,1.694c-0.765-0.033-1.515-0.065-2.265-0.097
		c0-0.557,0.002-1.123,0.003-1.673c-1.711-0.057-3.402-0.113-5.056-0.171c-0.002,0.534-0.002,1.08-0.002,1.623
		c-0.761-0.035-1.52-0.072-2.263-0.106c0-0.53,0-1.067,0.003-1.593c-1.724-0.058-3.409-0.118-5.06-0.176c0,0.503,0,1.014,0,1.52
		c-0.768-0.04-1.52-0.081-2.263-0.121c0.003-0.491,0.003-0.99,0.005-1.478c-1.735-0.062-3.423-0.121-5.064-0.181
		c0,0.45,0,0.914,0,1.365c-0.768-0.046-1.521-0.094-2.258-0.144c0-0.431,0-0.874,0-1.304c-1.75-0.065-3.432-0.124-5.06-0.187
		c0,0.376,0,0.758,0,1.135c-0.776-0.06-1.528-0.12-2.262-0.179c0-0.345,0.001-0.697,0.001-1.039
		c-1.769-0.065-3.456-0.13-5.056-0.192c0,0.252-0.001,0.511-0.001,0.763c-0.789-0.081-1.539-0.166-2.262-0.249
		c0-0.199,0-0.403,0-0.603c-1.823-0.07-3.504-0.136-5.056-0.198c0,0.035,0,0.069,0,0.103c-2.607-0.433-4.57-0.907-5.849-1.438
		c-1.67-0.69-2.894-2.268-3.723-4.383c0.003-1.012,0.005-2.025,0.01-3.034c-0.299-0.014-0.589-0.026-0.873-0.039
		c-0.141-0.731-0.256-1.491-0.338-2.281c0.392,0.019,0.793,0.035,1.225,0.057c0.01-1.865,0.02-3.703,0.031-5.496
		c-0.449-0.033-0.906-0.066-1.362-0.101c0.04-0.749,0.105-1.503,0.185-2.254c0.398,0.032,0.8,0.059,1.192,0.089
		c0.011-1.762,0.024-3.459,0.037-5.074c-0.136-0.003-0.256-0.008-0.386-0.013c0.493-2.119,1.144-4.119,1.931-5.854
		c0.164-0.359,0.426-0.717,0.776-1.074c-0.013,1.433-0.026,3.027-0.039,4.751c1.474,0.048,3.146,0.104,5.022,0.165
		c0.016-2.202,0.031-4.241,0.042-6.079c-1.125-0.038-2.255-0.078-3.384-0.118c1.348-0.843,3.226-1.692,5.668-2.561
		c-0.001,0.17-0.003,0.324-0.005,0.495c1.69,0.06,3.378,0.116,5.056,0.176c0.007-0.809,0.013-1.556,0.018-2.27
		c0.728-0.206,1.486-0.415,2.27-0.624c-0.008,0.909-0.016,1.898-0.026,2.972c1.69,0.058,3.375,0.116,5.055,0.174
		c0.013-1.659,0.026-3.119,0.036-4.39c0.716-0.154,1.475-0.309,2.265-0.459c-0.013,1.39-0.026,3.033-0.039,4.929
		c1.688,0.058,3.367,0.116,5.048,0.172c0.015-1.985,0.029-3.757,0.037-5.292c-1.191-0.033-2.353-0.064-3.495-0.098
		c3.765-0.678,8.243-1.325,13.175-1.902c1.626,0.043,3.284,0.087,4.964,0.13c0-0.232,0.003-0.456,0.003-0.676
		c0.749-0.078,1.503-0.151,2.267-0.225c-0.003,0.312-0.006,0.63-0.008,0.962c1.664,0.042,3.35,0.087,5.055,0.131
		c0.003-0.543,0.009-1.057,0.013-1.542c0.75-0.063,1.505-0.121,2.265-0.179c-0.005,0.556-0.01,1.145-0.015,1.778
		c1.67,0.045,3.352,0.09,5.056,0.131c0.005-0.817,0.013-1.569,0.016-2.261c0.753-0.044,1.51-0.093,2.265-0.134
		c-0.005,0.743-0.013,1.561-0.02,2.455c1.677,0.042,3.36,0.087,5.06,0.13c0.008-1.059,0.018-2.006,0.024-2.837
		c0.755-0.033,1.508-0.063,2.264-0.091c-0.008,0.866-0.015,1.864-0.026,2.986c1.085,0.027,2.182,0.054,3.277,0.083
		c0.578-0.304,1.173-0.563,1.787-0.78c0.008-0.904,0.015-1.717,0.02-2.44c0.757-0.017,1.512-0.03,2.265-0.042
		c-0.005,0.577-0.012,1.214-0.02,1.911c0.63-0.097,1.269-0.153,1.913-0.153c1.079,0,2.129,0.141,3.145,0.403
		c0.008-0.809,0.013-1.539,0.018-2.191c0.745,0.001,1.499,0.011,2.263,0.025c-0.008,0.86-0.018,1.854-0.027,2.986
		c0.389,0.181,0.771,0.378,1.144,0.597c1.303,0.035,2.607,0.065,3.904,0.1c0.013-1.351,0.024-2.528,0.033-3.532
		c0.749,0.033,1.5,0.065,2.261,0.104c-0.011,0.994-0.021,2.155-0.031,3.486c1.695,0.041,3.378,0.084,5.058,0.125
		c0.015-1.259,0.022-2.362,0.031-3.309c0.75,0.049,1.503,0.104,2.258,0.162c-0.006,0.926-0.016,1.994-0.026,3.205
		c1.695,0.042,3.379,0.084,5.056,0.125c0.008-1.083,0.018-2.053,0.026-2.915c0.753,0.066,1.505,0.136,2.26,0.209
		c-0.006,0.823-0.015,1.743-0.022,2.763c1.699,0.04,3.386,0.083,5.061,0.125c0.006-0.871,0.013-1.662,0.022-2.377
		c0.752,0.079,1.503,0.163,2.258,0.245c-0.005,0.664-0.011,1.394-0.018,2.185c1.703,0.041,3.388,0.085,5.056,0.125
		c0.005-0.612,0.01-1.183,0.013-1.721c0.756,0.095,1.51,0.188,2.262,0.283c-0.005,0.47-0.008,0.969-0.013,1.493
		c1.699,0.042,3.384,0.084,5.039,0.124c0.003-0.327,0.005-0.645,0.008-0.955c0.76,0.104,1.512,0.208,2.262,0.312
		c-0.005,0.231-0.008,0.459-0.008,0.698c1.714,0.041,3.402,0.084,5.055,0.122c0-0.03,0-0.058,0-0.087
		c6.25,0.937,12.021,1.916,16.897,2.837c-0.016,1.722-0.032,3.708-0.048,5.98c1.704,0.046,3.399,0.096,5.082,0.143
		c0.015-1.938,0.029-3.635,0.039-5.121c0.795,0.166,1.549,0.325,2.258,0.484c-0.013,1.382-0.026,2.946-0.037,4.7
		c1.699,0.048,3.396,0.097,5.077,0.143c0.011-1.358,0.024-2.558,0.036-3.598c0.593,0.171,1.099,0.328,1.5,0.475
		c0.264,0.096,0.505,0.206,0.751,0.308c-0.008,0.865-0.016,1.821-0.026,2.877c1.52,0.042,3.023,0.081,4.526,0.121
		c1.259,1.322,2.155,2.871,2.759,4.628c-0.008,0.891-0.015,1.833-0.021,2.838c0.241,0.004,0.491,0.009,0.734,0.014
		c0.128,0.731,0.228,1.49,0.296,2.27c-0.35-0.007-0.697-0.014-1.047-0.02c-0.016,1.972-0.027,4.125-0.036,6.476l1.159,0.033
		c-0.028,0.745-0.054,1.502-0.094,2.259l-1.074-0.029c-0.006,1.716-0.013,3.531-0.019,5.435c0.181,0.003,0.369,0.006,0.554,0.011
		c-0.126,0.772-0.277,1.527-0.457,2.254c-0.036-0.002-0.068-0.003-0.104-0.003c0,0.136,0,0.275,0,0.41
		c-0.766,2.884-2.028,5.327-4.133,6.734c-1.067-0.009-2.13-0.02-3.201-0.03c-0.001,0.4-0.001,0.816-0.001,1.223
		c-0.003,0.001-0.003,0.003-0.003,0.003c-0.632,0.089-1.388,0.167-2.255,0.235c0-0.496,0-1,0-1.486
		c-1.685-0.02-3.37-0.037-5.058-0.06c0,0.59,0,1.192,0,1.793c-0.724,0.021-1.478,0.04-2.263,0.053c0-0.628,0-1.257,0-1.876
		C249.212,217.984,247.524,217.959,245.836,217.936z M227.749,231.419c0.943-4.902,6.223-8.866,12.07-8.866
		c12.821,0,12.76,18.863,12.76,18.863s-9.808,6.098-9.808,16.846c0,11.884,4.967,16.725,4.967,16.725s-4.151,12.07-7.919,16.22
		c-3.771,4.147-11.509,4.525-12.637-3.583C226.051,279.514,226.808,236.322,227.749,231.419z M246.043,258.201
		c0.565-10.186,9.619-12.637,9.619-12.637s65.45,2.462,83.552,2.074c17.538-0.378,24.143-0.565,28.857,0.565
		c4.714,1.133,13.014,4.904,13.202,12.637c0.189,7.734-10.561,15.089-34.516,15.467c-23.953,0.376-96.188-3.962-96.188-3.962
		S245.476,268.385,246.043,258.201z M41.218,201.682c0,0,2.095-1.083,4.397-0.504c3.156,0.794,6.79,4.018,6.79,11.065
		c0,6.667-3.553,9.814-6.79,10.437c-2.685,0.516-5.152-1.005-5.152-1.005s8.047,0.754,8.047-9.303
		C48.51,202.312,41.218,201.682,41.218,201.682z M41.218,219.159c-6.979,0-6.979-15.091,0-15.091
		C46.875,204.068,48.195,219.159,41.218,219.159z M38.2,125.61c13.392,0,26.971,10.75,26.971,31.686
		c0,12.425-7.801,21.755-14.147,25.464c-4.586,2.679-9.049,2.452-9.049,2.452s16.408-6.601,16.408-26.594
		c0-19.992-12.071-28.479-20.935-28.479c-13.957,0-19.05,9.618-19.05,9.618S23.677,125.61,38.2,125.61z M17.239,157.935
		c0-13.513,8.344-24.472,18.639-24.472c10.296,0,18.641,10.957,18.641,24.472c0,13.516-8.345,24.47-18.641,24.47
		C25.583,182.404,17.239,171.449,17.239,157.935z M9.344,249.146c0-8.864,3.582-13.202,13.581-12.824
		c9.996,0.38,39.418,2.076,39.418,2.076c0,0.565,0,27.911,0,27.911s-32.063-1.507-39.227-2.452
		C15.944,262.916,9.344,258.012,9.344,249.146z M46.373,289.193c-21.844-2.362-22.884-21.878-22.884-21.878
		c6.035,1.005,38.475,2.767,38.475,2.767c0.248,17.856,9.556,20.119,9.556,20.119S55.679,290.2,46.373,289.193z M73.658,287.059
		c-4.032-1.011-8.11-6.458-8.11-16.222c0-15.654,0-35.457,0-41.115c0-5.657,3.77-11.881,12.823-11.881s12.637,13.204,14.9,20.181
		c0,0-13.202,3.961-13.202,15.843c0,9.62,4.527,15.843,8.298,16.973c0,0-4.904,9.243-7.733,13.202
		C79.47,285.671,76.482,287.766,73.658,287.059z M80.322,290.453c0,0,4.777-4.527,11.571-18.611l130.514,3.773
		c0,0,0,6.035,0.755,11.065c0.753,5.028,2.516,7.543,5.533,9.051L80.322,290.453z M160.416,344.582
		c-16.337,0.682-25.837-18.106-25.837-18.106s23.953,23.199,40.742,0.188c0,0,6.788,0.755,9.237,0.755
		C184.558,327.419,178.521,343.827,160.416,344.582z M168.337,323.271c-8.259,1.564-9.996-4.527-9.996-4.527l29.987-9.242
		c0,0,4.527,3.395,9.62,4.336C197.949,313.837,179.276,321.195,168.337,323.271z M289.988,306.86
		c-3.397,0.377-26.404-0.378-28.86-0.566c-2.451-0.187-2.639,5.846-16.786,5.846c-14.142,0-35.08-0.565-43.001-1.131
		c-7.919-0.568-12.259-9.243-14.333-9.243c-2.077,0-16.413-0.942-18.861-1.32c-2.455-0.378-6.413-3.583-6.413-3.583l30.553,1.508
		c0,0,1.886,6.413,11.694,7.168c9.806,0.753,32.628,0.94,39.988,0.566c7.355-0.378,11.313-6.037,11.127-5.472
		c-0.188,0.566,36.967,1.697,36.967,1.697S293.384,306.484,289.988,306.86z M316.959,320.062
		c-3.583-1.507-2.455-10.373-2.455-10.373c12.259,3.771,33.947,7.921,33.947,7.921c0,2.264,1.51,9.432,1.51,9.432
		S319.224,321.016,316.959,320.062z M464.26,322.703c-7.932,32.83-24.146,41.87-34.519,42.625
		c-8.888,0.647-17.727-0.567-29.045-16.032c-11.315-15.464-11.127-44.133-11.127-44.133s3.017-1.132,4.528-2.642
		c0,0,0.47,20.309,6.6,34.138c5.491,12.379,12.449,18.294,23.2,18.107c14.727-0.259,26.343-15.53,30.865-39.671
		c4.528-24.143-3.145-42.373-3.145-42.373l12.447-0.755C464.07,271.969,471.05,294.602,464.26,322.703z M444.834,301.769
		c0,15.26-6.928,27.63-15.466,27.63c-8.542,0-15.465-12.371-15.465-27.63c0-15.259,6.923-27.631,15.465-27.631
		C437.911,274.137,444.834,286.51,444.834,301.769z M439.552,274.422l7.168-0.568c0,0,10.373,18.484,3.583,43.758
		c-6.049,22.503-18.105,32.438-27.347,33.193c-9.243,0.755-14.522-8.674-14.522-8.674s5.314,3.137,12.258,1.131
		c8.487-2.454,10.188-8.675,10.188-8.675s17.729-3.585,17.729-31.498C448.605,283.474,439.552,274.422,439.552,274.422z
		 M410.319,304.787c1.419,20.506,13.016,28.667,13.016,28.667s-16.975,0.188-19.049-26.027
		c-1.683-21.275,10.374-30.366,10.374-30.366S408.998,285.738,410.319,304.787z M502.735,319.496l-0.185-5.091l200.294-19.993
		l0.755,5.282C703.6,299.695,542.343,313.837,502.735,319.496z M755.277,340.998c-27.913,0.942-29.614-51.302-29.614-51.302
		s2.645-3.016,3.397-4.149c0,0-0.104,14.684,4.151,26.971c3.7,10.707,10.209,19.048,18.29,19.048
		c17.352,0,26.404-30.555,26.404-50.546c0-19.993-7.162-32.063-7.162-32.063l11.882-0.378c0,0,5.088,9.432,5.088,32.818
		C787.718,305.164,782.299,340.087,755.277,340.998z M757.918,306.86c-6.249,0-11.314-10.639-11.314-23.765
		c0-13.123,5.068-23.764,11.314-23.764c6.25,0,11.317,10.641,11.317,23.764C769.235,296.221,764.168,306.86,757.918,306.86z
		 M771.31,299.128c0,0-4.528,25.461-18.861,27.159c-10.621,1.259-11.507-5.471-11.507-5.471c11.128,2.454,16.973-9.995,16.973-9.995
		C766.216,310.066,771.31,299.128,771.31,299.128z M742.641,281.964c0,20.368,9.432,26.594,9.432,26.594s-4.15,3.772-8.484-1.888
		c-4.338-5.658-6.414-12.069-6.414-24.142c0-12.072,3.14-20.487,7.168-23.575c5.655-4.338,9.805-1.695,9.805-1.695
		S742.641,261.595,742.641,281.964z M834.115,262.036c-11.188,4.904-29.674,8.551-29.674,8.551s4.022-7.042,3.521-15.465
		c-0.502-8.425-2.265-10.561-7.418-10.561c-5.155,0-34.704,0.751-46.401,2.261c-11.693,1.51-13.077,4.654-16.721,17.351
		c-3.645,12.7-10.124,24.771-27.974,28.921c0,0-0.944-3.018-8.489-2.075c-7.543,0.942-183.074,17.792-190.615,18.547
		c-7.545,0.755-10.438,0.313-7.608-6.666c2.829-6.978,2.829-19.048,1.889-25.839c-0.942-6.79-2.644-9.432-13.202-9.432
		c-10.561,0-54.548,2.718-69.595,4.149c-11.883,1.133-15.703,9.083-18.859,13.77c-5.848,8.675-9.437,16.689-18.485,16.973
		c-23.953,0.755-146.105-6.411-146.105-6.411c0.376,0,6.036,0.503,13.202-19.239c0,0,59.097,3.018,88.518,3.772
		c29.42,0.753,44.823-6.932,45.518-18.611c0.628-10.561-11.441-15.591-11.441-15.591s72.05-0.879,143.593-5.282
		c71.544-4.399,142.838-9.68,204.072-14.333c58.024-4.408,104.843-6.51,113.997-12.323c0.51-0.32,0.9-0.657,1.178-1.005
		c0,0,8.175,3.898,8.3,17.981C845.432,245.564,845.305,257.133,834.115,262.036z M850.146,238.585
		c-2.073-2.641-1.131-8.865-0.753-13.957c0.381-5.091-5.089-9.24-5.089-9.24s11.313,1.507,11.504,11.882
		C855.994,237.643,850.146,238.585,850.146,238.585z"/>
	<path d="M150.724,197.755c1.623,0.051,3.31,0.104,5.058,0.159c0.007-2.083,0.016-4.084,0.026-6.005
		c-1.709-0.049-3.397-0.098-5.058-0.144C150.742,193.679,150.734,195.678,150.724,197.755z"/>
	<path d="M150.7,205.195c1.662,0.062,3.347,0.126,5.06,0.189c0.006-1.779,0.011-3.516,0.016-5.208
		c-1.747-0.053-3.431-0.104-5.056-0.158C150.711,201.7,150.703,203.427,150.7,205.195z"/>
	<path d="M159.793,192.019c-0.57-0.017-1.156-0.032-1.724-0.047c-0.008,1.923-0.016,3.925-0.026,6.012
		c0.969,0.03,1.963,0.059,2.97,0.09C160.336,196.197,159.913,194.158,159.793,192.019z"/>
	<path d="M163.205,179.163c0.008-1.046,0.016-2.039,0.024-2.963c-1.696-0.045-3.384-0.088-5.06-0.131
		c-0.016,1.652-0.029,3.506-0.039,5.521c1.21,0.038,2.417,0.08,3.623,0.118C162.176,180.809,162.663,179.956,163.205,179.163z"/>
	<path d="M160.853,183.942c-0.914-0.032-1.821-0.06-2.734-0.092c-0.013,1.834-0.026,3.788-0.036,5.854
		c0.559,0.017,1.139,0.033,1.699,0.048C159.874,187.708,160.247,185.752,160.853,183.942z"/>
	<path d="M150.808,181.345c1.693,0.057,3.378,0.112,5.056,0.169c0.013-2.01,0.029-3.855,0.038-5.502
		c-1.698-0.043-3.386-0.088-5.055-0.131C150.834,177.514,150.821,179.344,150.808,181.345z"/>
	<path d="M150.682,213.319c1.661,0.053,3.351,0.107,5.058,0.165c0.005-1.986,0.008-3.932,0.015-5.835
		c-1.712-0.063-3.4-0.126-5.06-0.188C150.688,209.371,150.685,211.323,150.682,213.319z"/>
	<path d="M150.763,189.5c1.659,0.046,3.347,0.094,5.06,0.143c0.01-2.07,0.021-4.028,0.031-5.865
		c-1.678-0.056-3.363-0.111-5.055-0.169C150.784,185.454,150.771,187.42,150.763,189.5z"/>
	<path d="M136.172,180.852c1.695,0.058,3.378,0.114,5.055,0.172c0.018-1.984,0.031-3.782,0.039-5.396
		c-1.711-0.044-3.399-0.091-5.055-0.136C136.198,177.094,136.187,178.883,136.172,180.852z"/>
	<path d="M143.362,213.074c1.656,0.057,3.347,0.113,5.056,0.173c0.003-2.001,0.012-3.959,0.015-5.872
		c-1.717-0.066-3.4-0.131-5.056-0.196C143.374,209.101,143.366,211.065,143.362,213.074z"/>
	<path d="M136.124,189.076c1.646,0.048,3.337,0.097,5.058,0.149c0.01-2.104,0.023-4.083,0.032-5.936
		c-1.678-0.057-3.36-0.113-5.054-0.172C136.146,184.978,136.137,186.965,136.124,189.076z"/>
	<path d="M143.406,197.516c1.618,0.054,3.302,0.109,5.056,0.168c0.006-2.076,0.016-4.071,0.027-5.982
		c-1.715-0.048-3.4-0.1-5.056-0.146C143.424,193.458,143.414,195.449,143.406,197.516z"/>
	<path d="M143.382,204.915c1.654,0.063,3.337,0.128,5.055,0.194c0.006-1.764,0.011-3.488,0.018-5.161
		c-1.754-0.057-3.438-0.111-5.056-0.168C143.392,201.45,143.387,203.16,143.382,204.915z"/>
	<path d="M143.445,189.29c1.654,0.048,3.339,0.097,5.057,0.146c0.011-2.085,0.021-4.055,0.034-5.903
		c-1.678-0.054-3.363-0.111-5.056-0.169C143.466,185.217,143.455,187.19,143.445,189.29z"/>
	<path d="M143.492,181.101c1.694,0.056,3.376,0.113,5.054,0.171c0.015-1.997,0.029-3.819,0.039-5.45
		c-1.706-0.044-3.393-0.089-5.055-0.134C143.518,177.307,143.505,179.109,143.492,181.101z"/>
	<path d="M189.739,190.555c0.895,0.023,1.782,0.045,2.68,0.068c0.01-1.995,0.022-3.884,0.034-5.661
		c-1.168-0.034-2.344-0.074-3.521-0.111C189.436,186.642,189.721,188.559,189.739,190.555z"/>
	<path d="M136.088,197.264c1.608,0.057,3.292,0.116,5.054,0.176c0.01-2.062,0.018-4.052,0.029-5.953
		c-1.719-0.05-3.412-0.1-5.056-0.147C136.104,193.229,136.095,195.21,136.088,197.264z"/>
	<path d="M188.184,198.857c1.375,0.039,2.771,0.079,4.198,0.119c0.008-2.112,0.018-4.143,0.027-6.088
		c-0.93-0.025-1.84-0.049-2.761-0.073C189.45,194.966,188.945,197.002,188.184,198.857z"/>
	<path d="M194.727,182.768c1.695,0.053,3.379,0.104,5.06,0.158c0.013-2.124,0.026-4.073,0.036-5.805
		c-1.675-0.042-3.362-0.083-5.055-0.126C194.754,178.715,194.742,180.653,194.727,182.768z"/>
	<path d="M194.645,199.039c1.651,0.044,3.339,0.092,5.056,0.141c0.01-2.123,0.021-4.156,0.029-6.11
		c-1.695-0.042-3.384-0.084-5.057-0.125C194.662,194.894,194.652,196.924,194.645,199.039z"/>
	<path d="M187.299,206.501c1.672,0.055,3.355,0.109,5.058,0.167c0.003-1.857,0.01-3.666,0.016-5.426
		c-1.724-0.048-3.407-0.096-5.058-0.143C187.309,202.853,187.304,204.653,187.299,206.501z"/>
	<path d="M194.619,206.742c1.675,0.053,3.354,0.108,5.058,0.162c0.003-1.868,0.01-3.688,0.016-5.459
		c-1.719-0.047-3.405-0.095-5.056-0.14C194.63,203.068,194.625,204.882,194.619,206.742z"/>
	<path d="M194.602,214.616c1.677,0.042,3.36,0.087,5.058,0.128c0.003-1.898,0.006-3.755,0.01-5.575
		c-1.7-0.055-3.383-0.106-5.058-0.163C194.61,210.836,194.605,212.707,194.602,214.616z"/>
	<path d="M158.036,200.249c-0.007,1.695-0.015,3.437-0.02,5.221c1.664,0.063,3.354,0.125,5.061,0.186
		c0.001-1.169,0.008-2.316,0.011-3.445c-0.389-0.585-0.751-1.201-1.079-1.842C160.657,200.326,159.323,200.287,158.036,200.249z"/>
	<path d="M165.334,208c-0.003,1.887-0.008,3.816-0.011,5.783c1.668,0.052,3.354,0.105,5.058,0.155
		c0.001-1.958,0.005-3.874,0.011-5.749c-0.01-0.003-0.016-0.005-0.024-0.01C168.673,208.124,166.991,208.062,165.334,208z"/>
	<path d="M187.283,214.423c1.675,0.044,3.358,0.091,5.058,0.134c0.001-1.913,0.006-3.788,0.01-5.626
		c-1.7-0.055-3.386-0.109-5.057-0.167C187.289,210.612,187.286,212.498,187.283,214.423z"/>
	<path d="M172.653,208.792c-0.003,1.707-0.006,3.442-0.01,5.214c1.669,0.049,3.354,0.101,5.057,0.149
		c0.003-1.886,0.006-3.729,0.011-5.536c-0.959,0.232-1.947,0.356-2.961,0.356C174.039,208.974,173.339,208.91,172.653,208.792z"/>
	<path d="M158.003,213.557c1.667,0.054,3.352,0.104,5.056,0.159c0.003-1.97,0.007-3.904,0.012-5.794
		c-1.705-0.063-3.394-0.125-5.057-0.184C158.009,209.633,158.005,211.574,158.003,213.557z"/>
	<path d="M179.963,214.219c1.672,0.047,3.356,0.096,5.056,0.143c0.003-1.93,0.006-3.823,0.011-5.672
		c-1.698-0.057-3.389-0.112-5.058-0.171C179.97,210.378,179.966,212.279,179.963,214.219z"/>
	<path d="M182.526,206.338c0.836,0.03,1.665,0.057,2.511,0.086c0.002-0.818,0.003-1.625,0.007-2.424
		C184.276,204.884,183.434,205.668,182.526,206.338z"/>
	<path d="M187.416,181.039c0.254,0.493,0.496,1,0.713,1.521c1.452,0.044,2.897,0.093,4.335,0.138c0.013-2.11,0.027-4.043,0.037-5.76
		c-1.682-0.042-3.367-0.084-5.06-0.125C187.435,178.106,187.427,179.52,187.416,181.039z"/>
	<path d="M99.517,195.371c1.712,0.123,3.378,0.241,5.037,0.35c0.008-1.863,0.02-3.653,0.029-5.35
		c-1.875-0.06-3.551-0.114-5.025-0.165C99.542,191.851,99.528,193.58,99.517,195.371z"/>
	<path d="M99.473,203.073c1.513,0.069,3.201,0.146,5.048,0.228c0.006-1.828,0.016-3.598,0.024-5.312
		c-1.663-0.112-3.331-0.229-5.042-0.351C99.492,199.41,99.482,201.23,99.473,203.073z"/>
	<path d="M258.229,210.791c-1.691-0.04-3.378-0.081-5.058-0.12c-0.003,1.652-0.006,3.353-0.01,5.102
		c1.688,0.022,3.372,0.042,5.058,0.06C258.221,214.095,258.225,212.417,258.229,210.791z"/>
	<path d="M99.442,211.425c1.387,0.058,3.08,0.128,5.058,0.207c0.003-2.072,0.008-4.1,0.014-6.066
		c-1.845-0.082-3.535-0.158-5.051-0.228C99.453,207.364,99.447,209.401,99.442,211.425z"/>
	<path d="M106.816,195.87c1.659,0.108,3.33,0.209,5.055,0.309c0.01-1.944,0.02-3.807,0.029-5.574
		c-1.798-0.057-3.48-0.109-5.055-0.16C106.834,192.164,106.825,193.979,106.816,195.87z"/>
	<path d="M106.763,211.725c1.55,0.062,3.237,0.127,5.056,0.197c0.005-2.062,0.01-4.078,0.015-6.036
		c-1.785-0.076-3.474-0.149-5.056-0.221C106.771,207.629,106.766,209.655,106.763,211.725z"/>
	<path d="M106.784,203.4c1.584,0.07,3.271,0.144,5.058,0.22c0.005-1.778,0.012-3.506,0.023-5.179
		c-1.722-0.099-3.397-0.199-5.06-0.306C106.797,199.835,106.791,201.589,106.784,203.4z"/>
	<path d="M265.675,187.119c-1.677-0.046-3.365-0.093-5.066-0.139c-0.015,1.561-0.028,3.293-0.037,5.186
		c1.685,0.035,3.373,0.066,5.061,0.098C265.648,190.343,265.662,188.637,265.675,187.119z"/>
	<path d="M265.619,194.526c-1.691-0.035-3.376-0.065-5.06-0.098c-0.013,1.981-0.027,4.117-0.036,6.417l5.06,0.139
		C265.594,198.642,265.607,196.494,265.619,194.526z"/>
	<path d="M258.252,203.049l-2.359-0.063c-0.907-0.026-1.805-0.05-2.701-0.074c-0.006,1.764-0.011,3.595-0.016,5.495
		c1.68,0.041,3.367,0.083,5.058,0.121C258.239,206.619,258.246,204.789,258.252,203.049z"/>
	<path d="M265.573,203.248l-5.058-0.138c-0.006,1.737-0.013,3.565-0.018,5.469c1.682,0.038,3.367,0.076,5.058,0.114
		C265.56,206.786,265.567,204.966,265.573,203.248z"/>
	<path d="M106.859,188.18c1.576,0.049,3.256,0.103,5.056,0.159c0.016-2.191,0.031-4.214,0.042-6.052
		c-1.678-0.058-3.367-0.116-5.055-0.176C106.888,183.947,106.873,185.981,106.859,188.18z"/>
	<path d="M265.549,210.959c-1.689-0.037-3.376-0.077-5.058-0.115c-0.003,1.618-0.007,3.286-0.008,5.014
		c1.69,0.019,3.372,0.035,5.056,0.05C265.542,214.193,265.546,212.548,265.549,210.959z"/>
	<path d="M258.26,200.786c0.011-2.294,0.022-4.424,0.034-6.4c-1.693-0.035-3.379-0.066-5.064-0.103
		c-0.01,1.998-0.023,4.119-0.033,6.365c0.916,0.025,1.833,0.048,2.754,0.075L258.26,200.786z"/>
	<path d="M258.348,186.917c-1.683-0.045-3.372-0.093-5.076-0.141c-0.01,1.621-0.021,3.367-0.032,5.243
		c1.685,0.035,3.375,0.068,5.067,0.101C258.322,190.222,258.334,188.482,258.348,186.917z"/>
	<path d="M121.423,204.027c1.628,0.07,3.314,0.139,5.055,0.21c0.005-1.735,0.011-3.429,0.016-5.081
		c-1.766-0.075-3.448-0.147-5.055-0.222C121.433,200.582,121.426,202.282,121.423,204.027z"/>
	<path d="M128.739,204.331c1.645,0.068,3.328,0.136,5.06,0.206c0.005-1.741,0.012-3.439,0.017-5.091
		c-1.766-0.065-3.453-0.129-5.057-0.194C128.752,200.9,128.746,202.598,128.739,204.331z"/>
	<path d="M128.769,196.985c1.604,0.065,3.284,0.129,5.055,0.196c0.011-2.045,0.021-4.022,0.031-5.907
		c-1.73-0.051-3.417-0.103-5.053-0.152C128.787,192.994,128.777,194.95,128.769,196.985z"/>
	<path d="M128.722,212.56c1.638,0.06,3.328,0.119,5.06,0.181c0.005-2.023,0.008-4.007,0.013-5.941
		c-1.73-0.068-3.413-0.136-5.06-0.204C128.73,208.543,128.722,210.529,128.722,212.56z"/>
	<path d="M128.861,180.604c1.691,0.058,3.368,0.115,5.05,0.173c0.013-1.968,0.026-3.75,0.034-5.345
		c-1.716-0.046-3.397-0.093-5.043-0.136C128.892,176.837,128.877,178.612,128.861,180.604z"/>
	<path d="M136.043,212.819c1.651,0.06,3.337,0.117,5.061,0.177c0.003-2.011,0.006-3.98,0.011-5.906
		c-1.719-0.068-3.409-0.134-5.056-0.201C136.051,208.822,136.048,210.801,136.043,212.819z"/>
	<path d="M114.083,212.01c1.599,0.062,3.284,0.126,5.056,0.193c0.003-2.053,0.007-4.055,0.013-6.006
		c-1.754-0.074-3.441-0.146-5.055-0.215C114.091,207.939,114.086,209.952,114.083,212.01z"/>
	<path d="M121.495,188.637c1.625,0.049,3.312,0.103,5.051,0.154c0.013-2.136,0.026-4.142,0.039-6
		c-1.682-0.057-3.36-0.115-5.05-0.172C121.522,184.455,121.507,186.462,121.495,188.637z"/>
	<path d="M128.809,188.857c1.64,0.051,3.323,0.1,5.053,0.152c0.01-2.114,0.022-4.108,0.034-5.971
		c-1.678-0.057-3.355-0.112-5.048-0.171C128.835,184.723,128.822,186.725,128.809,188.857z"/>
	<path d="M114.178,188.411c1.605,0.049,3.295,0.103,5.053,0.157c0.014-2.178,0.031-4.189,0.042-6.029
		c-1.682-0.058-3.365-0.114-5.053-0.172C114.206,184.201,114.191,186.222,114.178,188.411z"/>
	<path d="M114.134,196.305c1.619,0.089,3.291,0.174,5.057,0.26c0.009-2.002,0.019-3.915,0.029-5.735
		c-1.756-0.053-3.446-0.104-5.053-0.155C114.152,192.458,114.143,194.339,114.134,196.305z"/>
	<path d="M114.104,203.717c1.614,0.07,3.3,0.141,5.055,0.217c0.007-1.751,0.013-3.456,0.02-5.105
		c-1.759-0.087-3.43-0.172-5.055-0.261C114.117,200.231,114.11,201.952,114.104,203.717z"/>
	<path d="M136.062,204.627c1.648,0.064,3.337,0.13,5.055,0.198c0.007-1.75,0.012-3.457,0.018-5.121
		c-1.761-0.06-3.446-0.117-5.056-0.176C136.072,201.183,136.065,202.883,136.062,204.627z"/>
	<path d="M121.451,196.67c1.605,0.075,3.284,0.148,5.055,0.223c0.011-2.026,0.021-3.975,0.031-5.84
		c-1.74-0.053-3.425-0.104-5.051-0.154C121.472,192.729,121.46,194.656,121.451,196.67z"/>
	<path d="M121.4,212.287c1.624,0.062,3.31,0.123,5.058,0.188c0.003-2.033,0.006-4.023,0.013-5.975
		c-1.74-0.07-3.425-0.141-5.058-0.209C121.41,208.241,121.404,210.239,121.4,212.287z"/>
	<path d="M194.682,190.681c1.673,0.042,3.358,0.084,5.056,0.126c0.01-1.977,0.021-3.851,0.033-5.618
		c-1.679-0.051-3.362-0.104-5.058-0.16C194.703,186.808,194.693,188.691,194.682,190.681z"/>
	<path d="M231.23,200.048c1.659,0.044,3.344,0.093,5.048,0.139c0.011-2.182,0.02-4.268,0.028-6.258
		c-1.69-0.036-3.373-0.074-5.05-0.112C231.245,195.807,231.239,197.889,231.23,200.048z"/>
	<path d="M231.307,183.882c1.693,0.049,3.373,0.1,5.048,0.148c0.016-2.202,0.029-4.208,0.041-6.011
		c-1.64-0.041-3.326-0.082-5.053-0.125C231.333,179.71,231.32,181.711,231.307,183.882z"/>
	<path d="M231.265,191.552c1.679,0.035,3.362,0.075,5.052,0.109c0.008-1.884,0.016-3.681,0.027-5.368
		c-1.674-0.048-3.355-0.098-5.05-0.147C231.284,187.859,231.274,189.659,231.265,191.552z"/>
	<path d="M238.516,215.558c1.687,0.027,3.373,0.054,5.058,0.081c0-1.787,0.003-3.524,0.005-5.207
		c-1.691-0.044-3.378-0.088-5.057-0.133C238.52,212.01,238.518,213.761,238.516,215.558z"/>
	<path d="M223.916,199.847c1.659,0.044,3.342,0.092,5.051,0.138c0.008-2.155,0.017-4.233,0.024-6.221
		c-1.689-0.037-3.375-0.074-5.05-0.114C223.932,195.636,223.926,197.703,223.916,199.847z"/>
	<path d="M223.994,183.665c1.693,0.05,3.376,0.102,5.05,0.151c0.013-2.171,0.026-4.165,0.038-5.976
		c-1.651-0.04-3.337-0.083-5.052-0.123C224.02,179.521,224.007,181.511,223.994,183.665z"/>
	<path d="M223.952,191.386c1.68,0.039,3.36,0.076,5.051,0.115c0.008-1.899,0.018-3.705,0.029-5.423
		c-1.673-0.048-3.357-0.098-5.048-0.15C223.973,187.658,223.961,189.48,223.952,191.386z"/>
	<path d="M238.526,208.034c1.679,0.044,3.365,0.09,5.058,0.133c0.003-1.908,0.006-3.751,0.013-5.518
		c-1.708-0.044-3.396-0.092-5.058-0.138C238.532,204.295,238.529,206.136,238.526,208.034z"/>
	<path d="M231.198,215.43c1.683,0.031,3.37,0.062,5.056,0.09c0-1.804,0.002-3.561,0.003-5.281c-1.691-0.045-3.372-0.091-5.051-0.138
		C231.203,211.841,231.2,213.617,231.198,215.43z"/>
	<path d="M231.209,207.838c1.677,0.047,3.36,0.093,5.053,0.138c0.003-1.899,0.008-3.743,0.013-5.526
		c-1.706-0.046-3.391-0.092-5.052-0.138C231.219,204.104,231.213,205.947,231.209,207.838z"/>
	<path d="M250.931,202.848c-1.711-0.044-3.404-0.093-5.071-0.138c-0.005,1.766-0.009,3.608-0.014,5.515
		c1.685,0.041,3.373,0.084,5.067,0.125C250.917,206.449,250.923,204.613,250.931,202.848z"/>
	<path d="M250.907,210.615c-1.693-0.04-3.381-0.083-5.064-0.126c-0.003,1.677-0.003,3.406-0.005,5.184
		c1.69,0.025,3.376,0.048,5.061,0.071C250.9,213.986,250.903,212.277,250.907,210.615z"/>
	<path d="M238.545,200.249c1.662,0.044,3.352,0.091,5.06,0.138c0.008-2.225,0.018-4.32,0.027-6.301
		c-1.694-0.034-3.379-0.071-5.061-0.109C238.557,195.97,238.552,198.061,238.545,200.249z"/>
	<path d="M201.923,214.799c1.68,0.04,3.363,0.081,5.058,0.121c0.003-1.879,0.006-3.721,0.013-5.523
		c-1.698-0.052-3.384-0.105-5.06-0.158C201.928,211.054,201.923,212.908,201.923,214.799z"/>
	<path d="M250.968,194.238c-1.696-0.035-3.389-0.07-5.078-0.104c-0.011,1.983-0.019,4.085-0.029,6.315
		c1.668,0.045,3.36,0.093,5.077,0.138C250.947,198.346,250.957,196.23,250.968,194.238z"/>
	<path d="M238.578,191.713c1.684,0.035,3.368,0.071,5.062,0.108c0.011-1.898,0.022-3.667,0.034-5.315
		c-1.68-0.048-3.365-0.098-5.067-0.147C238.597,188.043,238.587,189.834,238.578,191.713z"/>
	<path d="M251.014,186.713c-1.687-0.048-3.376-0.095-5.083-0.145c-0.009,1.644-0.019,3.41-0.029,5.299
		c1.688,0.035,3.379,0.069,5.074,0.104C250.991,190.092,250.999,188.338,251.014,186.713z"/>
	<path d="M238.62,184.096c1.698,0.049,3.387,0.097,5.071,0.146c0.016-2.298,0.032-4.309,0.045-6.044
		c-1.63-0.04-3.328-0.082-5.074-0.123C238.647,179.883,238.633,181.891,238.62,184.096z"/>
	<path d="M209.261,207.201c1.675,0.049,3.357,0.103,5.055,0.152c0.006-1.886,0.013-3.717,0.02-5.504
		c-1.717-0.046-3.402-0.093-5.056-0.139C209.271,203.492,209.266,205.32,209.261,207.201z"/>
	<path d="M209.245,214.975c1.682,0.038,3.365,0.076,5.058,0.113c0.003-1.86,0.006-3.685,0.011-5.47
		c-1.695-0.05-3.381-0.101-5.057-0.152C209.25,211.264,209.25,213.101,209.245,214.975z"/>
	<path d="M209.287,199.444c1.656,0.044,3.339,0.092,5.056,0.139c0.008-2.137,0.017-4.191,0.029-6.156
		c-1.696-0.041-3.378-0.082-5.06-0.12C209.305,195.265,209.293,197.315,209.287,199.444z"/>
	<path d="M201.938,206.976c1.675,0.051,3.357,0.104,5.06,0.155c0.005-1.877,0.011-3.704,0.018-5.485
		c-1.72-0.048-3.405-0.096-5.059-0.141C201.949,203.282,201.944,205.103,201.938,206.976z"/>
	<path d="M209.324,191.042c1.678,0.041,3.358,0.082,5.056,0.12c0.01-1.944,0.02-3.784,0.032-5.52
		c-1.678-0.051-3.36-0.104-5.058-0.155C209.345,187.233,209.335,189.084,209.324,191.042z"/>
	<path d="M223.894,207.632c1.68,0.049,3.36,0.097,5.053,0.143c0.008-1.889,0.011-3.732,0.018-5.525
		c-1.711-0.047-3.394-0.093-5.052-0.138C223.905,203.907,223.898,205.746,223.894,207.632z"/>
	<path d="M202.001,190.863c1.677,0.04,3.36,0.083,5.06,0.123c0.012-1.964,0.023-3.819,0.033-5.569
		c-1.68-0.052-3.363-0.104-5.061-0.156C202.022,187.023,202.011,188.893,202.001,190.863z"/>
	<path d="M202.046,182.997c1.695,0.053,3.381,0.104,5.062,0.157c0.016-2.16,0.031-4.116,0.041-5.851
		c-1.675-0.042-3.363-0.083-5.062-0.126C202.072,178.913,202.06,180.867,202.046,182.997z"/>
	<path d="M201.964,199.242c1.656,0.046,3.341,0.094,5.06,0.141c0.008-2.127,0.021-4.176,0.031-6.132
		c-1.698-0.04-3.386-0.081-5.063-0.122C201.98,195.082,201.972,197.119,201.964,199.242z"/>
	<path d="M216.644,191.217c1.677,0.038,3.355,0.08,5.048,0.116c0.009-1.912,0.019-3.737,0.029-5.473
		c-1.673-0.049-3.355-0.101-5.043-0.152C216.663,187.442,216.653,189.277,216.644,191.217z"/>
	<path d="M216.687,183.447c1.695,0.051,3.372,0.103,5.043,0.152c0.013-2.149,0.026-4.136,0.039-5.936
		c-1.657-0.04-3.341-0.081-5.04-0.123C216.715,179.293,216.702,181.27,216.687,183.447z"/>
	<path d="M216.604,199.646c1.656,0.043,3.339,0.091,5.05,0.138c0.007-2.138,0.015-4.204,0.023-6.187
		c-1.688-0.038-3.367-0.078-5.045-0.116C216.623,195.449,216.613,197.505,216.604,199.646z"/>
	<path d="M223.88,215.29c1.683,0.033,3.367,0.066,5.055,0.098c0.003-1.82,0.005-3.602,0.006-5.349
		c-1.691-0.046-3.373-0.095-5.051-0.143C223.885,211.66,223.882,213.458,223.88,215.29z"/>
	<path d="M216.564,215.136c1.684,0.037,3.363,0.073,5.053,0.106c0.001-1.836,0.006-3.642,0.011-5.412
		c-1.694-0.048-3.376-0.098-5.053-0.147C216.571,211.464,216.566,213.285,216.564,215.136z"/>
	<path d="M209.369,183.224c1.695,0.05,3.378,0.103,5.057,0.155c0.018-2.171,0.031-4.146,0.041-5.895
		c-1.667-0.042-3.354-0.084-5.057-0.125C209.397,179.099,209.386,181.06,209.369,183.224z"/>
	<path d="M216.579,207.421c1.674,0.048,3.357,0.098,5.051,0.148c0.005-1.887,0.012-3.726,0.017-5.52
		c-1.712-0.046-3.394-0.093-5.05-0.138C216.59,203.699,216.583,205.534,216.579,207.421z"/>
	<path d="M318.845,236.135c6.976,0,12.63-7.049,12.63-15.743c0-8.695-5.654-15.744-12.63-15.744s-12.632,7.049-12.632,15.744
		C306.213,229.086,311.869,236.135,318.845,236.135z M320.353,208.401c3.474,0.874,7.472,4.418,7.472,12.176
		c0,7.336-3.911,10.802-7.472,11.483c-2.954,0.569-5.672-1.105-5.672-1.105s8.854,0.831,8.854-10.241
		c0-11.068-8.024-11.76-8.024-11.76S317.817,207.762,320.353,208.401z M315.511,211.584c6.226,0,7.679,16.604,0,16.604
		C307.833,228.187,307.833,211.584,315.511,211.584z"/>
	<path d="M686.576,92.809c5.112,0.986,13.67,1.861,15.893-0.985c0,0,2.663,1.861,7,1.314c4.334-0.549,9.891-2.958,12.447-1.863
		c0,0,3.221,0.439,3.778-2.188c0,0,0.106-2.958-1.224-3.835c0,0-0.443,3.175-3.111,3.067c0,0-5-0.438-8.556,1.424
		c-3.557,1.862-8.669-1.534-8.669-1.534s-1.332,3.503-7.001,2.735c-5.667-0.766-11.483-1.167-13.557-0.657
		c-4.449,1.095-4.334,5.586-4.334,5.586C679.354,95.546,681.466,91.824,686.576,92.809z"/>
	<path d="M662.483,93.736c8.115,1.695,10.374-2.075,10.374-2.075c-2.074,1.32-7.729-0.188-15.653-1.509
		c-7.923-1.322-3.963,6.602-3.963,6.602S654.375,92.039,662.483,93.736z"/>
	<path d="M173.872,175.844c-6.221,0-11.266,6.123-11.266,13.672c0,7.554,5.045,13.674,11.266,13.674
		c6.22,0,11.263-6.12,11.263-13.674C185.135,181.967,180.091,175.844,173.872,175.844z M172.676,199.268
		c-3.95,0-7.153-3.888-7.153-8.681s3.203-8.681,7.153-8.681c3.953,0,7.154,3.888,7.154,8.681S176.624,199.268,172.676,199.268z"/>
</g>
</svg>
